SplineFontDB: 3.0
FontName: Tuffy-Bold-Italic
FullName: Tuffy Bold Italic
FamilyName: Tuffy
Weight: Bold
Copyright: Created by Thatcher Ulrich (http://tulrich.com), Karoly Barta and Michael Everson with FontForge  (http://fontforge.sf.net)\n\nLicensed under SIL OFL v1.1 (see LICENSE.txt)\n
FontLog: "2010-08-20: Merged accented and extended characters from Karoly Barta and Michael Everson.+AAoA-2004-9-1: Created.+AAoA" 
Version: 001.270
DefaultBaseFilename: Tuffy_Bold
ItalicAngle: -12
UnderlinePosition: -204
UnderlineWidth: 102
Ascent: 1597
Descent: 451
LayerCount: 2
Layer: 0 0 "Back"  1
Layer: 1 0 "Fore"  0
XUID: [1021 745 1046372284 8541740]
FSType: 0
OS2Version: 0
OS2_WeightWidthSlopeOnly: 0
OS2_UseTypoMetrics: 0
CreationTime: 1166531129
ModificationTime: 1314198634
PfmFamily: 33
TTFWeight: 700
TTFWidth: 5
LineGap: 190
VLineGap: 0
Panose: 2 11 8 3 6 1 0 0 0 0
OS2TypoAscent: 0
OS2TypoAOffset: 1
OS2TypoDescent: 0
OS2TypoDOffset: 1
OS2TypoLinegap: 0
OS2WinAscent: 0
OS2WinAOffset: 1
OS2WinDescent: 0
OS2WinDOffset: 1
HheadAscent: 0
HheadAOffset: 1
HheadDescent: 0
HheadDOffset: 1
OS2Vendor: 'PfEd'
Lookup: 258 0 0 "'kern' Horizontal Kerning in Latin lookup 0"  {"'kern' Horizontal Kerning in Latin lookup 0 subtable"  } ['kern' ('latn' <'dflt' > ) ]
MarkAttachClasses: 1
DEI: 91125
ShortTable: cvt  2
  33
  633
EndShort

StartChar: exclam
Encoding: 33 33 1
Width: 457
Flags: W
HStem: -33 328<176.75 345.647> 1463 20G<520.5 571>
VStem: 97 572
LayerCount: 2
Fore
SplineSet
97 131 m 0
 116 222 206 295 296 295 c 0
 375 295 429 240 429 166 c 0
 429 155 428 143 425 131 c 0
 406 41 317 -33 226 -33 c 0
 148 -33 93 23 93 97 c 0
 93 108 95 119 97 131 c 0
426 440 m 1
 419 406 343 381 314 381 c 1
 284 381 226 404 226 435 c 0
 226 437 227 438 227 440 c 1
 387 1389 l 1
 398 1442 495 1483 546 1483 c 1
 596 1483 669 1445 669 1400 c 0
 669 1397 669 1394 668 1391 c 1
 426 440 l 1
EndSplineSet
EndChar

StartChar: quotedbl
Encoding: 34 34 2
Width: 874
Flags: W
HStem: 1044 498<459.927 570.324 834.143 945.324>
VStem: 382 667
LayerCount: 2
Back
SplineSet
442.368 1091.58 m 1
 421.886 1466.37 l 1
 421.89 1515.74 458.062 1542.25 493.697 1542.25 c 0
 495.021 1542.25 496.343 1542.22 497.664 1542.14 c 0
 529.511 1542.14 561.359 1523.8 569.437 1485.79 c 0
 570.71 1479.81 571.39 1473.33 571.39 1466.37 c 1
 550.912 1091.58 l 1
 548.864 1060.86 520.192 1044.48 495.616 1044.48 c 0
 473.258 1044.48 449.204 1056.35 443.505 1083.16 c 0
 442.938 1085.82 442.553 1088.63 442.368 1091.58 c 1
149.504 1091.58 m 1
 129.021 1466.37 l 1
 129.026 1515.74 165.198 1542.25 200.834 1542.25 c 0
 202.156 1542.25 203.48 1542.22 204.8 1542.14 c 0
 236.646 1542.14 268.495 1523.8 276.572 1485.79 c 0
 277.846 1479.81 278.526 1473.33 278.526 1466.37 c 1
 258.048 1091.58 l 1
 256 1060.86 227.328 1044.48 202.752 1044.48 c 0
 180.394 1044.48 156.34 1056.35 150.64 1083.16 c 0
 150.074 1085.82 149.688 1088.63 149.504 1091.58 c 1
EndSplineSet
Fore
SplineSet
382 1092 m 1
 441 1466 l 1
 452 1516 534 1542 570 1542 c 0
 571 1542 572 1542 574 1542 c 0
 606 1542 674 1524 674 1486 c 0
 675 1480 673 1473 672 1466 c 1
 572 1092 l 1
 563 1061 490 1044 466 1044 c 0
 443 1044 380 1056 381 1083 c 0
 381 1086 381 1089 382 1092 c 1
756 1092 m 1
 816 1466 l 1
 827 1516 909 1542 945 1542 c 0
 946 1542 947 1542 949 1542 c 0
 980 1542 1049 1524 1049 1486 c 0
 1050 1480 1048 1473 1047 1466 c 1
 947 1092 l 1
 938 1061 865 1044 840 1044 c 0
 818 1044 755 1056 755 1083 c 0
 756 1086 755 1089 756 1092 c 1
EndSplineSet
EndChar

StartChar: numbersign
Encoding: 35 35 3
Width: 1565
Flags: HMW
LayerCount: 2
Back
SplineSet
958.464 546.816 m 0
 958.464 884.736 l 0
 616.448 884.736 l 0
 616.448 546.816 l 0
 958.464 546.816 l 0
1107.97 405.504 m 0
 1107.97 53.248 l 1
 958.464 53.248 l 1
 958.464 405.504 l 0
 616.448 405.504 l 0
 616.448 53.248 l 1
 466.944 53.248 l 1
 466.944 405.504 l 0
 118.784 405.504 l 1
 118.784 546.816 l 1
 466.944 546.816 l 0
 466.944 884.736 l 0
 118.784 884.736 l 1
 118.784 1024 l 1
 466.944 1024 l 0
 466.944 1402.88 l 1
 616.448 1402.88 l 1
 616.448 1024 l 0
 958.464 1024 l 0
 958.464 1402.88 l 1
 1107.97 1402.88 l 1
 1107.97 1024 l 0
 1468.42 1024 l 1
 1468.42 884.736 l 1
 1107.97 884.736 l 0
 1107.97 546.816 l 0
 1468.42 546.816 l 1
 1468.42 405.504 l 1
 1107.97 405.504 l 0
EndSplineSet
Fore
SplineSet
1003 596 m 0
 1054 836 l 0
 869 836 l 0
 818 596 l 0
 1003 596 l 0
1206 356 m 0
 1140 47 l 1
 886 47 l 1
 952 356 l 0
 767 356 l 0
 701 47 l 1
 447 47 l 1
 513 356 l 0
 195 356 l 1
 246 596 l 1
 564 596 l 0
 615 836 l 0
 297 836 l 1
 347 1073 l 1
 665 1073 l 0
 735 1403 l 1
 989 1403 l 1
 919 1073 l 0
 1104 1073 l 0
 1174 1403 l 1
 1428 1403 l 1
 1358 1073 l 0
 1669 1073 l 1
 1619 836 l 1
 1308 836 l 0
 1257 596 l 0
 1568 596 l 1
 1517 356 l 1
 1206 356 l 0
EndSplineSet
EndChar

StartChar: dollar
Encoding: 36 36 4
Width: 927
Flags: W
HStem: -26 251<417.914 428 648 749.664> 1073 21G<922.5 1003.78>
VStem: 256 279<914.142 1106.59> 828 281<298.874 534.421>
LayerCount: 2
Back
SplineSet
18.4316 343.497 m 1
 266.127 426.394 l 1
 333.824 282.624 372.736 212.992 530.432 212.992 c 1
 684.032 212.992 741.376 278.528 741.376 393.216 c 1
 741.376 507.371 649.912 578.865 464.896 626.688 c 0
 277.113 675.808 45.0557 769.688 45.0557 1028.1 c 1
 45.0557 1301.06 265.624 1409.64 513.186 1409.64 c 1
 742.695 1409.64 879.372 1331.23 968.09 1151.04 c 1
 705.098 1073.14 l 1
 662.622 1149.38 624.193 1169.41 509.952 1169.41 c 1
 400.085 1169.41 319.488 1156.44 319.488 1028.1 c 1
 319.488 897.611 480.215 863.31 583.537 831.054 c 0
 791.046 760.94 1015.81 671.55 1015.81 393.216 c 1
 1015.81 122.88 811.008 -28.6719 530.432 -28.6719 c 1
 253.952 -28.6719 114.688 102.4 18.4316 343.497 c 1
EndSplineSet
Fore
SplineSet
759 1537 m 1
 929 1537 l 1
 900 1404 l 1
 1065 1391 1166 1309 1217 1155 c 1
 935 1073 l 1
 910 1128 902 1145 848 1159 c 1
 777 823 l 1
 939 764 1109 685 1109 480 c 0
 1109 451 1105 419 1098 385 c 0
 1052 170 866 0 596 -26 c 1
 569 -155 l 1
 401 -155 l 1
 428 -26 l 1
 211 -8 111 186 93 344 c 1
 357 426 l 1
 377 348 403 238 482 225 c 1
 570 639 l 1
 395 680 256 770 256 956 c 0
 256 985 259 1017 266 1051 c 0
 309 1255 527 1393 731 1405 c 1
 759 1537 l 1
622 885 m 1
 682 1167 l 1
 590 1157 548 1077 541 1044 c 0
 537 1026 535 1010 535 996 c 0
 535 938 566 909 622 885 c 1
725 578 m 1
 648 217 l 1
 756 240 806 309 823 387 c 0
 825 398 828 413 828 429 c 0
 828 476 810 539 725 578 c 1
EndSplineSet
EndChar

StartChar: percent
Encoding: 37 37 5
Width: 1435
Flags: W
HStem: 63 207<1020.6 1166.36> 479 205<1049.47 1187.92> 768 207<538.888 685.495> 1184 205<568.509 706.575>
VStem: 316 218<981.028 1148.04> 714 224<1002.73 1177.07> 796 220<276.09 443.922> 1196 221<298.456 472.612>
LayerCount: 2
Back
SplineSet
880.64 372.736 m 0
 880.64 286.72 935.937 219.136 1021.95 219.136 c 0
 1101.82 219.136 1169.41 282.624 1169.41 372.736 c 0
 1169.41 452.608 1105.92 522.24 1021.95 522.24 c 0
 944.128 522.24 880.64 452.608 880.64 372.736 c 0
751.616 372.736 m 0
 751.616 522.24 872.448 643.072 1024 643.072 c 0
 1175.55 643.072 1298.43 522.24 1298.43 372.736 c 0
 1298.43 223.232 1175.55 104.448 1024 104.448 c 0
 872.448 104.448 751.616 223.232 751.616 372.736 c 0
221.184 1077.25 m 0
 221.184 991.232 278.528 923.648 364.544 923.648 c 0
 444.416 923.648 512 987.136 512 1077.25 c 0
 512 1157.12 448.512 1226.75 364.544 1226.75 c 0
 286.72 1226.75 221.184 1157.12 221.184 1077.25 c 0
94.208 1077.25 m 0
 94.208 1226.75 215.04 1347.58 366.592 1347.58 c 0
 518.144 1347.58 641.024 1226.75 641.024 1077.25 c 0
 641.024 927.744 518.144 808.96 366.592 808.96 c 0
 215.04 808.96 94.208 927.744 94.208 1077.25 c 0
413.696 137.216 m 1
 264.192 137.216 l 1
 985.088 1318.91 l 0
 1128.45 1318.91 l 1
 413.696 137.216 l 1
EndSplineSet
Fore
SplineSet
1019 371 m 0xfb
 1017 361 1016 352 1016 343 c 0
 1016 297 1044 270 1085 270 c 0
 1134 270 1179 305 1193 371 c 0
 1195 380 1196 389 1196 398 c 0
 1196 444 1170 479 1128 479 c 0
 1081 479 1031 429 1019 371 c 0xfb
804 370 m 0
 841 544 1004 684 1173 684 c 0
 1318 684 1417 579 1417 438 c 0
 1417 416 1415 394 1410 371 c 0
 1374 200 1208 63 1041 63 c 0
 895 63 796 165 796 304 c 0
 796 325 799 347 804 370 c 0
537 1075 m 0
 535 1065 534 1056 534 1047 c 0
 534 1001 563 975 604 975 c 0
 653 975 697 1009 711 1075 c 0
 713 1084 714 1093 714 1102 c 0xfd
 714 1148 689 1184 647 1184 c 0
 601 1184 549 1133 537 1075 c 0
323 1076 m 0
 360 1249 524 1389 692 1389 c 0
 838 1389 938 1283 938 1142 c 0
 938 1120 935 1098 930 1075 c 0
 894 904 729 768 560 768 c 0
 414 768 316 870 316 1009 c 0
 316 1030 318 1053 323 1076 c 0
510 119 m 1
 300 119 l 1
 1230 1337 l 0
 1431 1337 l 1
 510 119 l 1
EndSplineSet
EndChar

StartChar: ampersand
Encoding: 38 38 6
Width: 1284
Flags: W
HStem: -53 241<464.644 755.591> 358 217<720 848 1091.89 1261> 707 239<639.315 877> 1278 242<687.275 919.176>
VStem: 133 272<254.793 509.398> 336 272<976.693 1197.66>
LayerCount: 2
Back
SplineSet
751.616 1228.8 m 17xf4
 729.088 1292.29 626.688 1351.68 540.672 1351.68 c 1
 432.128 1351.68 319.488 1282.05 319.488 1134.59 c 1xf4
 319.488 978.944 425.984 897.024 557.056 897.024 c 1
 727.04 897.024 l 1
 727.04 755.712 l 1
 561.152 755.712 l 2
 374.784 755.712 237.568 630.784 237.568 430.08 c 0
 237.568 247.808 385.024 110.592 550.912 110.592 c 1
 720.896 110.592 833.536 256 833.536 407.552 c 1xfa
 618.496 407.552 l 1
 618.496 546.816 l 1
 1140.74 546.816 l 1
 1140.74 405.504 l 1xf1
 983.04 405.504 l 1
 983.04 231.424 862.208 -30.7197 550.912 -30.7197 c 1
 315.392 -30.7197 79.8721 126.976 79.8721 415.744 c 0xfa
 79.8721 696.32 245.76 802.816 354.304 827.392 c 1
 266.24 856.064 161.792 958.464 161.792 1134.59 c 0
 161.792 1339.39 323.584 1492.99 542.72 1492.99 c 0
 714.752 1492.99 825.344 1409.02 876.544 1304.58 c 9
 751.616 1228.8 l 17xf4
EndSplineSet
Fore
SplineSet
959 1167 m 17xf4
 946 1214 899 1278 813 1278 c 1
 731 1278 636 1227 613 1118 c 1
 610 1103 608 1088 608 1075 c 0xf4
 608 990 671 946 758 946 c 1
 928 946 l 1
 877 707 l 1
 711 707 l 2
 568 707 444 585 411 428 c 0
 407 409 405 391 405 373 c 0
 405 268 474 188 591 188 c 1
 749 188 830 272 848 358 c 1
 674 358 l 1
 720 575 l 1
 1306 575 l 1
 1261 360 l 1
 1103 360 l 1
 1068 197 874 -53 540 -53 c 1
 307 -53 133 92 133 303 c 0xf8
 133 331 136 361 142 391 c 0
 208 701 394 795 474 828 c 1
 420 852 336 926 336 1052 c 0
 336 1073 339 1095 344 1118 c 0
 396 1364 626 1520 866 1520 c 0
 1061 1520 1164 1410 1193 1274 c 9
 959 1167 l 17xf4
EndSplineSet
EndChar

StartChar: quotesingle
Encoding: 39 39 7
Width: 464
Flags: W
HStem: 1044 498<459.927 570.324>
VStem: 382 292
LayerCount: 2
Back
SplineSet
118.784 1050.62 m 1
 118.784 1548.29 l 1
 268.288 1548.29 l 1
 268.288 1050.62 l 1
 118.784 1050.62 l 1
EndSplineSet
Fore
SplineSet
382 1092 m 1
 441 1466 l 1
 452 1516 534 1542 570 1542 c 0
 571 1542 572 1542 574 1542 c 0
 606 1542 674 1524 674 1486 c 0
 675 1480 673 1473 672 1466 c 1
 572 1092 l 1
 563 1061 490 1044 466 1044 c 0
 443 1044 380 1056 381 1083 c 0
 381 1086 381 1089 382 1092 c 1
EndSplineSet
EndChar

StartChar: parenleft
Encoding: 40 40 8
Width: 653
Flags: W
VStem: 147 269<122.393 752.874>
LayerCount: 2
Back
SplineSet
268.288 -83.9678 m 1
 104.448 167.936 30.7197 458.752 30.7197 739.328 c 0
 30.7197 997.376 110.592 1314.82 268.288 1562.62 c 1
 446.464 1562.62 l 1
 262.144 1294.34 182.272 997.376 182.272 729.088 c 0
 182.272 466.944 272.384 169.984 446.464 -83.9678 c 1
 268.288 -83.9678 l 1
EndSplineSet
Fore
SplineSet
271 -84 m 1
 181 71 147 230 147 395 c 0
 147 507 163 622 188 739 c 0
 245 1006 368 1307 621 1563 c 1
 885 1563 l 1
 644 1294 501 997 444 729 c 0
 426 642 416 552 416 461 c 0
 416 276 455 86 535 -84 c 1
 271 -84 l 1
EndSplineSet
EndChar

StartChar: parenright
Encoding: 41 41 9
Width: 643
Flags: W
VStem: 525 267<688.464 1345.66>
LayerCount: 2
Back
SplineSet
256 -96.2559 m 1
 79.8721 -96.2559 l 1
 251.904 155.648 344.064 464.896 344.064 727.04 c 0
 344.064 972.8 253.952 1294.34 79.8721 1550.34 c 1
 256 1550.34 l 1
 413.696 1302.53 495.616 985.088 495.616 727.04 c 0
 495.616 452.608 417.792 151.552 256 -96.2559 c 1
EndSplineSet
Fore
SplineSet
320 -96 m 1
 60 -96 l 1
 286 156 443 465 499 727 c 0
 516 809 525 899 525 993 c 0
 525 1179 489 1379 409 1549 c 1
 670 1549 l 1
 758 1393 792 1220 792 1049 c 0
 792 940 779 831 757 727 c 0
 697 443 579 160 320 -96 c 1
EndSplineSet
EndChar

StartChar: asterisk
Encoding: 42 42 10
Width: 1172
Flags: W
HStem: 604 231<271.163 537 938 1205.36>
LayerCount: 2
Back
SplineSet
620.813 645.394 m 5
 826 332 l 5
 851 288.699 797.315 227.682 766.139 209.682 c 4
 765.272 209.182 764.406 208.682 762.675 207.682 c 4
 734.962 191.682 663.608 171.271 637.68 200.18 c 4
 632.947 204.376 629.447 210.438 625.947 216.5 c 5
 456.269 550.394 l 5
 442.5 578.24 494.622 627.963 515.406 639.963 c 4
 535.325 651.463 597.617 673.57 615.447 652.688 c 4
 617.813 650.59 619.313 647.991 620.813 645.394 c 5
572.675 551.712 m 5
 403.861 217.318 l 5
 378.861 174.017 299.177 190 268 208 c 4
 267.134 208.5 266.268 209 264.536 210 c 4
 236.823 226 183.47 277.589 195.541 314.498 c 4
 196.809 320.693 200.309 326.756 203.809 332.818 c 5
 408.13 646.712 l 5
 425.361 672.559 494.483 652.281 515.268 640.281 c 4
 535.187 628.781 585.479 585.889 576.309 560.006 c 4
 575.675 556.908 574.175 554.31 572.675 551.712 c 5
411.455 635 m 5
 206.269 948.394 l 5
 181.269 991.695 234.953 1052.71 266.13 1070.71 c 4
 266.996 1071.21 267.862 1071.71 269.594 1072.71 c 4
 297.307 1088.71 368.66 1109.12 394.589 1080.21 c 4
 399.321 1076.02 402.821 1069.96 406.321 1063.89 c 5
 576 730 l 5
 589.769 702.153 537.646 652.431 516.862 640.431 c 4
 496.943 628.931 434.651 606.823 416.821 627.706 c 4
 414.455 629.804 412.955 632.402 411.455 635 c 5
459.455 729 m 5
 628.269 1063.39 l 5
 653.269 1106.7 732.953 1090.71 764.13 1072.71 c 4
 764.996 1072.21 765.862 1071.71 767.594 1070.71 c 4
 795.307 1054.71 848.66 1003.12 836.589 966.214 c 4
 835.321 960.019 831.821 953.956 828.321 947.894 c 5
 624 634 l 5
 606.769 608.153 537.646 628.431 516.862 640.431 c 4
 496.943 651.931 446.651 694.823 455.821 720.706 c 4
 456.455 723.804 457.955 726.402 459.455 729 c 5
564 734 m 5
 938 755 l 5
 988 755 1014 678 1014 642 c 4
 1014 641 1014 640 1014 638 c 4
 1014 606 996 534 958 526 c 4
 952 524 945 524 938 524 c 5
 564 544 l 5
 533 546 516 616 516 640 c 4
 516 663 528 728 555 733 c 4
 558 734 561 734 564 734 c 5
468 545 m 5
 94 524 l 5
 44 524 18 601 18 637 c 4
 18 638 18 639 18 641 c 4
 18 673 36 745 74 753 c 4
 80 755 87 755 94 755 c 5
 468 735 l 5
 499 733 516 663 516 639 c 4
 516 616 504 551 477 546 c 4
 474 545 471 545 468 545 c 5
EndSplineSet
Fore
SplineSet
938 821 m 1
 1184 835 l 2
 1224 835 1239 785 1239 747 c 0
 1239 738 1237 729 1236 722 c 0
 1236 721 1236 720 1236 718 c 0
 1229 686 1196 614 1156 606 c 0
 1150 604 1142 604 1135 604 c 2
 892 617 l 1
 983 412 l 2
 985 404 985 396 983 387 c 0
 975 348 926 304 897 290 c 0
 896 289 894 289 893 288 c 0
 873 278 836 266 806 266 c 0
 789 266 774 270 767 280 c 0
 763 284 760 290 758 296 c 2
 693 516 l 1
 536 297 l 2
 520 277 494 270 469 270 c 0
 440 270 412 279 398 288 c 0
 397 288 397 289 396 290 c 0
 376 303 343 340 343 373 c 0
 343 376 343 380 344 383 c 0
 345 387 346 391 349 394 c 0
 351 401 356 407 361 413 c 2
 537 618 l 1
 291 604 l 2
 251 604 237 654 237 692 c 0
 237 701 238 710 239 717 c 0
 239 718 240 719 240 721 c 0
 247 753 280 825 320 833 c 0
 326 835 333 835 340 835 c 2
 586 822 l 1
 494 1028 l 2
 492 1036 491 1045 493 1053 c 0
 501 1092 552 1136 580 1151 c 0
 581 1151 582 1152 584 1153 c 0
 603 1163 641 1175 671 1175 c 0
 689 1175 703 1171 711 1160 c 0
 714 1156 716 1150 718 1144 c 2
 784 925 l 1
 940 1143 l 2
 956 1164 982 1171 1008 1171 c 0
 1036 1171 1064 1162 1078 1153 c 0
 1079 1152 1080 1152 1082 1151 c 0
 1102 1137 1133 1101 1133 1068 c 0
 1133 1065 1133 1061 1132 1058 c 0
 1131 1054 1130 1050 1128 1046 c 0
 1125 1040 1121 1034 1116 1028 c 2
 938 821 l 1
EndSplineSet
EndChar

StartChar: plus
Encoding: 43 43 11
Width: 972
Flags: W
HStem: 520 240<230 445 736 972>
LayerCount: 2
Back
SplineSet
67.584 710.656 m 1
 374.784 710.656 l 1
 374.784 1021.95 l 1
 516.096 1021.95 l 1
 516.096 710.656 l 1
 823.296 710.656 l 1
 823.296 569.344 l 1
 516.096 569.344 l 1
 516.096 258.048 l 1
 374.784 258.048 l 1
 374.784 569.344 l 1
 67.584 569.344 l 1
 67.584 710.656 l 1
EndSplineSet
Fore
SplineSet
230 760 m 1
 496 760 l 1
 560 1062 l 1
 800 1062 l 1
 736 760 l 1
 1023 760 l 1
 972 520 l 1
 684 520 l 1
 623 233 l 1
 384 233 l 1
 445 520 l 1
 179 520 l 1
 230 760 l 1
EndSplineSet
EndChar

StartChar: comma
Encoding: 44 44 12
Width: 444
Flags: W
HStem: -205 503
LayerCount: 2
Back
SplineSet
308.224 94.208 m 1
 308.224 -63.4883 206.848 -186.368 184.32 -221.184 c 1
 129.024 -190.464 l 1
 149.504 -159.744 200.704 -83.9678 200.704 -12.2881 c 0
 141.352 -12.2881 93.1836 34.8555 93.1836 94.208 c 0
 93.1836 153.561 141.352 201.728 200.704 201.728 c 0
 260.055 201.728 308.224 153.561 308.224 94.208 c 1
EndSplineSet
Fore
SplineSet
411 137 m 1
 376 -27 213 -169 159 -205 c 1
 95 -162 l 1
 108 -146 158 -74 165 -40 c 0
 166 -36 166 -32 166 -29 c 1
 122 -18 80 20 80 91 c 0
 80 105 81 121 85 137 c 1
 102 215 192 298 278 298 c 1
 376 298 414 232 414 169 c 0
 414 158 413 147 411 137 c 1
EndSplineSet
EndChar

StartChar: hyphen
Encoding: 45 45 13
Width: 960
Flags: W
HStem: 514 240<258 979>
LayerCount: 2
Back
SplineSet
98.3037 704.512 m 1
 776.192 704.512 l 1
 776.192 563.2 l 1
 98.3037 563.2 l 1
 98.3037 704.512 l 1
EndSplineSet
Fore
SplineSet
258 754 m 1
 1030 754 l 1
 979 514 l 1
 207 514 l 1
 258 754 l 1
EndSplineSet
EndChar

StartChar: period
Encoding: 46 46 14
Width: 451
Flags: W
HStem: -33 328<171.75 340.647>
VStem: 88 336<49.6232 212.821>
LayerCount: 2
Back
SplineSet
93.1836 94.208 m 0
 93.1836 153.561 141.352 201.728 200.704 201.728 c 0
 260.055 201.728 308.224 153.561 308.224 94.208 c 0
 308.224 34.8555 260.055 -13.3115 200.704 -13.3115 c 0
 141.352 -13.3115 93.1836 34.8555 93.1836 94.208 c 0
EndSplineSet
Fore
SplineSet
92 131 m 0
 111 222 201 295 291 295 c 0
 370 295 424 240 424 166 c 0
 424 155 423 143 420 131 c 0
 401 41 312 -33 221 -33 c 0
 143 -33 88 23 88 97 c 0
 88 108 90 119 92 131 c 0
EndSplineSet
EndChar

StartChar: slash
Encoding: 47 47 15
Width: 847
Flags: W
HStem: 0 21G<-42 257.487>
LayerCount: 2
Back
SplineSet
124.928 0 m 1
 -32.7676 0 l 1
 684.032 1544.19 l 0
 841.729 1544.19 l 1
 124.928 0 l 1
EndSplineSet
Fore
SplineSet
245 0 m 1
 -42 0 l 1
 941 1544 l 0
 1209 1544 l 1
 245 0 l 1
EndSplineSet
EndChar

StartChar: zero
Encoding: 48 48 16
Width: 1177
Flags: W
HStem: -28 242<512.469 764.969> 1248 242<706.808 983.411>
VStem: 207 257<266.829 755.964> 1025 258<756.035 1202.97>
LayerCount: 2
Back
SplineSet
90.1123 727.04 m 1
 90.1123 1136.64 268.288 1492.99 571.392 1492.99 c 1
 874.496 1492.99 1038.34 1136.64 1038.34 727.04 c 1
 1038.34 319.488 866.304 -30.7197 563.2 -30.7197 c 1
 260.096 -30.7197 90.1123 319.488 90.1123 727.04 c 1
247.808 727.04 m 1
 247.808 448.512 342.016 110.592 563.2 110.592 c 1
 786.432 110.592 880.64 448.512 880.64 727.04 c 1
 880.64 1007.62 794.624 1351.68 571.392 1351.68 c 1
 350.208 1351.68 247.808 1007.62 247.808 727.04 c 1
EndSplineSet
Fore
SplineSet
241 756 m 1
 339 1216 587 1490 907 1490 c 1
 1155 1490 1283 1326 1283 1038 c 0
 1283 954 1272 860 1250 756 c 1
 1152 297 899 -28 579 -28 c 0
 578 -28 l 1
 332 -28 207 164 207 462 c 0
 207 551 218 650 241 756 c 1
509 756 m 1
 481 625 464 516 464 431 c 0
 464 289 510 214 629 214 c 1
 819 214 908 406 982 756 c 1
 1009 883 1025 983 1025 1058 c 0
 1025 1190 976 1248 855 1248 c 1
 665 1248 583 1106 509 756 c 1
EndSplineSet
EndChar

StartChar: one
Encoding: 49 49 17
Width: 1177
Flags: W
HStem: 0 21G<502 774.245> 1436 20G<787.636 1079>
VStem: 485 594
LayerCount: 2
Back
SplineSet
571.392 1275.9 m 1
 362.496 1099.78 l 1
 272.384 1196.03 l 1
 573.44 1456.13 l 1
 729.088 1456.13 l 1
 729.088 0 l 1
 571.392 0 l 1
 571.392 1275.9 l 1
EndSplineSet
Fore
SplineSet
754 1184 m 1
 758 1206 l 1
 485 1206 l 1
 524 1236 l 1
 814 1456 l 1
 1079 1456 l 1
 770 0 l 1
 502 0 l 1
 754 1184 l 1
EndSplineSet
EndChar

StartChar: two
Encoding: 50 50 18
Width: 1177
Flags: W
HStem: 0 240<453 1061> 1076 21G<524.183 616.5> 1252 240<691.015 950.911>
VStem: 987 270<951.285 1215.28>
LayerCount: 2
Back
SplineSet
725 1176 m 5
 942 1322 l 5
240 1112 m 21
 274 1230 408 1368 570 1368 c 5
 788 1368 893.694 1219.53 893 1040 c 28
 892.165 823.919 712 704 567 592 c 4
 422 480 243 336 243 146 c 5
188 398 m 5
 412 265 l 5
719 896 m 5
 931 751 l 5
485 686 m 5
 642 488 l 5
262.144 1110.02 m 9
 122.878 1165.31 l 17
 174.08 1347.58 366.592 1495.04 569.344 1495.04 c 0
 780.288 1495.04 989.182 1359.87 989.182 1052.67 c 0
 989.182 772.096 688.697 610.386 591.872 540.672 c 0
 489.472 466.944 272.384 274.432 272.384 141.312 c 1
 1036.29 141.312 l 17
 1036.29 0 l 1
 88.0645 0 l 1
 88.0645 325.632 333.824 528.384 544.771 675.84 c 0
 652.012 750.805 835.582 849.92 835.582 1052.67 c 0
 835.582 1249.28 702.464 1353.73 569.344 1353.73 c 0
 442.368 1353.73 313.344 1271.81 262.144 1110.02 c 9
EndSplineSet
Fore
SplineSet
587 1076 m 9
 364 1147 l 17
 445 1344 685 1492 884 1492 c 1
 1057 1492 1257 1420 1257 1168 c 0
 1257 1130 1252 1088 1242 1041 c 1
 1208 880 1148 785 999 663 c 0
 820 516 538 386 453 240 c 1
 1112 240 l 17
 1061 0 l 1
 92 0 l 1
 137 210 201 359 412 534 c 0
 640 722 932 813 980 1041 c 0
 985 1064 987 1085 987 1104 c 0
 987 1203 926 1252 833 1252 c 1
 722 1252 646 1194 587 1076 c 9
EndSplineSet
EndChar

StartChar: three
Encoding: 51 51 19
Width: 1177
Flags: W
HStem: -28 242<512.313 791.814> 651 213<617 861.204> 1253 237<710.225 951.074>
VStem: 927 275<339.285 586.345> 990 266<1001.26 1215.64>
LayerCount: 2
Back
SplineSet
763 274 m 5
 920 76 l 5
805 530 m 5
 1022 676 l 5
741 1162 m 5
 958 1308 l 5
240 1112 m 21
 274 1230 408 1368 570 1368 c 5
 777.371 1368 889.966 1223.49 893.344 1056 c 4
 897.359 856.812 745.042 760 542 760 c 5
 762 760 964 690 964 428 c 5
 964 186 772 98 598 98 c 5
 450 98 318 180 264 282 c 5
122.88 251.904 m 9xd0
 278.528 299.008 l 17
 329.728 188.416 448.512 110.592 557.056 110.592 c 1
 720.896 110.592 868.352 202.752 868.352 403.456 c 1xd0
 868.352 602.112 718.848 692.224 561.152 692.224 c 0
 483.328 692.224 l 1
 483.328 825.344 l 1
 561.152 825.344 l 0
 706.56 825.344 833.536 909.312 833.536 1085.44 c 1
 833.536 1241.09 743.424 1357.82 559.104 1357.82 c 1
 552.96 1357.82 l 0
 448.512 1357.82 342.016 1302.53 299.008 1200.13 c 9
 161.792 1263.62 l 17
 231.424 1400.83 393.216 1497.09 559.104 1497.09 c 1
 811.008 1497.09 991.232 1327.1 991.232 1085.44 c 1xe0
 991.232 890.88 860.16 792.576 796.672 753.664 c 1
 884.736 727.04 1026.05 614.4 1026.05 403.456 c 1
 1026.05 129.024 817.152 -30.7197 557.056 -30.7197 c 1
 401.408 -30.7197 200.704 71.6797 122.88 251.904 c 9xd0
EndSplineSet
Fore
SplineSet
162 323 m 9xf0
 435 393 l 17
 460 260 555 214 643 214 c 1
 781 214 896 308 922 429 c 1
 925 443 927 458 927 471 c 0xf0
 927 574 842 651 736 651 c 0
 571 651 l 1
 617 864 l 1
 759 864 l 0
 862 864 964 962 984 1054 c 0
 988 1074 990 1091 990 1108 c 0
 990 1205 923 1253 835 1253 c 0
 750 1253 678 1195 645 1142 c 9
 409 1208 l 17
 516 1389 676 1490 885 1490 c 1
 1084 1490 1256 1406 1256 1195 c 0xe8
 1256 1165 1253 1132 1245 1096 c 1
 1217 964 1134 878 1041 820 c 1
 1119 758 1202 675 1202 527 c 0
 1202 497 1199 464 1191 429 c 1
 1139 184 882 -28 592 -28 c 1
 375 -28 200 72 162 323 c 9xf0
EndSplineSet
EndChar

StartChar: four
Encoding: 52 52 20
Width: 1177
Flags: W
HStem: 0 21G<675 948.253> 348 240<473 749 1068 1156> 1436 20G<947.252 1253>
LayerCount: 2
Back
SplineSet
854.016 1445.25 m 1
 854.016 536.576 l 9
 1042.43 536.576 l 17
 1042.43 397.312 l 1
 854.016 397.312 l 1
 854.016 0 l 1
 696.32 0 l 1
 696.32 397.312 l 1
 77.8242 397.312 l 9
 684.032 1456.13 l 1
 696.32 1456.13 l 1
 854.016 1456.13 l 1
 860.16 1456.13 l 1
 854.016 1445.25 l 1
700.416 1229.67 m 1
 313.344 538.624 l 1
 700.416 538.624 l 1
 700.416 1229.67 l 1
EndSplineSet
Fore
SplineSet
1068 585 m 9
 1206 585 l 17
 1156 348 l 1
 1018 348 l 1
 944 0 l 1
 675 0 l 1
 749 348 l 1
 164 348 l 1
 207 552 l 1
 964 1456 l 1
 1253 1456 l 1
 1068 585 l 9
918 1105 m 1
 473 588 l 1
 808 588 l 1
 918 1105 l 1
EndSplineSet
EndChar

StartChar: five
Encoding: 53 53 21
Width: 1177
Flags: W
HStem: -26 242<520.63 800.409> 719 229<649.078 880.925> 1217 239<765 1234>
VStem: 947 269<368.016 646.306>
LayerCount: 2
Back
SplineSet
763 274 m 1
 920 76 l 1
812 590 m 1
 1029 736 l 1
306 752 m 0
 354 782 472 823.669 598 823.669 c 1
 776 823.669 973 678 973 461 c 1
 973 240 772 98 598 98 c 1
 450 98 328 180 274 282 c 1
221 461 m 0
 221 660.824 394.968 823 597 823 c 0
 799.032 823 973 660.824 973 461 c 0
 973 261.176 799.032 99 597 99 c 0
 394.968 99 221 261.176 221 461 c 0
552.96 765.952 m 1
 425.984 765.952 272.384 712.704 182.272 671.744 c 9
 282.624 1456.13 l 1
 954.368 1456.13 l 1
 954.368 1314.82 l 1
 409.6 1314.82 l 1
 354.304 868.352 l 1
 409.6 897.024 475.136 901.12 559.104 901.12 c 1
 823.296 901.12 1038.34 706.561 1038.34 417.792 c 1
 1038.34 208.896 866.304 -30.7197 587.776 -30.7197 c 1
 356.352 -30.7197 169.984 133.12 114.688 329.729 c 9
 270.336 358.4 l 17
 305.152 256 391.168 110.592 587.776 110.592 c 1
 763.904 110.592 882.688 243.712 882.688 419.84 c 1
 882.688 614.4 724.992 765.952 552.96 765.952 c 1
EndSplineSet
Fore
SplineSet
751 719 m 1
 657 719 602 686 571 660 c 1
 333 750 l 1
 601 1456 l 1
 1284 1456 l 1
 1234 1217 l 1
 765 1217 l 1
 648 926 l 1
 677 941 752 948 800 948 c 1
 1048 948 1216 804 1216 574 c 0
 1216 538 1212 500 1204 461 c 1
 1141 166 878 -26 592 -26 c 1
 278 -26 172 216 172 366 c 9
 447 412 l 17
 445 352 494 216 644 216 c 1
 794 216 911 324 940 461 c 1
 944 482 947 502 947 522 c 0
 947 632 878 719 751 719 c 1
EndSplineSet
EndChar

StartChar: six
Encoding: 54 54 22
Width: 1177
Flags: W
HStem: -28 236<512.119 763.902> 660 242<660 839.589> 1436 20G<841.489 1143>
VStem: 191 272<258.156 525.628> 895 276<342.039 604.478>
LayerCount: 2
Back
SplineSet
387 429 m 5
 387 553 463 660 591 660 c 5
 719 660 788 547 788 433 c 5
 788 302 704 208 589 208 c 5
 457 208 387 321 387 429 c 5
677 886 m 5
 674 889 589 902 585 902 c 4
 300 902 118 703 118 429 c 5
 118 204 303 -28 591 -28 c 5
 871 -28 1056 195 1056 431 c 5
 1056 664 974 820 924 924 c 5
EndSplineSet
Fore
SplineSet
889 429 m 1
 893 448 895 465 895 483 c 0
 895 582 833 660 724 660 c 1
 596 660 493 547 469 433 c 1
 465 414 463 396 463 379 c 0
 463 277 531 208 630 208 c 1
 762 208 866 321 889 429 c 1
727 897 m 1
 731 900 778 902 782 902 c 0
 1026 902 1171 756 1171 542 c 0
 1171 506 1166 468 1158 429 c 1
 1110 204 866 -28 578 -28 c 1
 334 -28 191 141 191 340 c 0
 191 370 194 400 201 431 c 1
 251 664 398 820 470 924 c 1
 856 1456 l 1
 1143 1456 l 1
 727 897 l 1
EndSplineSet
EndChar

StartChar: seven
Encoding: 55 55 23
Width: 1177
Flags: W
HStem: 0 21G<98 436.354> 1202 254<409 958>
LayerCount: 2
Back
SplineSet
1069.06 1456.13 m 1
 514.048 0 l 1
 331.776 0 l 1
 847.872 1306.62 l 1
 100.352 1306.62 l 1
 100.352 1456.13 l 1
 1069.06 1456.13 l 1
EndSplineSet
Fore
SplineSet
1467 1456 m 1
 422 0 l 1
 98 0 l 1
 958 1202 l 1
 355 1202 l 1
 409 1456 l 1
 1467 1456 l 1
EndSplineSet
EndChar

StartChar: eight
Encoding: 56 56 24
Width: 1177
Flags: W
HStem: -28 221<488.782 791.58> 676 247<654.198 866> 1270 219<708.238 990.587>
VStem: 148 274<257.148 524.344> 351 269<954.277 1180.67> 941 272<337.358 605.473> 1023 274<1005.33 1235.98>
LayerCount: 2
Back
SplineSet
571.392 110.592 m 0xf2
 753.664 110.592 903.168 235.52 903.168 411.648 c 1
 903.168 589.824 745.472 722.944 575.488 722.944 c 1
 395.264 722.944 251.904 587.776 251.904 411.648 c 0
 251.904 229.376 399.36 110.592 571.392 110.592 c 0xf2
317.44 1107.97 m 1xec
 317.44 956.416 430.08 856.064 575.488 856.064 c 1
 718.848 856.064 831.488 952.32 831.488 1107.97 c 1
 831.488 1239.04 745.472 1355.78 573.44 1355.78 c 1
 407.552 1355.78 317.44 1234.94 317.44 1107.97 c 1xec
573.44 1497.09 m 1
 825.344 1497.09 989.184 1333.25 989.184 1107.97 c 1xec
 989.184 913.408 870.4 833.536 817.152 786.432 c 1
 894.976 727.04 1060.86 612.352 1060.86 411.648 c 1
 1060.86 147.456 833.536 -30.7197 571.392 -30.7197 c 1
 309.248 -30.7197 94.208 151.552 94.208 411.648 c 1xf2
 94.208 604.16 245.76 727.04 329.728 786.432 c 1
 266.24 843.776 159.744 917.504 159.744 1107.97 c 1
 159.744 1327.1 323.584 1497.09 573.44 1497.09 c 1
EndSplineSet
Fore
SplineSet
631 193 m 0xf4
 783 193 906 293 936 433 c 1
 940 450 941 466 941 482 c 0
 941 598 849 676 734 676 c 1
 570 676 458 573 428 433 c 0
 424 413 422 395 422 377 c 0
 422 267 500 193 631 193 c 0xf4
626 1095 m 1
 622 1078 620 1062 620 1048 c 0
 620 962 683 923 786 923 c 1
 898 923 993 973 1019 1095 c 1
 1022 1110 1023 1124 1023 1138 c 0xea
 1023 1215 973 1270 858 1270 c 1
 721 1270 646 1190 626 1095 c 1
904 1489 m 1
 1146 1489 1297 1362 1297 1176 c 0xea
 1297 1150 1294 1123 1288 1095 c 1
 1251 919 1102 840 1037 802 c 1
 1122 778 1213 662 1213 513 c 0
 1213 487 1210 460 1204 433 c 1
 1139 128 871 -28 580 -28 c 1
 302 -28 148 112 148 325 c 0xf4
 148 359 152 395 160 433 c 1
 198 614 378 778 483 802 c 1
 438 831 351 904 351 1031 c 0
 351 1051 353 1072 358 1095 c 1
 408 1332 623 1489 904 1489 c 1
EndSplineSet
EndChar

StartChar: nine
Encoding: 57 57 25
Width: 1177
Flags: W
HStem: 0 21G<340 641.511> 554 242<643.911 823> 1248 236<719.098 970.894>
VStem: 313 275<851.522 1113.96> 1020 273<930.372 1197.84>
LayerCount: 2
Back
SplineSet
282.624 1052.67 m 1
 282.624 890.88 409.6 751.616 587.776 751.616 c 1
 765.952 751.616 882.688 899.072 882.688 1048.58 c 1
 882.688 1218.56 745.472 1341.44 585.729 1341.44 c 1
 401.408 1341.44 282.624 1193.98 282.624 1052.67 c 1
724.992 632.832 m 1
 679.936 614.4 647.168 602.112 587.776 602.112 c 0
 339.968 602.112 133.12 798.72 133.12 1052.67 c 1
 133.12 1259.52 311.296 1490.94 589.824 1490.94 c 1
 856.064 1490.94 1032.19 1267.71 1032.19 1050.62 c 1
 1032.19 845.824 911.36 675.84 864.256 589.824 c 1
 509.952 -55.2959 l 9
 382.976 20.4805 l 17
 724.992 632.832 l 1
EndSplineSet
Fore
SplineSet
594 1027 m 1
 590 1008 588 991 588 973 c 0
 588 874 650 796 759 796 c 1
 887 796 990 909 1014 1023 c 1
 1018 1042 1020 1060 1020 1077 c 0
 1020 1179 952 1248 853 1248 c 1
 721 1248 617 1135 594 1027 c 1
757 559 m 1
 753 556 706 554 702 554 c 0
 458 554 313 700 313 914 c 0
 313 950 317 988 325 1027 c 1
 373 1252 617 1484 905 1484 c 1
 1149 1484 1293 1315 1293 1116 c 0
 1293 1086 1290 1056 1283 1025 c 1
 1233 792 1085 636 1013 532 c 1
 627 0 l 1
 340 0 l 1
 757 559 l 1
EndSplineSet
EndChar

StartChar: colon
Encoding: 58 58 26
Width: 440
Flags: W
HStem: -33 328<171.75 340.647> 695 328<326.203 495.647>
VStem: 92 486
LayerCount: 2
Fore
SplineSet
92 131 m 0
 111 222 201 295 291 295 c 0
 370 295 424 240 424 166 c 0
 424 155 423 143 420 131 c 0
 401 41 312 -33 221 -33 c 0
 143 -33 88 23 88 97 c 0
 88 108 90 119 92 131 c 0
247 859 m 0
 266 950 355 1023 445 1023 c 0
 524 1023 578 968 578 894 c 0
 578 883 578 871 575 859 c 0
 556 769 467 695 376 695 c 0
 298 695 243 751 243 825 c 0
 243 836 245 847 247 859 c 0
EndSplineSet
EndChar

StartChar: semicolon
Encoding: 59 59 27
Width: 440
Flags: W
HStem: 696 328<326.75 495.647>
LayerCount: 2
Fore
SplineSet
247 860 m 0
 266 951 356 1024 446 1024 c 0
 525 1024 579 969 579 895 c 0
 579 884 578 872 575 860 c 0
 556 770 467 696 376 696 c 0
 298 696 243 752 243 826 c 0
 243 837 245 848 247 860 c 0
421 137 m 1
 386 -27 223 -169 169 -205 c 1
 105 -162 l 1
 118 -146 168 -74 175 -40 c 0
 176 -36 176 -32 176 -29 c 1
 132 -18 90 20 90 91 c 0
 90 105 91 121 95 137 c 1
 112 215 202 298 288 298 c 1
 386 298 424 232 424 169 c 0
 424 158 423 147 421 137 c 1
EndSplineSet
EndChar

StartChar: less
Encoding: 60 60 28
Width: 864
Flags: W
LayerCount: 2
Back
SplineSet
581.632 22.5283 m 1
 73.7275 634.88 l 1
 581.632 1234.94 l 1
 780.288 1234.94 l 1
 270.336 632.832 l 1
 780.288 22.5283 l 1
 581.632 22.5283 l 1
EndSplineSet
Fore
SplineSet
468 24 m 1
 180 636 l 1
 726 1237 l 1
 1058 1237 l 1
 511 633 l 1
 798 24 l 1
 468 24 l 1
EndSplineSet
EndChar

StartChar: equal
Encoding: 61 61 29
Width: 907
Flags: W
HStem: 309 240<172 922> 676 239<249 1000>
LayerCount: 2
Back
SplineSet
55.2959 499.712 m 1
 856.064 499.712 l 1
 856.064 358.4 l 1
 55.2959 358.4 l 1
 55.2959 499.712 l 1
55.2959 866.304 m 1
 856.064 866.304 l 1
 856.064 724.992 l 1
 55.2959 724.992 l 1
 55.2959 866.304 l 1
EndSplineSet
Fore
SplineSet
172 549 m 1
 973 549 l 1
 922 309 l 1
 121 309 l 1
 172 549 l 1
249 915 m 1
 1050 915 l 1
 1000 676 l 1
 199 676 l 1
 249 915 l 1
EndSplineSet
EndChar

StartChar: greater
Encoding: 62 62 30
Width: 864
Flags: W
LayerCount: 2
Back
SplineSet
280.576 20.4805 m 1
 81.9199 20.4805 l 1
 589.824 632.832 l 1
 81.9199 1234.94 l 1
 280.576 1234.94 l 1
 786.432 634.88 l 1
 280.576 20.4805 l 1
EndSplineSet
Fore
SplineSet
397 20 m 1
 59 20 l 1
 611 632 l 1
 318 1235 l 1
 657 1235 l 1
 942 636 l 1
 397 20 l 1
EndSplineSet
EndChar

StartChar: question
Encoding: 63 63 31
Width: 1034
Flags: W
HStem: -33 328<450.75 619.647> 1253 244<641.348 907.766>
VStem: 939 287<1004.33 1219.23>
LayerCount: 2
Back
SplineSet
264.745 1093.14 m 0
 264.745 1199.21 373.787 1289.56 508.14 1289.56 c 4
 642.494 1289.56 751.534 1199.21 751.534 1093.14 c 0
 751.534 987.072 642.494 900.987 508.14 900.987 c 0
 373.787 900.987 264.745 987.072 264.745 1093.14 c 0
51.2402 1093.14 m 0
 51.2402 1314.71 254.018 1494.53 503.869 1494.53 c 0
 753.72 1494.53 956.498 1314.71 956.498 1093.14 c 0
 956.498 871.573 753.72 691.753 503.869 691.753 c 0
 254.018 691.753 51.2402 871.573 51.2402 1093.14 c 0
EndSplineSet
Fore
SplineSet
371 131 m 0
 390 222 480 295 570 295 c 0
 649 295 703 240 703 166 c 0
 703 155 702 143 699 131 c 0
 680 41 591 -33 500 -33 c 0
 422 -33 367 23 367 97 c 0
 367 108 369 119 371 131 c 0
752 530 m 1
 724 399 l 1
 456 399 l 1
 497 594 l 0
 548 836 885 858 935 1094 c 1
 938 1107 939 1119 939 1130 c 0
 939 1220 854 1253 770 1253 c 1
 661 1253 573 1171 542 1069 c 1
 283 1110 l 1
 354 1327 556 1497 818 1497 c 1
 1036 1497 1226 1390 1226 1181 c 0
 1226 1155 1222 1127 1216 1098 c 1
 1137 727 792 717 752 530 c 1
EndSplineSet
EndChar

StartChar: at
Encoding: 64 64 32
Width: 1737
Flags: W
HStem: -33 166<691.157 1118.38> 346 203<883.564 1112.23> 373 219<1424.28 1553.14> 905 189<934.331 1172.23> 1323 172<928.988 1367.2>
VStem: 217 204<398.357 824.563> 619 223<590.234 812.518> 1207 217<649.217 867.662> 1627 211<678.087 1074.34>
LayerCount: 2
Back
SplineSet
1165.31 212.992 m 1xbf80
 1243.14 110.592 l 17
 1116.16 18.4316 962.56 -34.8164 794.624 -34.8164 c 0
 370.688 -34.8164 30.7197 307.2 30.7197 731.136 c 0
 30.7197 1153.02 370.688 1495.04 794.624 1495.04 c 0
 1216.51 1495.04 1558.53 1153.02 1558.53 731.136 c 0
 1558.53 555.008 1411.07 417.792 1273.86 417.792 c 0xbf80
 1200.13 417.792 1112.06 460.8 1058.82 518.145 c 1
 999.424 438.272 901.12 389.12 794.624 389.12 c 0xdf80
 606.208 389.12 452.608 542.72 452.608 731.136 c 0
 452.608 917.504 606.208 1071.1 794.624 1071.1 c 0
 983.04 1071.1 1118.21 909.312 1118.21 731.136 c 0
 1118.21 645.12 1185.79 546.816 1267.71 546.816 c 0
 1351.68 546.816 1429.5 626.688 1429.5 731.136 c 0
 1429.5 1071.1 1153.02 1368.06 794.624 1368.06 c 0
 436.224 1368.06 157.696 1071.1 157.696 727.04 c 0
 157.696 385.024 436.224 92.1602 794.624 92.1602 c 0
 921.6 92.1602 1069.06 145.408 1165.31 212.992 c 1xbf80
581.632 731.136 m 0
 581.632 606.208 679.936 516.096 794.624 516.096 c 0xdf80
 917.504 516.096 993.28 614.4 993.28 731.136 c 0
 993.28 841.729 897.024 946.176 794.624 946.176 c 0
 684.032 946.176 581.632 849.92 581.632 731.136 c 0
EndSplineSet
Fore
SplineSet
1279 260 m 1xbf80
 1360 113 l 17
 1210 21 1069 -33 868 -33 c 0
 482 -33 217 221 217 572 c 0
 217 623 222 676 234 731 c 0
 325 1161 751 1495 1193 1495 c 0
 1578 1495 1838 1249 1838 910 c 0
 1838 862 1833 812 1822 760 c 0
 1776 542 1587 373 1434 373 c 0xbf80
 1365 373 1290 412 1259 500 c 1
 1173 388 1061 346 949 346 c 0xdf80
 754 346 619 478 619 654 c 0
 619 679 621 705 627 731 c 0
 669 930 886 1094 1108 1094 c 0
 1304 1094 1424 966 1424 811 c 0
 1424 790 1422 768 1417 746 c 0
 1414 732 1412 717 1412 703 c 0
 1412 645 1436 592 1477 592 c 0
 1530 592 1595 665 1615 760 c 0
 1623 800 1627 839 1627 876 c 0
 1627 1130 1440 1323 1156 1323 c 0
 829 1323 504 1056 434 729 c 0
 425 687 421 645 421 605 c 0
 421 335 618 133 903 133 c 0
 1043 133 1196 199 1279 260 c 1xbf80
846 731 m 0
 843 717 842 705 842 692 c 0
 842 607 906 549 992 549 c 0xdf80
 1098 549 1180 639 1203 745 c 0
 1205 756 1207 768 1207 778 c 0
 1207 855 1144 905 1067 905 c 0
 972 905 869 841 846 731 c 0
EndSplineSet
EndChar

StartChar: m
Encoding: 109 109 33
Width: 1575
Flags: W
HStem: 0 21G<119 381.267 666 928.267 1212 1474.25> 868 234<647 981.5 1195 1483> 1053 20G<342.75 605>
VStem: 1352 280<552.972 852.368>
LayerCount: 2
Back
SplineSet
346 862 m 5
 390.825 954.286 506 1102 636 1102 c 4
 766 1102 924 1018 924 539 c 4
 924 0 l 5
 666 0 l 4
 666 539 l 4
 666 740 622 868 522 868 c 5
 422 868 378 740 378 539 c 4
 378 0 l 5
EndSplineSet
Fore
SplineSet
924 0 m 1xd0
 666 0 l 0
 781 539 l 0
 797 613 806 677 806 729 c 0
 806 817 778 868 705 868 c 1xd0
 589 868 535 740 492 539 c 0
 377 0 l 9
 119 0 l 1
 347 1073 l 1
 605 1073 l 1xb0
 571 915 l 17
 627 986 750 1102 880 1102 c 0
 1083 1102 1071 881 1075 862 c 1
 1140 954 1286 1102 1416 1102 c 0
 1550 1102 1632 1011 1632 835 c 0
 1632 786 1625 730 1612 668 c 0
 1470 0 l 1
 1212 0 l 0
 1327 539 l 0
 1343 613 1352 677 1352 729 c 0
 1352 817 1324 868 1252 868 c 1
 1138 868 1082 740 1039 539 c 0
 924 0 l 1xd0
EndSplineSet
EndChar

StartChar: n
Encoding: 110 110 34
Width: 1121
Flags: W
HStem: 0 21G<119 381.254 756 1018.25> 867 235<753.921 993.5> 1054 20G<342.754 605>
VStem: 893 278<530.461 843.055>
LayerCount: 2
Back
SplineSet
270.336 0 m 9
 118.784 0 l 1
 118.784 1073.15 l 1
 270.336 1073.15 l 1
 270.336 921.6 l 17
 339.968 999.424 417.792 1095.68 563.2 1095.68 c 0
 819.2 1095.68 905.216 880.64 905.216 622.592 c 0
 905.216 0 l 1
 753.664 0 l 0
 753.664 618.496 l 0
 753.664 790.528 684.032 958.464 573.44 958.464 c 1
 446.464 958.464 270.336 831.488 270.336 659.456 c 0
 270.336 0 l 9
EndSplineSet
Fore
SplineSet
377 0 m 9xd0
 119 0 l 1
 347 1074 l 1
 605 1074 l 1xb0
 571 912 l 17
 650 1016 792 1102 934 1102 c 0
 1053 1102 1171 998 1171 798 c 0
 1171 758 1166 715 1156 668 c 1
 1014 0 l 1
 756 0 l 0
 870 537 l 2
 886 611 893 669 893 714 c 0
 893 838 839 867 760 867 c 0
 652 867 549 810 491 536 c 2
 377 0 l 9xd0
EndSplineSet
EndChar

StartChar: o
Encoding: 111 111 35
Width: 1105
Flags: HMW
LayerCount: 2
Back
SplineSet
92.1602 536.576 m 0
 92.1602 851.968 241.664 1093.63 507.904 1093.63 c 0
 774.144 1093.63 923.648 851.968 923.648 536.576 c 0
 923.648 221.184 774.144 -28.6719 507.904 -28.6719 c 1
 241.664 -28.6719 92.1602 221.184 92.1602 536.576 c 0
245.76 536.576 m 0
 245.76 339.968 327.68 106.496 507.904 106.496 c 0
 700.416 106.496 770.048 339.968 770.048 536.576 c 0
 770.048 733.184 688.128 958.464 507.904 958.464 c 0
 327.68 958.464 245.76 733.184 245.76 536.576 c 0
EndSplineSet
Fore
SplineSet
458 537 m 0
 447 483 441 437 441 398 c 0
 441 250 518 206 610 206 c 0
 725 206 847 276 902 537 c 1
 913 591 919 636 919 674 c 0
 919 823 841 866 750 866 c 1
 634 866 513 798 458 537 c 0
206 537 m 0
 279 879 495 1100 799 1100 c 0
 1046 1100 1171 955 1171 718 c 0
 1171 662 1164 602 1150 537 c 0
 1077 195 864 -29 559 -29 c 1
 313 -29 185 114 185 354 c 0
 185 410 192 471 206 537 c 0
EndSplineSet
EndChar

StartChar: p
Encoding: 112 112 36
Width: 1132
Flags: W
HStem: -426 21G<28 290.254> -28 234<529.771 748.519> 866 234<749.45 1018> 1053 20G<342.744 605>
VStem: 932 268<455.571 811.238>
LayerCount: 2
Back
SplineSet
270.336 -425.984 m 17
 118.784 -425.984 l 1
 118.784 1073.15 l 1
 270.336 1073.15 l 1
 270.336 899.072 l 17
 327.68 995.328 405.504 1091.58 550.912 1091.58 c 0
 802.816 1091.58 923.648 823.296 923.648 540.672 c 0
 923.648 258.048 835.584 -28.6719 512 -28.6719 c 1
 348.16 -28.6719 270.336 139.264 270.336 139.264 c 0
 270.336 139.264 270.336 -205.537 270.336 -425.984 c 17
770.048 536.576 m 0
 770.048 770.048 688.128 956.416 561.152 956.416 c 1
 421.888 956.416 266.24 794.624 266.24 536.576 c 1
 266.24 245.76 409.6 106.496 522.24 106.496 c 0
 671.744 106.496 770.048 262.144 770.048 536.576 c 0
EndSplineSet
Fore
SplineSet
286 -426 m 17xe8
 28 -426 l 1
 347 1073 l 1
 605 1073 l 1xd8
 572 917 l 17
 664 1026 802 1100 918 1100 c 0
 1118 1100 1200 949 1200 743 c 0
 1200 677 1192 606 1176 532 c 0
 1111 228 940 -28 678 -28 c 1
 562 -28 456 48 410 157 c 1
 286 -426 l 17xe8
917 537 m 0
 927 584 932 626 932 662 c 0
 932 812 853 866 775 866 c 1xe8
 678 866 537 790 483 537 c 1
 473 490 469 450 469 414 c 0
 469 257 556 206 635 206 c 0
 729 206 869 313 917 537 c 0
EndSplineSet
EndChar

StartChar: q
Encoding: 113 113 37
Width: 1132
Flags: W
HStem: -28 234<347 612.695> 866 234<611.018 837.483> 1053 20G<983.769 1246>
VStem: 164 271<268.455 613.987> 720 265<-307.5 18.1094>
LayerCount: 2
Back
SplineSet
233.472 536.576 m 0
 233.472 262.144 335.872 106.496 485.376 106.496 c 0
 598.016 106.496 741.376 245.76 741.376 536.576 c 1
 741.376 794.624 585.729 956.416 446.464 956.416 c 1
 319.488 956.416 233.472 770.048 233.472 536.576 c 0
888.832 -198.656 m 2
 888.832 -278.528 917.504 -313.344 1007.62 -313.344 c 1
 1007.62 -448.512 l 1
 837.632 -448.512 737.28 -380.928 737.28 -204.8 c 0
 737.28 -199.234 737.28 133.698 737.28 139.264 c 1
 737.28 139.264 659.456 -28.6719 495.616 -28.6719 c 1
 172.032 -28.6719 83.9678 258.048 83.9678 540.672 c 0
 83.9678 823.296 204.8 1091.58 456.704 1091.58 c 0
 602.112 1091.58 675.84 995.328 737.28 899.072 c 9
 737.28 1073.15 l 1
 888.832 1073.15 l 1
 888.832 -198.656 l 2
EndSplineSet
Fore
SplineSet
730 -141 m 0xb8
 793 157 l 1
 701 48 563 -28 447 -28 c 1
 247 -28 164 121 164 326 c 0
 164 390 172 460 187 532 c 0
 252 836 423 1100 687 1100 c 0xd8
 803 1100 909 1026 955 917 c 9
 988 1073 l 1
 1246 1073 l 1
 989 -137 l 0
 987 -148 985 -158 985 -166 c 0
 985 -199 1007 -211 1080 -211 c 1
 1030 -449 l 1
 829 -449 720 -384 720 -231 c 0
 720 -204 723 -174 730 -141 c 0xb8
448 537 m 0
 439 496 435 458 435 425 c 0
 435 277 513 206 590 206 c 0
 687 206 828 282 882 537 c 1
 892 583 896 624 896 659 c 0
 896 815 809 866 730 866 c 1
 633 866 500 782 448 537 c 0
EndSplineSet
EndChar

StartChar: r
Encoding: 114 114 38
Width: 858
Flags: W
HStem: 0 21G<122 384.268> 868 234<736.929 930.351> 1053 20G<345.75 608>
LayerCount: 2
Back
SplineSet
638.976 907.264 m 1
 616.448 921.6 544.768 948.224 509.952 948.224 c 1
 393.216 948.224 270.336 786.432 270.336 677.888 c 2
 270.336 0 l 17
 118.784 0 l 1
 118.784 1073.15 l 1
 270.336 1073.15 l 1
 270.336 913.408 l 17
 323.584 1007.62 419.84 1085.44 499.712 1085.44 c 0
 561.152 1085.44 655.36 1060.86 704.512 1030.14 c 1
 638.976 907.264 l 1
EndSplineSet
Fore
SplineSet
908 807 m 1xc0
 888 820 811 868 764 868 c 1xc0
 609 868 527 690 498 553 c 1
 380 0 l 17
 122 0 l 1
 350 1073 l 1
 608 1073 l 1xa0
 574 912 l 17
 654 1019 783 1102 863 1102 c 0
 932 1102 1003 1060 1047 1008 c 1
 908 807 l 1xc0
EndSplineSet
EndChar

StartChar: s
Encoding: 115 115 39
Width: 958
Flags: W
HStem: -29 230<409.989 675.406> 870 230<559.284 780.509>
VStem: 284 252<701.594 842.59> 702 252<229.754 381.511>
LayerCount: 2
Back
SplineSet
458.752 491.52 m 0
 299.893 543.455 110.592 614.4 110.592 798.72 c 0
 110.592 983.04 258.048 1097.73 458.752 1097.73 c 0
 667.648 1097.73 790.528 978.944 813.056 870.4 c 1
 671.744 841.729 l 0
 649.216 911.36 585.729 962.561 460.8 962.561 c 0
 315.392 962.561 264.192 897.024 264.192 804.864 c 0
 264.192 692.224 393.216 661.504 460.8 636.928 c 0
 611.789 582.023 829.44 499.712 829.44 296.96 c 0
 829.44 86.0156 675.84 -28.6719 462.848 -28.6719 c 0
 249.856 -28.6719 126.976 69.6318 86.0156 217.088 c 1
 227.328 243.712 l 1
 249.856 155.648 327.68 106.496 458.752 106.496 c 0
 598.016 106.496 675.84 172.032 675.84 296.96 c 0
 675.84 401.408 565.248 456.704 458.752 491.52 c 0
EndSplineSet
Fore
SplineSet
446 491 m 0
 345 551 284 599 284 712 c 0
 284 740 288 772 296 810 c 0
 334 988 504 1100 728 1100 c 0
 944 1100 1045 955 1045 816 c 0
 1045 811 1044 806 1044 801 c 1
 795 758 l 1
 795 762 795 766 795 769 c 0
 795 854 748 870 683 870 c 0
 615 870 554 857 538 783 c 0
 537 777 536 771 536 765 c 0
 536 689 655 678 793 604 c 0
 898 547 954 479 954 367 c 0
 954 338 950 306 942 270 c 0
 905 94 694 -29 479 -29 c 0
 259 -29 141 98 140 290 c 1
 380 329 l 1
 380 327 380 326 380 324 c 0
 380 243 447 201 526 201 c 0
 607 201 682 211 700 295 c 0
 701 301 702 307 702 312 c 0
 702 394 559 423 446 491 c 0
EndSplineSet
EndChar

StartChar: t
Encoding: 116 116 40
Width: 706
Flags: W
HStem: -15 21G<463 622.24> 844 229<300 392 699 804>
VStem: 262 269<119 440.828>
LayerCount: 2
Back
SplineSet
253.952 937.984 m 0
 112.64 937.984 l 1
 112.64 1073.15 l 1
 253.952 1073.15 l 0
 253.952 1323.01 l 1
 405.504 1323.01 l 0
 405.504 1073.15 l 0
 602.112 1073.15 l 1
 602.112 937.984 l 1
 405.504 937.984 l 0
 405.504 215.04 l 0
 405.504 110.592 477.184 98.3037 522.24 98.3037 c 1
 591.872 98.3037 l 1
 591.872 -28.6719 l 1
 522.24 -28.6719 l 1
 317.44 -28.6719 253.952 49.1523 253.952 210.944 c 1
 253.952 937.984 l 0
EndSplineSet
Fore
SplineSet
392 844 m 0
 251 844 l 1
 300 1073 l 1
 441 1073 l 0
 494 1323 l 1
 752 1323 l 0
 699 1073 l 0
 853 1073 l 1
 804 844 l 1
 650 844 l 0
 534 297 l 0
 532 287 531 278 531 270 c 0
 531 210 585 202 625 202 c 1
 664 202 l 1
 618 -15 l 1
 579 -15 l 1
 347 -15 262 51 262 187 c 0
 262 219 267 254 275 293 c 1
 392 844 l 0
EndSplineSet
EndChar

StartChar: u
Encoding: 117 117 41
Width: 1112
Flags: W
HStem: -29 235<350 598.113> 0 21G<745 1007.25> 1053 20G<331.762 594 967.746 1231>
VStem: 192 269<238.576 602.688>
LayerCount: 2
Back
SplineSet
743.424 1073.15 m 9
 894.976 1073.15 l 1
 894.976 0 l 1
 743.424 0 l 1
 743.424 139.264 l 17
 704.512 79.8721 636.928 -22.5283 491.521 -22.5283 c 0
 235.52 -22.5283 108.544 192.512 108.544 450.56 c 0
 108.544 1073.15 l 1
 260.096 1073.15 l 0
 260.096 454.656 l 0
 260.096 282.624 370.688 114.688 481.28 114.688 c 1
 608.256 114.688 743.424 241.664 743.424 413.696 c 0
 743.424 1073.15 l 9
EndSplineSet
Fore
SplineSet
1003 0 m 2x70
 745 0 l 2x70
 779 161 l 17
 700 57 559 -29 422 -29 c 0
 278 -29 192 75 192 287 c 0
 192 358 202 440 222 535 c 1
 336 1073 l 1
 594 1073 l 0
 480 536 l 2
 467 474 461 423 461 381 c 0
 461 239 528 206 590 206 c 0xb0
 670 206 800 263 858 537 c 2
 972 1073 l 9
 1231 1073 l 1
 1003 0 l 2x70
EndSplineSet
EndChar

StartChar: v
Encoding: 118 118 42
Width: 1060
Flags: W
HStem: 0 21G<408.931 634.568> 1053 20G<300 571.991 934.117 1191>
VStem: 300 271<934.419 1073>
LayerCount: 2
Back
SplineSet
436.224 0 m 1
 71.6797 1073.15 l 1
 231.424 1073.15 l 1
 512 194.56 l 1
 798.72 1073.15 l 1
 956.416 1073.15 l 1
 587.776 0 l 1
 436.224 0 l 1
EndSplineSet
Fore
SplineSet
411 0 m 1
 300 1073 l 1
 571 1073 l 1
 605 387 l 1
 944 1073 l 1
 1191 1073 l 1
 624 0 l 1
 411 0 l 1
EndSplineSet
EndChar

StartChar: w
Encoding: 119 119 43
Width: 1449
Flags: W
HStem: 0 21G<370.378 581.524 851 1080.12> 1053 20G<285 540.777 830.887 1071 1360.66 1613>
VStem: 285 255<896.189 1073> 851 219<407 664>
LayerCount: 2
Back
SplineSet
688.128 829.44 m 1
 460.8 0 l 1
 344.064 0 l 1
 57.3438 1073.15 l 1
 206.848 1073.15 l 1
 403.456 282.624 l 1
 616.448 1064.96 l 1
 759.808 1064.96 l 17
 972.8 282.624 l 1
 1169.41 1073.15 l 17
 1318.91 1073.15 l 1
 1032.19 0 l 1
 909.312 0 l 1
 688.128 829.44 l 1
EndSplineSet
Fore
SplineSet
856 664 m 1
 573 0 l 1
 372 0 l 1
 285 1073 l 1
 540 1073 l 1
 566 404 l 1
 839 1077 l 1
 1071 1077 l 17
 1059 407 l 1
 1370 1073 l 17
 1613 1073 l 1
 1070 0 l 1
 851 0 l 1
 856 664 l 1
EndSplineSet
EndChar

StartChar: x
Encoding: 120 120 44
Width: 1054
Flags: W
HStem: 0 21G<27 349.582 706.896 1021> 1053 20G<273 570.273 924.424 1254>
LayerCount: 2
Back
SplineSet
860.16 0 m 1
 690.176 0 l 9
 448.512 440.32 l 1
 219.136 0 l 1
 43.0078 0 l 9
 356.352 538.624 l 1
 45.0557 1073.15 l 9
 215.04 1073.15 l 1
 448.512 638.976 l 0
 681.984 1073.15 l 1
 851.968 1073.15 l 1
 540.672 542.72 l 0
 860.16 0 l 1
EndSplineSet
Fore
SplineSet
1021 0 m 1
 714 0 l 9
 595 335 l 1
 334 0 l 1
 27 0 l 9
 482 536 l 1
 273 1073 l 9
 563 1073 l 1
 683 743 l 0
 940 1073 l 1
 1254 1073 l 1
 796 545 l 0
 1021 0 l 1
EndSplineSet
EndChar

StartChar: y
Encoding: 121 121 45
Width: 1106
Flags: W
HStem: -465 232<361.268 637.64> -29 235<350 598.113> 1053 20G<331.762 594 967.746 1231>
VStem: 192 269<238.576 602.688>
LayerCount: 2
Back
SplineSet
283.376 -183.838 m 0
 325.527 -261.986 409.975 -313.344 501.76 -313.344 c 0
 626.688 -313.344 743.424 -225.28 743.424 -32.7676 c 0
 743.424 145.408 l 17
 708.608 83.9678 636.928 -16.3838 491.521 -16.3838 c 0
 235.52 -16.3838 108.544 198.656 108.544 456.704 c 0
 108.544 1073.15 l 1
 260.096 1073.15 l 0
 260.096 460.8 l 0
 260.096 288.768 370.688 120.832 481.28 120.832 c 1
 608.256 120.832 743.424 247.808 743.424 419.84 c 0
 743.424 1073.15 l 9
 894.976 1073.15 l 1
 894.976 425.984 l 1
 894.976 -18.4316 l 2
 894.976 -290.816 712.704 -448.512 509.952 -448.512 c 1
 328.475 -448.512 217.541 -351.877 160.556 -247.556 c 1
 283.376 -183.838 l 0
EndSplineSet
Fore
SplineSet
997 -29 m 2
 951 -246 671 -465 456 -465 c 1
 245 -465 124 -348 92 -224 c 1
 320 -112 l 0
 329 -182 390 -233 499 -233 c 0
 608 -233 709 -168 732 -59 c 1
 779 161 l 17
 700 57 559 -29 422 -29 c 0
 278 -29 192 75 192 287 c 0
 192 358 202 440 222 535 c 1
 336 1073 l 1
 594 1073 l 0
 480 536 l 2
 467 474 461 423 461 381 c 0
 461 239 528 206 590 206 c 0
 670 206 800 263 858 537 c 2
 972 1073 l 9
 1231 1073 l 1
 1009 29 l 1
 997 -29 l 2
EndSplineSet
EndChar

StartChar: z
Encoding: 122 122 46
Width: 1005
Flags: W
HStem: 0 240<534 889> 834 239<343 679>
LayerCount: 2
Back
SplineSet
331.776 141.312 m 1
 866.304 141.312 l 1
 866.304 0 l 1
 79.8721 0 l 1
 624.64 931.84 l 2
 100.352 931.84 l 1
 100.352 1073.15 l 1
 876.544 1073.15 l 1
 331.776 141.312 l 1
EndSplineSet
Fore
SplineSet
534 240 m 1
 940 240 l 1
 889 0 l 1
 66 0 l 1
 679 834 l 2
 292 834 l 1
 343 1073 l 1
 1149 1073 l 1
 534 240 l 1
EndSplineSet
EndChar

StartChar: Ograve
Encoding: 210 210 47
Width: 1347
Flags: W
HStem: -29 240<615.557 921.717> 1245 240<818.472 1124.18>
VStem: 231 283<320.75 807.326> 1225 282<645.695 1136.37>
LayerCount: 2
Fore
SplineSet
1201 726 m 0
 1216 795 1225 865 1225 931 c 0
 1225 1103 1164 1245 980 1245 c 1
 726 1245 590 973 537 726 c 1
 523 659 514 591 514 526 c 0
 514 355 576 211 760 211 c 1
 1015 211 1149 483 1201 726 c 0
254 726 m 1
 326 1067 582 1485 1031 1485 c 1
 1386 1485 1507 1225 1507 948 c 0
 1507 874 1498 798 1483 726 c 1
 1411 389 1159 -29 709 -29 c 1
 353 -29 231 233 231 509 c 0
 231 582 239 656 254 726 c 1
1140 1928 m 2
 878 2141 l 2
 870 2149 865 2159 865 2174 c 0
 865 2181 866 2189 868 2197 c 0
 870 2208 873 2219 879 2231 c 0
 889 2253 901 2270 915 2283 c 1
 926 2294 941 2306 957 2316 c 0
 973 2326 990 2333 1005 2337 c 0
 1012 2339 1018 2340 1024 2340 c 0
 1035 2340 1043 2337 1050 2330 c 1
 1281 2083 l 2
 1284 2080 1285 2075 1285 2070 c 0
 1285 2065 1284 2058 1283 2052 c 0
 1281 2043 1279 2033 1272 2021 c 0
 1262 2001 1251 1986 1241 1976 c 256
 1231 1966 1218 1956 1203 1945 c 0
 1188 1934 1175 1928 1163 1925 c 0
 1159 1924 1156 1923 1153 1923 c 0
 1148 1923 1143 1925 1140 1928 c 2
EndSplineSet
EndChar

StartChar: Oacute
Encoding: 211 211 48
Width: 1347
Flags: W
HStem: -29 240<615.557 921.717> 1245 240<818.472 1124.18>
VStem: 231 283<320.75 807.326> 1225 282<645.695 1136.37>
LayerCount: 2
Fore
SplineSet
1036 1533 m 2
 774 1746 l 2
 766 1753 762 1763 762 1776 c 0
 762 1784 762 1793 764 1802 c 0
 766 1813 769 1824 775 1836 c 0
 785 1858 797 1875 811 1888 c 1
 822 1899 837 1911 853 1921 c 0
 869 1931 886 1938 901 1942 c 0
 908 1944 914 1945 920 1945 c 0
 931 1945 939 1942 946 1935 c 1
 1177 1688 l 2
 1180 1685 1181 1680 1181 1675 c 0
 1181 1670 1180 1663 1179 1657 c 0
 1177 1648 1175 1638 1168 1626 c 0
 1158 1606 1147 1591 1137 1581 c 256
 1127 1571 1114 1561 1099 1550 c 0
 1084 1539 1071 1533 1059 1530 c 0
 1055 1529 1052 1528 1049 1528 c 0
 1044 1528 1039 1530 1036 1533 c 2
1201 726 m 0
 1216 795 1225 865 1225 931 c 0
 1225 1103 1164 1245 980 1245 c 1
 726 1245 590 973 537 726 c 1
 523 659 514 591 514 526 c 0
 514 355 576 211 760 211 c 1
 1015 211 1149 483 1201 726 c 0
254 726 m 1
 326 1067 582 1485 1031 1485 c 1
 1386 1485 1507 1225 1507 948 c 0
 1507 874 1498 798 1483 726 c 1
 1411 389 1159 -29 709 -29 c 1
 353 -29 231 233 231 509 c 0
 231 582 239 656 254 726 c 1
EndSplineSet
EndChar

StartChar: Ocircumflex
Encoding: 212 212 49
Width: 1347
Flags: W
HStem: -29 240<615.557 921.717> 1245 240<818.472 1124.18>
VStem: 231 283<320.75 807.326> 1225 282<645.695 1136.37>
LayerCount: 2
Fore
SplineSet
1045 1533 m 2
 1040 1530 1036 1528 1031 1528 c 0
 1028 1528 1025 1529 1021 1530 c 0
 1011 1533 1000 1539 989 1550 c 0
 978 1561 971 1571 965 1581 c 256
 959 1591 956 1606 954 1626 c 0
 953 1639 953 1650 955 1660 c 0
 956 1665 958 1670 960 1675 c 0
 962 1680 966 1685 971 1688 c 2
 1305 1935 l 1
 1314 1942 1325 1945 1336 1945 c 0
 1342 1945 1348 1944 1355 1942 c 0
 1368 1938 1381 1931 1393 1921 c 0
 1405 1911 1414 1899 1421 1888 c 1
 1429 1875 1434 1858 1434 1836 c 0
 1434 1824 1433 1813 1431 1802 c 0
 1429 1793 1426 1784 1422 1776 c 0
 1416 1763 1408 1753 1398 1746 c 2
 1045 1533 l 2
1201 726 m 0
 1216 795 1225 865 1225 931 c 0
 1225 1103 1164 1245 980 1245 c 1
 726 1245 590 973 537 726 c 1
 523 659 514 591 514 526 c 0
 514 355 576 211 760 211 c 1
 1015 211 1149 483 1201 726 c 0
254 726 m 1
 326 1067 582 1485 1031 1485 c 1
 1386 1485 1507 1225 1507 948 c 0
 1507 874 1498 798 1483 726 c 1
 1411 389 1159 -29 709 -29 c 1
 353 -29 231 233 231 509 c 0
 231 582 239 656 254 726 c 1
EndSplineSet
EndChar

StartChar: Otilde
Encoding: 213 213 50
Width: 1347
Flags: W
HStem: -29 240<615.557 921.717> 1245 240<818.472 1124.18> 1548 247<1152.58 1319.53> 1700 247<880.198 1025.25>
VStem: 231 283<320.75 807.326> 1225 282<645.695 1136.37>
LayerCount: 2
Fore
SplineSet
1201 726 m 0xcc
 1216 795 1225 865 1225 931 c 0
 1225 1103 1164 1245 980 1245 c 1
 726 1245 590 973 537 726 c 1
 523 659 514 591 514 526 c 0
 514 355 576 211 760 211 c 1
 1015 211 1149 483 1201 726 c 0xcc
254 726 m 1
 326 1067 582 1485 1031 1485 c 1
 1386 1485 1507 1225 1507 948 c 0
 1507 874 1498 798 1483 726 c 1
 1411 389 1159 -29 709 -29 c 1
 353 -29 231 233 231 509 c 0
 231 582 239 656 254 726 c 1
797 1844 m 17
 850 1881 924 1947 1002 1947 c 0xdc
 1100 1947 1142 1795 1246 1795 c 1
 1316 1795 1394 1861 1446 1902 c 9
 1391 1642 l 17
 1348 1614 1276 1548 1193 1548 c 0xec
 1078 1548 1028 1700 946 1700 c 0xdc
 869 1700 818 1648 746 1603 c 9
 797 1844 l 17
EndSplineSet
EndChar

StartChar: Odieresis
Encoding: 214 214 51
Width: 1347
Flags: W
HStem: -29 240<615.557 921.717> 1245 240<818.472 1124.18> 1574 328<758.002 930.998 1229 1402>
VStem: 231 283<320.75 807.326> 676 336<1654.02 1821.6> 1147 336<1654.02 1821.6> 1225 282<645.695 1136.37>
LayerCount: 2
Fore
SplineSet
1201 726 m 0xfa
 1216 795 1225 865 1225 931 c 0
 1225 1103 1164 1245 980 1245 c 1
 726 1245 590 973 537 726 c 1
 523 659 514 591 514 526 c 0
 514 355 576 211 760 211 c 1
 1015 211 1149 483 1201 726 c 0xfa
254 726 m 1
 326 1067 582 1485 1031 1485 c 1
 1386 1485 1507 1225 1507 948 c 0xfa
 1507 874 1498 798 1483 726 c 1xfc
 1411 389 1159 -29 709 -29 c 1
 353 -29 231 233 231 509 c 0
 231 582 239 656 254 726 c 1
680 1738 m 0
 690 1783 714 1822 753 1854 c 0
 792 1886 834 1902 879 1902 c 0
 924 1902 960 1886 985 1854 c 0
 1003 1831 1012 1804 1012 1774 c 0
 1012 1763 1011 1750 1008 1738 c 0
 998 1693 975 1654 936 1622 c 0
 897 1590 855 1574 810 1574 c 0
 765 1574 729 1591 704 1623 c 0
 686 1646 676 1673 676 1703 c 0
 676 1714 677 1726 680 1738 c 0
1151 1738 m 0
 1161 1783 1185 1822 1224 1854 c 0
 1263 1886 1305 1902 1350 1902 c 0
 1395 1902 1431 1886 1456 1854 c 0
 1474 1831 1483 1804 1483 1774 c 0
 1483 1763 1482 1750 1479 1738 c 0
 1469 1693 1446 1654 1407 1622 c 0
 1368 1590 1326 1574 1281 1574 c 0
 1236 1574 1200 1591 1175 1623 c 0
 1157 1646 1147 1673 1147 1703 c 0xfc
 1147 1714 1148 1726 1151 1738 c 0
EndSplineSet
EndChar

StartChar: multiply
Encoding: 215 215 52
Width: 833
Flags: W
LayerCount: 2
Fore
SplineSet
159 458 m 1
 387 647 l 1
 216 859 l 1
 421 1030 l 1
 591 818 l 1
 835 1023 l 1
 971 854 l 1
 725 649 l 1
 887 448 l 1
 683 277 l 1
 522 479 l 1
 294 289 l 1
 159 458 l 1
EndSplineSet
EndChar

StartChar: Oslash
Encoding: 216 216 53
Width: 1425
Flags: W
HStem: -29 242<684.855 914.701> 1249 240<819.139 1047.31>
VStem: 236 284<426.918 820.848> 1227 284<660.87 1065.28>
LayerCount: 2
Back
SplineSet
533.795 -28.6719 m 5
 247.128 -28.6719 l 5
 901.745 1515.5 l 4
 1169.41 1515.52 l 5
 533.795 -28.6719 l 5
1046.53 753.664 m 0
 1046.53 980.853 972.04 1249.28 714.752 1249.28 c 0
 459.416 1249.28 382.976 980.853 382.976 753.664 c 1
 382.976 506.839 461.042 212.992 714.752 212.992 c 1
 970.412 212.992 1046.53 506.839 1046.53 753.664 c 0
100.352 753.664 m 1
 100.352 1074.34 264.192 1488.9 714.752 1488.9 c 1
 1167.39 1488.9 1329.15 1074.34 1329.15 753.664 c 1
 1329.15 412.53 1165.23 -28.6719 714.752 -28.6719 c 1
 266.349 -28.6719 100.352 412.53 100.352 753.664 c 1
EndSplineSet
Fore
SplineSet
544 -6 m 1
 526 -29 l 1
 242 -29 l 1
 344 135 l 1
 267 233 236 391 236 537 c 0
 236 605 243 671 255 727 c 1
 333 1096 586 1489 1037 1489 c 1
 1093 1489 1154 1482 1193 1466 c 1
 1206 1493 l 0
 1478 1493 l 1
 1387 1348 l 1
 1477 1247 1511 1110 1511 966 c 0
 1511 887 1501 806 1484 727 c 1
 1428 463 1184 -29 709 -29 c 1
 651 -29 592 -20 544 -6 c 1
684 223 m 1
 710 219 716 213 758 213 c 1
 1024 213 1162 537 1202 727 c 0
 1218 801 1227 867 1227 932 c 0
 1227 977 1222 1021 1212 1067 c 1
 684 223 l 1
531 426 m 1
 1048 1241 l 1
 1028 1243 1023 1249 986 1249 c 1
 711 1249 586 961 536 727 c 1
 528 687 520 614 520 545 c 0
 520 500 523 457 531 426 c 1
EndSplineSet
EndChar

StartChar: Ucircumflex
Encoding: 219 219 54
Width: 1298
Flags: W
HStem: -35 240<555.472 824.074> 1436 20G<419.77 692 1196.77 1469>
VStem: 218 273<274.975 694.75>
LayerCount: 2
Fore
SplineSet
630 -35 m 1
 354 -35 218 135 218 393 c 0
 218 453 225 517 240 586 c 2
 424 1456 l 1
 692 1456 l 1
 508 586 l 2
 498 538 491 489 491 442 c 0
 491 313 539 205 681 205 c 1
 875 205 978 404 1017 586 c 2
 1201 1456 l 1
 1469 1456 l 1
 1285 586 l 2
 1208 222 971 -35 630 -35 c 1
1392 1566 m 1
 1121 1566 l 1
 1023 1727 l 1
 866 1569 l 0
 589 1569 l 1
 945 1910 l 1
 1181 1910 l 1
 1392 1566 l 1
EndSplineSet
EndChar

StartChar: Udieresis
Encoding: 220 220 55
Width: 1298
Flags: W
HStem: -35 240<555.472 824.074> 1436 20G<419.77 692 1196.77 1469> 1537 328<696.002 868.998 1167 1340>
VStem: 218 273<274.975 694.75> 615 336<1617.17 1784.98> 1086 336<1617.17 1784.98>
LayerCount: 2
Fore
SplineSet
630 -35 m 1
 354 -35 218 135 218 393 c 0
 218 453 225 517 240 586 c 2
 424 1456 l 1
 692 1456 l 1
 508 586 l 2
 498 538 491 489 491 442 c 0
 491 313 539 205 681 205 c 1
 875 205 978 404 1017 586 c 2
 1201 1456 l 1
 1469 1456 l 1
 1285 586 l 2
 1208 222 971 -35 630 -35 c 1
619 1701 m 0
 629 1746 652 1785 691 1817 c 0
 730 1849 772 1865 817 1865 c 0
 862 1865 898 1849 923 1817 c 0
 941 1794 951 1767 951 1737 c 0
 951 1726 950 1713 947 1701 c 0
 937 1656 913 1617 874 1585 c 0
 835 1553 793 1537 748 1537 c 0
 703 1537 667 1554 642 1586 c 0
 624 1609 615 1636 615 1666 c 0
 615 1677 616 1689 619 1701 c 0
1090 1701 m 0
 1100 1746 1123 1785 1162 1817 c 0
 1201 1849 1243 1865 1288 1865 c 0
 1333 1865 1369 1849 1394 1817 c 0
 1412 1794 1422 1767 1422 1737 c 0
 1422 1726 1421 1713 1418 1701 c 0
 1408 1656 1384 1617 1345 1585 c 0
 1306 1553 1264 1537 1219 1537 c 0
 1174 1537 1138 1554 1113 1586 c 0
 1095 1609 1086 1636 1086 1666 c 0
 1086 1677 1087 1689 1090 1701 c 0
EndSplineSet
EndChar

StartChar: Yacute
Encoding: 221 221 56
Width: 1179
Flags: W
HStem: 0 21G<530 802.261> 1435 20G<376 722.526 1212.97 1568> 1435 20G<376 722.526 1212.97 1568>
LayerCount: 2
Fore
SplineSet
376 1455 m 0xc0
 716 1455 l 1
 871 980 l 1
 1228 1455 l 1
 1568 1455 l 1
 945 690 l 1
 798 0 l 1
 530 0 l 1
 677 690 l 1
 376 1455 l 0xc0
1037 1900 m 2
 1032 1897 1028 1895 1023 1895 c 0
 1020 1895 1017 1896 1013 1897 c 0
 1003 1900 992 1906 981 1917 c 0
 970 1928 963 1938 957 1948 c 256
 951 1958 948 1973 946 1993 c 0
 946 1998 945 2003 945 2007 c 0
 945 2014 946 2021 947 2027 c 0
 948 2032 950 2037 952 2042 c 0
 954 2047 958 2052 963 2055 c 2
 1297 2302 l 1
 1306 2309 1317 2312 1328 2312 c 0
 1334 2312 1340 2311 1347 2309 c 0
 1360 2305 1373 2298 1385 2288 c 0
 1397 2278 1406 2266 1413 2255 c 0
 1422 2241 1426 2222 1426 2198 c 0
 1426 2188 1425 2179 1423 2169 c 0
 1421 2160 1419 2151 1415 2143 c 0
 1409 2130 1400 2120 1390 2113 c 2
 1037 1900 l 2
EndSplineSet
EndChar

StartChar: Thorn
Encoding: 222 222 57
Width: 1384
Flags: W
HStem: 0 21G<135 407.251> 287 239<515 790.835> 961 238<658 880.188> 1436 20G<439.755 712>
VStem: 969 274<663.697 881.687>
LayerCount: 2
Back
SplineSet
292.454 477.103 m 1
 562.954 477.103 859.341 530.35 859.341 749.731 c 1
 859.341 984.023 511.836 1009.58 292.454 1009.58 c 1
 292.454 477.103 l 1
135.168 1456.13 m 0
 292.454 1456.13 l 1
 292.454 1150.16 l 1
 667.32 1150.16 1016.63 1067.09 1016.63 749.731 c 0
 1016.63 406.814 660.931 336.527 292.454 336.527 c 1
 292.454 0 l 1
 135.168 0 l 1
 135.168 1456.13 l 0
EndSplineSet
Fore
SplineSet
515 526 m 1
 707 526 926 569 964 750 c 1
 967 764 969 778 969 790 c 0
 969 943 750 961 607 961 c 1
 515 526 l 1
444 1456 m 0
 712 1456 l 1
 658 1199 l 1
 968 1199 1243 1124 1243 853 c 0
 1243 821 1239 787 1231 750 c 0
 1149 365 804 287 464 287 c 1
 403 0 l 1
 135 0 l 1
 444 1456 l 0
EndSplineSet
EndChar

StartChar: germandbls
Encoding: 223 223 58
Width: 1261
Flags: W
HStem: -29 224<535.092 861.12> 0 21G<62 340> 649 195<714 881.813> 1294 234<739.056 1048.73>
VStem: 996 256<313.904 552.197> 1085 258<990.395 1258.6>
LayerCount: 2
Back
SplineSet
164.188 1151.75 m 1
 252.784 1347.93 389.775 1478.72 645.018 1478.72 c 1
 893.932 1478.72 1098.42 1328.95 1089.99 1073.71 c 1
 1089.99 879.637 889.713 778.384 769.475 746.742 c 1
 883.385 719.319 1106.86 601.19 1106.86 398.685 c 1
 1106.86 120.238 891.822 -29.5322 600.72 -29.5322 c 1
 535.327 -29.5322 482.591 -10.5479 415.089 23.2041 c 9
 505.795 145.552 l 17
 539.546 132.894 571.188 109.69 600.72 109.69 c 1
 796.897 109.69 959.447 196.178 959.447 398.685 c 1
 959.447 548.454 737.833 679.24 541.655 679.24 c 1
 505.795 679.24 l 2
 493.138 679.24 480.481 679.24 463.605 672.911 c 1
 463.605 824.791 l 1
 478.372 820.572 488.919 820.572 499.466 820.572 c 2
 541.655 820.572 l 1
 712.52 820.572 940.462 917.606 940.462 1073.71 c 1
 940.462 1259.34 826.43 1341.6 645.018 1341.6 c 1
 440.402 1341.6 349.573 1238.24 305.274 1105.35 c 1
 235.663 902.84 248.32 310.088 229.335 0 c 1
 81.9199 0 l 1
 113.562 360.714 88.248 993.546 164.188 1151.75 c 1
EndSplineSet
Fore
SplineSet
427 1260 m 1x74
 549 1427 722 1528 970 1528 c 1
 1208 1528 1343 1390 1343 1185 c 0x74
 1343 1149 1338 1112 1330 1073 c 1
 1289 881 1171 792 1096 767 c 1
 1153 755 1252 644 1252 484 c 0
 1252 457 1249 428 1243 399 c 1
 1182 111 933 -29 612 -29 c 1
 526 -29 452 -20 420 23 c 9
 561 226 l 17
 575 210 589 195 634 195 c 1
 805 195 960 249 992 399 c 1
 995 413 996 426 996 439 c 0xb8
 996 555 885 649 679 649 c 1
 644 649 l 2
 654 649 646 651 668 694 c 1
 714 844 l 1
 843 844 1037 888 1076 1073 c 0
 1082 1102 1085 1128 1085 1151 c 0
 1085 1249 1029 1294 920 1294 c 1
 772 1294 683 1230 621 1140 c 0
 530 1008 385 159 295 0 c 1
 62 0 l 1
 163 159 288 1074 427 1260 c 1x74
EndSplineSet
EndChar

StartChar: acircumflex
Encoding: 226 226 59
Width: 1036
Flags: W
HStem: -29 220<359.837 620.32> 0 21G<721 982.262> 524 217<498.931 761.483> 897 205<474.369 812.039> 1462 20G<704.12 973.267>
VStem: 156 249<233.538 432.566> 867 257<578.891 843.578>
LayerCount: 2
Fore
SplineSet
646 524 m 1xbe
 524 524 426 442 408 356 c 1
 406 346 405 336 405 327 c 0
 405 253 468 191 576 191 c 1
 698 191 785 270 803 356 c 1
 805 367 806 378 806 389 c 0
 806 462 752 524 646 524 c 1xbe
608 741 m 1
 748 741 833 654 841 576 c 1
 859 658 l 0
 865 684 867 708 867 729 c 0
 867 871 750 897 663 897 c 1
 563 897 494 868 435 844 c 9
 367 1008 l 17
 436 1056 599 1102 706 1102 c 1
 931 1102 1124 1009 1124 750 c 0
 1124 708 1118 661 1107 609 c 10
 1043 305 l 2
 978 0 l 1
 721 0 l 1x7e
 750 136 l 1
 708 58 588 -29 448 -29 c 1
 275 -29 156 93 156 268 c 0
 156 297 159 327 166 358 c 1
 213 580 410 741 608 741 c 1
1172 1138 m 1
 901 1138 l 1
 803 1299 l 1
 646 1141 l 0
 369 1141 l 1
 725 1482 l 1
 961 1482 l 1
 1172 1138 l 1
EndSplineSet
EndChar

StartChar: atilde
Encoding: 227 227 60
Width: 1036
Flags: W
HStem: -29 220<359.837 620.32> 0 21G<721 982.262> 524 217<498.931 761.483> 897 205<474.369 812.039> 1143 247<913.224 1080.17> 1295 247<641.198 786.246>
VStem: 156 249<233.538 432.566> 867 257<578.891 843.578>
LayerCount: 2
Fore
SplineSet
646 524 m 1xb3
 524 524 426 442 408 356 c 1
 406 346 405 336 405 327 c 0
 405 253 468 191 576 191 c 1
 698 191 785 270 803 356 c 1
 805 367 806 378 806 389 c 0
 806 462 752 524 646 524 c 1xb3
608 741 m 1
 748 741 833 654 841 576 c 1
 859 658 l 0
 865 684 867 708 867 729 c 0
 867 871 750 897 663 897 c 1
 563 897 494 868 435 844 c 9
 367 1008 l 17
 436 1056 599 1102 706 1102 c 1
 931 1102 1124 1009 1124 750 c 0
 1124 708 1118 661 1107 609 c 10
 1043 305 l 2
 978 0 l 1
 721 0 l 1x73
 750 136 l 1
 708 58 588 -29 448 -29 c 1
 275 -29 156 93 156 268 c 0
 156 297 159 327 166 358 c 1
 213 580 410 741 608 741 c 1
558 1439 m 17
 611 1476 685 1542 763 1542 c 0x37
 861 1542 902 1390 1006 1390 c 1
 1076 1390 1155 1456 1207 1497 c 9
 1152 1237 l 17
 1109 1209 1037 1143 954 1143 c 0x3b
 839 1143 789 1295 707 1295 c 0x37
 630 1295 579 1243 507 1198 c 9
 558 1439 l 17
EndSplineSet
EndChar

StartChar: adieresis
Encoding: 228 228 61
Width: 1036
Flags: W
HStem: -29 220<359.837 620.32> 0 21G<721 982.262> 524 217<498.931 761.483> 897 205<474.369 812.039> 1167 328<518.002 691.998 989.002 1163>
VStem: 156 249<233.538 432.566> 437 336<1247.17 1414.6> 867 257<578.891 843.578> 908 336<1247.17 1414.6>
LayerCount: 2
Fore
SplineSet
646 524 m 1xbe
 524 524 426 442 408 356 c 1
 406 346 405 336 405 327 c 0
 405 253 468 191 576 191 c 1
 698 191 785 270 803 356 c 1
 805 367 806 378 806 389 c 0
 806 462 752 524 646 524 c 1xbe
608 741 m 1
 748 741 833 654 841 576 c 1
 859 658 l 0
 865 684 867 708 867 729 c 0
 867 871 750 897 663 897 c 1
 563 897 494 868 435 844 c 9
 367 1008 l 17
 436 1056 599 1102 706 1102 c 1
 931 1102 1124 1009 1124 750 c 0
 1124 708 1118 661 1107 609 c 10
 1043 305 l 2
 978 0 l 1
 721 0 l 1x7f
 750 136 l 1
 708 58 588 -29 448 -29 c 1
 275 -29 156 93 156 268 c 0
 156 297 159 327 166 358 c 1
 213 580 410 741 608 741 c 1
441 1331 m 0
 451 1376 475 1415 514 1447 c 0
 553 1479 595 1495 640 1495 c 0
 685 1495 721 1479 746 1447 c 0
 764 1424 773 1397 773 1367 c 0
 773 1356 772 1343 769 1331 c 0
 759 1286 735 1247 696 1215 c 0
 657 1183 615 1167 570 1167 c 0
 525 1167 489 1184 464 1216 c 0
 446 1239 437 1266 437 1296 c 0
 437 1307 438 1319 441 1331 c 0
912 1331 m 0
 922 1376 946 1415 985 1447 c 0
 1024 1479 1066 1495 1111 1495 c 0
 1156 1495 1192 1479 1217 1447 c 0
 1235 1424 1244 1397 1244 1367 c 0
 1244 1356 1243 1343 1240 1331 c 0
 1230 1286 1206 1247 1167 1215 c 0
 1128 1183 1086 1167 1041 1167 c 0
 996 1167 960 1184 935 1216 c 0
 917 1239 908 1266 908 1296 c 0x3e80
 908 1307 909 1319 912 1331 c 0
EndSplineSet
EndChar

StartChar: aring
Encoding: 229 229 62
Width: 1036
Flags: W
HStem: -29 220<359.837 620.32> 0 21G<721 982.262> 524 217<498.931 761.483> 897 205<474.369 812.039> 1114 162<715.618 917.938> 1576 162<759.716 962.052>
VStem: 156 249<233.538 432.566> 514 176<1298.44 1505.56> 867 257<578.891 843.578> 987 176<1346.22 1550.99>
LayerCount: 2
Fore
SplineSet
646 524 m 1xbf
 524 524 426 442 408 356 c 1
 406 346 405 336 405 327 c 0
 405 253 468 191 576 191 c 1
 698 191 785 270 803 356 c 1
 805 367 806 378 806 389 c 0
 806 462 752 524 646 524 c 1xbf
608 741 m 1
 748 741 833 654 841 576 c 1
 859 658 l 0
 865 684 867 708 867 729 c 0
 867 871 750 897 663 897 c 1
 563 897 494 868 435 844 c 9
 367 1008 l 17
 436 1056 599 1102 706 1102 c 1
 931 1102 1124 1009 1124 750 c 0
 1124 708 1118 661 1107 609 c 10
 1043 305 l 2
 978 0 l 1
 721 0 l 1x7f80
 750 136 l 1
 708 58 588 -29 448 -29 c 1
 275 -29 156 93 156 268 c 0
 156 297 159 327 166 358 c 1
 213 580 410 741 608 741 c 1
694 1426 m 0
 692 1415 690 1404 690 1393 c 0
 690 1326 737 1276 807 1276 c 0
 888 1276 965 1342 983 1426 c 0
 985 1437 987 1448 987 1459 c 0x3f40
 987 1526 941 1576 871 1576 c 0
 790 1576 712 1509 694 1426 c 0
521 1426 m 0
 558 1599 729 1738 905 1738 c 0
 1058 1738 1163 1633 1163 1491 c 0
 1163 1470 1161 1448 1156 1426 c 0
 1119 1253 949 1114 773 1114 c 0
 620 1114 514 1220 514 1362 c 0
 514 1383 516 1404 521 1426 c 0
EndSplineSet
EndChar

StartChar: ae
Encoding: 230 230 63
Width: 1764
Flags: W
HStem: -29 220<359.837 620.32 1142.07 1378.49> 0 21G<721 982> 469 182<1131 1547> 524 217<498.931 762.807> 868 230<1252.88 1495.44> 897 205<474.369 816.432>
VStem: 156 249<233.538 432.566> 806 277<272.991 466.472> 1547 241<651.68 819.151>
LayerCount: 2
Back
SplineSet
208 294 m 0xb8
 134 294 110 236 110 173 c 0
 110 110 134 52 208 52 c 0
 270 52 306 108 306 173 c 1
 306 238 270 294 208 294 c 0xb8
347.172 444.129 m 1
 381.085 499.773 413.985 534 484 534 c 0
 614 534 667 416 667 262 c 0
 667 251.234 665.469 240.156 665.469 229 c 1
 377.297 229 l 1xd8
 377.297 182 389 52 484 52 c 0
 530.016 52 542.375 79.3281 563.422 118.484 c 0
 628.344 91.6094 l 0
 594.984 27.0625 559.422 -14 484 -14 c 0
 405.844 -14 380.021 27.0371 346 80 c 1
 320 34 302 -14 208 -14 c 0
 98 -14 36 68 36 173 c 0
 36 278 108 360 208 360 c 0
 270.223 360 289 337 308 309 c 1
 308.915 317.082 305.915 330.206 307.264 337.988 c 1
 307.264 409.284 281.354 466 210 466 c 0
 164 466 142 450 120 428 c 9
 82 478 l 0
 116 506 140 532 210 532 c 0
 273.279 532 313.223 501.687 347.172 444.129 c 1
377.364 295 m 1
 591.344 295 l 1
 582.672 381.516 562.031 468 484 468 c 0
 404 468 379 369 377.364 295 c 1
EndSplineSet
Fore
SplineSet
646 524 m 0x9380
 524 524 426 442 408 356 c 0
 406 346 405 336 405 327 c 0
 405 253 468 191 576 191 c 0
 698 191 785 270 803 356 c 0
 805 367 806 378 806 389 c 0
 806 462 752 524 646 524 c 0x9380
1251 201 m 0
 1310 201 1371 221 1419 267 c 1
 1626 169 l 1
 1512 38 1335 -29 1202 -29 c 0xab80
 1119 -29 1045 -6 985 35 c 1
 978 0 l 1
 721 0 l 1x4380
 750 136 l 1
 708 58 588 -29 448 -29 c 0
 275 -29 156 93 156 268 c 0
 156 297 159 327 166 358 c 0
 213 580 410 741 608 741 c 0
 747 741 834 655 842 577 c 1
 842 578 843 583 845 592 c 0
 849 609 855 637 859 658 c 1
 865 684 867 708 867 729 c 0
 867 871 750 897 663 897 c 0
 563 897 494 868 435 844 c 1
 367 1008 l 1
 436 1056 599 1102 706 1102 c 0x9780
 859 1102 998 1059 1070 949 c 1
 1176 1043 1304 1098 1432 1098 c 0
 1653 1098 1788 934 1788 694 c 0
 1788 645 1782 592 1770 537 c 2
 1756 469 l 1
 1092 469 l 1x2b80
 1086 437 1083 408 1083 383 c 0
 1083 230 1186 201 1251 201 c 0
1131 651 m 1
 1544 651 l 1
 1546 664 1547 676 1547 689 c 0
 1547 786 1495 868 1383 868 c 0
 1257 868 1162 760 1131 651 c 1
EndSplineSet
EndChar

StartChar: egrave
Encoding: 232 232 64
Width: 1093
Flags: W
HStem: -29 230<500.223 763.021> 469 182<501 916.999> 868 230<625.562 865.442>
VStem: 187 266<250.719 467.353> 917 241<651.68 819.151>
LayerCount: 2
Fore
SplineSet
820 1185 m 2
 558 1398 l 2
 550 1405 546 1415 546 1428 c 0
 546 1436 546 1445 548 1454 c 0
 550 1465 553 1476 559 1488 c 0
 569 1510 581 1527 595 1540 c 1
 606 1551 621 1563 637 1573 c 0
 653 1583 670 1590 685 1594 c 0
 692 1596 698 1597 704 1597 c 0
 715 1597 723 1594 730 1587 c 1
 961 1340 l 2
 964 1337 965 1332 965 1327 c 0
 965 1322 964 1315 963 1309 c 0
 961 1300 959 1290 952 1278 c 0
 942 1258 931 1243 921 1233 c 256
 911 1223 898 1213 883 1202 c 0
 868 1191 855 1185 843 1182 c 0
 839 1181 836 1180 833 1180 c 0
 828 1180 823 1182 820 1185 c 2
501 651 m 1
 914 651 l 1
 916 664 917 676 917 689 c 0
 917 786 865 868 753 868 c 0
 627 868 532 760 501 651 c 1
621 201 m 0
 680 201 741 221 789 267 c 0
 996 169 l 0
 882 38 705 -29 572 -29 c 1
 345 -29 187 144 187 396 c 0
 187 441 192 488 202 537 c 0
 271 860 536 1098 802 1098 c 0
 1023 1098 1158 934 1158 694 c 0
 1158 645 1152 592 1140 537 c 0
 1126 469 l 1
 462 469 l 1
 456 437 453 408 453 383 c 0
 453 230 556 201 621 201 c 0
EndSplineSet
EndChar

StartChar: eacute
Encoding: 233 233 65
Width: 1093
Flags: W
HStem: -29 230<500.223 763.021> 469 182<501 916.999> 868 230<625.562 865.442>
VStem: 187 266<250.719 467.353> 917 241<651.68 819.151>
LayerCount: 2
Fore
SplineSet
758 1183 m 2
 753 1180 749 1178 744 1178 c 0
 741 1178 739 1179 735 1180 c 0
 725 1183 714 1189 703 1200 c 0
 692 1211 685 1221 679 1231 c 256
 673 1241 669 1256 667 1276 c 0
 666 1289 666 1300 668 1310 c 0
 669 1315 672 1320 674 1325 c 0
 676 1330 679 1335 684 1338 c 2
 1019 1585 l 1
 1028 1592 1039 1595 1050 1595 c 0
 1056 1595 1061 1594 1068 1592 c 0
 1081 1588 1095 1581 1107 1571 c 0
 1119 1561 1128 1549 1135 1538 c 0
 1144 1524 1148 1505 1148 1481 c 0
 1148 1471 1147 1462 1145 1452 c 0
 1143 1443 1140 1434 1136 1426 c 0
 1130 1413 1122 1403 1112 1396 c 2
 758 1183 l 2
501 651 m 1
 914 651 l 1
 916 664 917 676 917 689 c 0
 917 786 865 868 753 868 c 0
 627 868 532 760 501 651 c 1
621 201 m 0
 680 201 741 221 789 267 c 0
 996 169 l 0
 882 38 705 -29 572 -29 c 1
 345 -29 187 144 187 396 c 0
 187 441 192 488 202 537 c 0
 271 860 536 1098 802 1098 c 0
 1023 1098 1158 934 1158 694 c 0
 1158 645 1152 592 1140 537 c 0
 1126 469 l 1
 462 469 l 1
 456 437 453 408 453 383 c 0
 453 230 556 201 621 201 c 0
EndSplineSet
EndChar

StartChar: ecircumflex
Encoding: 234 234 66
Width: 964
Flags: W
HStem: -29 230<500.223 763.021> 469 182<501 916.999> 868 230<625.562 865.442>
VStem: 187 266<250.719 467.353> 917 241<651.68 819.151>
LayerCount: 2
Fore
SplineSet
501 651 m 1
 914 651 l 1
 916 664 917 676 917 689 c 0
 917 786 865 868 753 868 c 0
 627 868 532 760 501 651 c 1
621 201 m 0
 680 201 741 221 789 267 c 0
 996 169 l 0
 882 38 705 -29 572 -29 c 1
 345 -29 187 144 187 396 c 0
 187 441 192 488 202 537 c 0
 271 860 536 1098 802 1098 c 0
 1023 1098 1158 934 1158 694 c 0
 1158 645 1152 592 1140 537 c 0
 1126 469 l 1
 462 469 l 1
 456 437 453 408 453 383 c 0
 453 230 556 201 621 201 c 0
1230 1152 m 1
 959 1152 l 1
 861 1313 l 1
 704 1155 l 0
 427 1155 l 1
 783 1496 l 1
 1019 1496 l 1
 1230 1152 l 1
EndSplineSet
EndChar

StartChar: edieresis
Encoding: 235 235 67
Width: 964
Flags: W
HStem: -29 230<500.223 763.021> 469 182<501 916.999> 868 230<625.562 865.442> 1144 328<526.386 699.998 997.386 1171>
VStem: 187 266<250.719 467.353> 445 336<1224.17 1391.6> 916 336<1224.17 1391.6> 917 241<651.68 819.151>
LayerCount: 2
Fore
SplineSet
501 651 m 1xf1
 914 651 l 1
 916 664 917 676 917 689 c 0
 917 786 865 868 753 868 c 0
 627 868 532 760 501 651 c 1xf1
621 201 m 0
 680 201 741 221 789 267 c 0
 996 169 l 0
 882 38 705 -29 572 -29 c 1
 345 -29 187 144 187 396 c 0
 187 441 192 488 202 537 c 0
 271 860 536 1098 802 1098 c 0
 1023 1098 1158 934 1158 694 c 0
 1158 645 1152 592 1140 537 c 0
 1126 469 l 1
 462 469 l 1
 456 437 453 408 453 383 c 0xf9
 453 230 556 201 621 201 c 0
449 1308 m 0
 459 1353 483 1392 522 1424 c 0
 561 1456 603 1472 648 1472 c 0
 693 1472 729 1456 754 1424 c 0
 772 1401 781 1374 781 1344 c 0
 781 1333 780 1320 777 1308 c 0
 767 1263 743 1224 704 1192 c 0
 665 1160 623 1144 578 1144 c 0
 533 1144 498 1161 473 1193 c 0
 455 1216 445 1243 445 1273 c 0xf4
 445 1284 446 1296 449 1308 c 0
920 1308 m 0
 930 1353 954 1392 993 1424 c 0
 1032 1456 1074 1472 1119 1472 c 0
 1164 1472 1200 1456 1225 1424 c 0
 1243 1401 1252 1374 1252 1344 c 0
 1252 1333 1251 1320 1248 1308 c 0
 1238 1263 1214 1224 1175 1192 c 0
 1136 1160 1094 1144 1049 1144 c 0
 1004 1144 969 1161 944 1193 c 0
 926 1216 916 1243 916 1273 c 0xf2
 916 1284 917 1296 920 1308 c 0
EndSplineSet
EndChar

StartChar: igrave
Encoding: 236 236 68
Width: 550
Flags: W
HStem: 0 21G<139 401.25> 1053 20G<362.75 625>
VStem: 139 539
LayerCount: 2
Fore
SplineSet
367 1073 m 1
 625 1073 l 1
 397 0 l 1
 139 0 l 1
 367 1073 l 1
537 1185 m 2
 275 1398 l 2
 267 1406 262 1416 262 1431 c 0
 262 1438 263 1446 265 1454 c 0
 267 1465 270 1476 276 1488 c 0
 286 1510 298 1527 312 1540 c 1
 323 1551 338 1563 354 1573 c 0
 370 1583 387 1590 402 1594 c 0
 409 1596 415 1597 421 1597 c 0
 432 1597 440 1594 447 1587 c 1
 678 1340 l 2
 681 1337 682 1332 682 1327 c 0
 682 1322 681 1315 680 1309 c 0
 678 1300 676 1290 669 1278 c 0
 659 1258 648 1243 638 1233 c 256
 628 1223 615 1213 600 1202 c 0
 585 1191 572 1185 560 1182 c 0
 556 1181 553 1180 550 1180 c 0
 545 1180 540 1182 537 1185 c 2
EndSplineSet
EndChar

StartChar: iacute
Encoding: 237 237 69
Width: 544
Flags: W
HStem: 0 21G<139 401.25> 1053 20G<362.75 625>
LayerCount: 2
Fore
SplineSet
367 1073 m 1
 625 1073 l 1
 397 0 l 1
 139 0 l 1
 367 1073 l 1
507 1185 m 2
 502 1182 498 1180 493 1180 c 0
 490 1180 487 1181 483 1182 c 0
 473 1185 462 1191 451 1202 c 0
 440 1213 433 1223 427 1233 c 256
 421 1243 418 1258 416 1278 c 0
 416 1283 415 1288 415 1292 c 0
 415 1299 416 1306 417 1312 c 0
 418 1317 420 1322 422 1327 c 0
 424 1332 428 1337 433 1340 c 2
 767 1587 l 1
 776 1594 787 1597 798 1597 c 0
 804 1597 810 1596 817 1594 c 0
 830 1590 843 1583 855 1573 c 0
 867 1563 876 1551 883 1540 c 0
 892 1526 896 1507 896 1483 c 0
 896 1473 895 1464 893 1454 c 0
 891 1445 889 1436 885 1428 c 0
 879 1415 870 1405 860 1398 c 2
 507 1185 l 2
EndSplineSet
EndChar

StartChar: icircumflex
Encoding: 238 238 70
Width: 546
Flags: W
HStem: 0 21G<139 412.25> 1053 20G<362.75 636> 1470 20G<452.062 721.267>
LayerCount: 2
Fore
SplineSet
920 1146 m 1
 649 1146 l 1
 551 1307 l 1
 393 1149 l 0
 116 1149 l 1
 473 1490 l 1
 709 1490 l 1
 920 1146 l 1
367 1073 m 1
 636 1073 l 1
 408 0 l 1
 139 0 l 1
 367 1073 l 1
EndSplineSet
EndChar

StartChar: idieresis
Encoding: 239 239 71
Width: 548
Flags: W
HStem: 0 21G<139 412.25> 1053 20G<362.75 636> 1159 328<244.75 413.647 715.75 884.647>
LayerCount: 2
Fore
SplineSet
636 1323 m 0
 655 1414 745 1487 835 1487 c 0
 914 1487 968 1432 968 1358 c 0
 968 1347 967 1335 964 1323 c 0
 945 1233 856 1159 765 1159 c 0
 687 1159 633 1215 633 1289 c 0
 633 1300 634 1311 636 1323 c 0
165 1323 m 0
 184 1414 274 1487 364 1487 c 0
 443 1487 497 1432 497 1358 c 0
 497 1347 496 1335 493 1323 c 0
 474 1233 385 1159 294 1159 c 0
 216 1159 162 1215 162 1289 c 0
 162 1300 163 1311 165 1323 c 0
367 1073 m 1
 636 1073 l 1
 408 0 l 1
 139 0 l 1
 367 1073 l 1
EndSplineSet
EndChar

StartChar: eth
Encoding: 240 240 72
Width: 1062
Flags: W
HStem: -49 229<463.662 646.524> 723 229<543.417 738.472> 1292 199<471.711 682.961>
VStem: 153 266<223.621 558.995> 894 217<799 1044.72>
LayerCount: 2
Back
SplineSet
223.232 454.656 m 0
 223.232 223.232 380.928 106.496 481.28 106.496 c 0
 634.88 106.496 765.952 278.528 765.952 454.656 c 1
 765.952 647.168 593.92 790.528 442.368 790.528 c 1
 319.488 790.528 223.232 604.16 223.232 454.656 c 0
673.792 1290.24 m 1
 759.808 1191.94 892.928 983.04 905.216 800.768 c 1
 912.066 700.045 920.203 627.63 917.504 501.76 c 1
 917.504 192.512 727.124 -28.6719 491.521 -28.6719 c 0
 188.416 -28.6719 71.6797 202.752 71.6797 458.752 c 0
 71.6797 716.8 237.568 925.696 452.608 925.696 c 0
 622.592 925.696 673.792 845.824 749.568 778.24 c 1
 749.568 892.928 655.36 1120.26 561.152 1204.22 c 1
 407.552 1060.86 l 1
 309.248 1161.22 l 1
 444.416 1290.24 l 1
 391.168 1308.67 337.92 1314.82 284.672 1314.82 c 0
 245.76 1314.82 206.848 1310.72 169.984 1306.62 c 1
 155.648 1454.08 l 1
 182.272 1456.13 210.944 1456.13 237.568 1456.13 c 0
 350.208 1456.13 460.8 1439.74 565.248 1386.5 c 1
 720.896 1525.76 l 1
 817.152 1417.22 l 1
 673.792 1290.24 l 1
EndSplineSet
Fore
SplineSet
429 467 m 0
 422 432 419 401 419 373 c 0
 419 245 485 180 540 180 c 0
 643 180 760 322 791 467 c 1
 796 489 798 510 798 530 c 0
 798 651 717 723 629 723 c 1
 548 723 455 590 429 467 c 0
1006 1229 m 1
 1055 1152 1111 994 1111 845 c 0
 1111 819 1110 795 1106 770 c 1
 1102 715 1095 666 1083 610 c 0
 1076 579 1068 545 1058 506 c 1
 989 182 743 -49 498 -49 c 0
 249 -49 153 106 153 306 c 0
 153 359 160 414 172 471 c 0
 231 748 453 952 685 952 c 0
 788 952 859 866 891 799 c 1
 893 810 894 823 894 837 c 0
 894 921 858 1058 814 1110 c 1
 708 1028 l 1
 588 1182 l 1
 688 1255 l 1
 665 1275 648 1291 559 1292 c 0
 557 1292 l 0
 516 1292 477 1288 448 1282 c 1
 470 1475 l 1
 506 1488 575 1490 621 1491 c 0
 626 1491 l 0
 753 1491 846 1436 884 1401 c 1
 1026 1512 l 1
 1150 1327 l 1
 1006 1229 l 1
EndSplineSet
EndChar

StartChar: ograve
Encoding: 242 242 73
Width: 1150
Flags: W
HStem: -29 235<490.542 747.054> 866 234<611.809 868.368>
VStem: 185 256<255.441 620.483> 919 252<453.448 816.263>
LayerCount: 2
Fore
SplineSet
801 1183 m 2
 540 1396 l 2
 532 1403 527 1413 527 1426 c 0
 527 1434 528 1443 530 1452 c 0
 532 1463 535 1474 541 1486 c 0
 551 1508 563 1525 577 1538 c 1
 588 1549 603 1561 619 1571 c 0
 635 1581 651 1588 666 1592 c 0
 673 1594 680 1595 686 1595 c 0
 697 1595 705 1592 712 1585 c 1
 942 1338 l 2
 945 1335 947 1330 947 1325 c 0
 947 1320 946 1313 945 1307 c 0
 943 1298 940 1288 933 1276 c 0
 923 1256 913 1241 903 1231 c 256
 893 1221 880 1211 865 1200 c 0
 850 1189 837 1183 825 1180 c 0
 821 1179 817 1178 814 1178 c 0
 809 1178 804 1180 801 1183 c 2
458 537 m 0
 447 483 441 437 441 398 c 0
 441 250 518 206 610 206 c 0
 725 206 847 276 902 537 c 1
 913 591 919 636 919 674 c 0
 919 823 841 866 750 866 c 1
 634 866 513 798 458 537 c 0
206 537 m 0
 279 879 495 1100 799 1100 c 0
 1046 1100 1171 955 1171 718 c 0
 1171 662 1164 602 1150 537 c 0
 1077 195 864 -29 559 -29 c 1
 313 -29 185 114 185 354 c 0
 185 410 192 471 206 537 c 0
EndSplineSet
EndChar

StartChar: oacute
Encoding: 243 243 74
Width: 1153
Flags: W
HStem: -29 235<490.542 747.054> 866 234<611.809 868.368>
VStem: 185 256<255.441 620.483> 919 252<453.448 816.263>
LayerCount: 2
Fore
SplineSet
802 1183 m 2
 797 1180 793 1178 788 1178 c 0
 785 1178 783 1179 779 1180 c 0
 769 1183 758 1189 747 1200 c 0
 736 1211 729 1221 723 1231 c 256
 717 1241 713 1256 711 1276 c 0
 710 1289 710 1300 712 1310 c 0
 713 1315 716 1320 718 1325 c 0
 720 1330 723 1335 728 1338 c 2
 1063 1585 l 1
 1072 1592 1083 1595 1094 1595 c 0
 1100 1595 1105 1594 1112 1592 c 0
 1125 1588 1139 1581 1151 1571 c 0
 1163 1561 1172 1549 1179 1538 c 0
 1188 1524 1192 1505 1192 1481 c 0
 1192 1471 1191 1462 1189 1452 c 0
 1187 1443 1184 1434 1180 1426 c 0
 1174 1413 1166 1403 1156 1396 c 2
 802 1183 l 2
458 537 m 0
 447 483 441 437 441 398 c 0
 441 250 518 206 610 206 c 0
 725 206 847 276 902 537 c 1
 913 591 919 636 919 674 c 0
 919 823 841 866 750 866 c 1
 634 866 513 798 458 537 c 0
206 537 m 0
 279 879 495 1100 799 1100 c 0
 1046 1100 1171 955 1171 718 c 0
 1171 662 1164 602 1150 537 c 0
 1077 195 864 -29 559 -29 c 1
 313 -29 185 114 185 354 c 0
 185 410 192 471 206 537 c 0
EndSplineSet
EndChar

StartChar: ocircumflex
Encoding: 244 244 75
Width: 1150
Flags: W
HStem: -29 235<490.542 747.054> 866 234<611.809 868.368> 1466 20G<739.062 1008.27>
VStem: 185 256<255.441 620.483> 919 252<453.448 816.263>
LayerCount: 2
Fore
SplineSet
458 537 m 0
 447 483 441 437 441 398 c 0
 441 250 518 206 610 206 c 0
 725 206 847 276 902 537 c 1
 913 591 919 636 919 674 c 0
 919 823 841 866 750 866 c 1
 634 866 513 798 458 537 c 0
206 537 m 0
 279 879 495 1100 799 1100 c 0
 1046 1100 1171 955 1171 718 c 0
 1171 662 1164 602 1150 537 c 0
 1077 195 864 -29 559 -29 c 1
 313 -29 185 114 185 354 c 0
 185 410 192 471 206 537 c 0
1207 1142 m 1
 936 1142 l 1
 838 1303 l 1
 680 1145 l 0
 403 1145 l 1
 760 1486 l 1
 996 1486 l 1
 1207 1142 l 1
EndSplineSet
EndChar

StartChar: otilde
Encoding: 245 245 76
Width: 1150
Flags: W
HStem: -29 235<490.542 747.054> 866 234<611.809 868.368> 1149 247<910.598 1077.53> 1301 247<638.582 783.607>
VStem: 185 256<255.441 620.483> 919 252<453.448 816.263>
LayerCount: 2
Fore
SplineSet
458 537 m 0xcc
 447 483 441 437 441 398 c 0
 441 250 518 206 610 206 c 0
 725 206 847 276 902 537 c 1
 913 591 919 636 919 674 c 0
 919 823 841 866 750 866 c 1
 634 866 513 798 458 537 c 0xcc
206 537 m 0
 279 879 495 1100 799 1100 c 0
 1046 1100 1171 955 1171 718 c 0
 1171 662 1164 602 1150 537 c 0
 1077 195 864 -29 559 -29 c 1
 313 -29 185 114 185 354 c 0
 185 410 192 471 206 537 c 0
555 1445 m 17
 608 1482 682 1548 760 1548 c 0xdc
 858 1548 900 1396 1004 1396 c 1
 1074 1396 1152 1462 1204 1503 c 9
 1149 1243 l 17
 1106 1215 1034 1149 951 1149 c 0xec
 836 1149 787 1301 705 1301 c 0xdc
 628 1301 576 1249 504 1204 c 9
 555 1445 l 17
EndSplineSet
EndChar

StartChar: odieresis
Encoding: 246 246 77
Width: 1150
Flags: W
HStem: -29 235<490.542 747.054> 866 234<611.809 868.368> 1155 328<517.002 689.998 988.002 1161>
VStem: 185 256<255.441 620.483> 435 336<1235.02 1402.6> 906 336<1235.02 1402.6> 919 252<453.448 816.263>
LayerCount: 2
Fore
SplineSet
458 537 m 0xf2
 447 483 441 437 441 398 c 0
 441 250 518 206 610 206 c 0
 725 206 847 276 902 537 c 1
 913 591 919 636 919 674 c 0
 919 823 841 866 750 866 c 1
 634 866 513 798 458 537 c 0xf2
206 537 m 0
 279 879 495 1100 799 1100 c 0
 1046 1100 1171 955 1171 718 c 0
 1171 662 1164 602 1150 537 c 0
 1077 195 864 -29 559 -29 c 1
 313 -29 185 114 185 354 c 0
 185 410 192 471 206 537 c 0
439 1319 m 0
 449 1364 473 1403 512 1435 c 0
 551 1467 593 1483 638 1483 c 0
 683 1483 719 1467 744 1435 c 0
 762 1412 771 1385 771 1355 c 0
 771 1344 770 1331 767 1319 c 0
 757 1274 734 1235 695 1203 c 0
 656 1171 614 1155 569 1155 c 0
 524 1155 488 1172 463 1204 c 0
 445 1227 435 1254 435 1284 c 0xe8
 435 1295 436 1307 439 1319 c 0
910 1319 m 0
 920 1364 944 1403 983 1435 c 0
 1022 1467 1064 1483 1109 1483 c 0
 1154 1483 1190 1467 1215 1435 c 0
 1233 1412 1242 1385 1242 1355 c 0
 1242 1344 1241 1331 1238 1319 c 0
 1228 1274 1205 1235 1166 1203 c 0
 1127 1171 1085 1155 1040 1155 c 0
 995 1155 959 1172 934 1204 c 0
 916 1227 906 1254 906 1284 c 0xe4
 906 1295 907 1307 910 1319 c 0
EndSplineSet
EndChar

StartChar: divide
Encoding: 247 247 78
Width: 1003
Flags: W
HStem: 117 328<486.75 655.647> 524 240<280 1001> 845 328<640.75 810.193>
LayerCount: 2
Fore
SplineSet
280 764 m 1
 1052 764 l 1
 1001 524 l 1
 229 524 l 1
 280 764 l 1
561 1009 m 0
 580 1100 670 1173 760 1173 c 0
 839 1173 893 1118 893 1044 c 0
 893 1033 892 1021 889 1009 c 0
 870 919 782 845 691 845 c 0
 613 845 558 901 558 975 c 0
 558 986 559 997 561 1009 c 0
407 281 m 0
 426 372 516 445 606 445 c 0
 685 445 738 390 738 316 c 0
 738 305 738 293 735 281 c 0
 716 191 627 117 536 117 c 0
 458 117 403 173 403 247 c 0
 403 258 405 269 407 281 c 0
EndSplineSet
EndChar

StartChar: oslash
Encoding: 248 248 79
Width: 1044
Flags: W
HStem: -29 230<547.957 715.128> 870 230<645.906 839.694>
VStem: 189 268<340.5 633.177> 900 266<438.785 730>
LayerCount: 2
Back
SplineSet
53.248 -28.6719 m 29
 798.72 1101.82 l 25
 1060.86 1097.73 l 25
 339.968 -28.6719 l 25
 53.248 -28.6719 l 29
92.1602 536.576 m 0
 92.1602 862.404 288.516 1099.78 565.248 1099.78 c 0
 840.669 1099.78 1036.29 862.404 1036.29 536.576 c 0
 1036.29 212.042 840.669 -28.6719 565.248 -28.6719 c 1
 288.516 -28.6719 92.1602 212.042 92.1602 536.576 c 0
352.256 536.576 m 0
 352.256 375.544 446.976 200.704 565.248 200.704 c 0
 690.08 200.704 776.192 375.544 776.192 536.576 c 0
 776.192 697.87 682.111 870.4 565.248 870.4 c 0
 446.976 870.4 352.256 697.87 352.256 536.576 c 0
EndSplineSet
Fore
SplineSet
899 635 m 1
 547 221 l 1
 560 208 584 201 608 201 c 0
 729 201 855 371 889 532 c 0
 893 552 900 584 900 615 c 0
 900 622 900 628 899 635 c 1
814 850 m 1
 801 860 785 870 763 870 c 0
 619 870 499 692 465 532 c 0
 461 515 457 485 457 462 c 0
 457 454 458 447 459 442 c 1
 814 850 l 1
47 -29 m 1
 228 178 l 1
 204 226 189 299 189 382 c 0
 189 430 194 481 205 532 c 1
 275 860 508 1100 812 1100 c 0
 866 1100 952 1079 989 1051 c 1
 1032 1102 l 1
 1295 1102 l 1
 1125 899 l 1
 1151 844 1166 771 1166 689 c 0
 1166 639 1161 586 1149 532 c 0
 1080 208 830 -29 563 -29 c 1
 502 -29 417 -14 375 18 c 1
 334 -29 l 1
 47 -29 l 1
EndSplineSet
EndChar

StartChar: ucircumflex
Encoding: 251 251 80
Width: 1024
Flags: W
HStem: -29 235<350 598.113> 0 21G<745 1007.25> 1053 20G<331.762 594 967.746 1231>
VStem: 192 269<238.576 602.688>
LayerCount: 2
Fore
SplineSet
1003 0 m 2x70
 745 0 l 2x70
 779 161 l 17
 700 57 559 -29 422 -29 c 0
 278 -29 192 75 192 287 c 0
 192 358 202 440 222 535 c 1
 336 1073 l 1
 594 1073 l 0
 480 536 l 2
 467 474 461 423 461 381 c 0
 461 239 528 206 590 206 c 0xb0
 670 206 800 263 858 537 c 2
 972 1073 l 9
 1231 1073 l 1
 1003 0 l 2x70
1211 1175 m 1
 940 1175 l 1
 842 1336 l 1
 684 1178 l 0
 407 1178 l 1
 764 1519 l 1
 1000 1519 l 1
 1211 1175 l 1
EndSplineSet
EndChar

StartChar: udieresis
Encoding: 252 252 81
Width: 1024
Flags: W
HStem: -29 235<350 598.113> 0 21G<745 1007.25> 1053 20G<331.762 594 967.746 1231> 1159 328<515.386 688.998 986.386 1160>
VStem: 192 269<238.576 602.688> 434 336<1239.02 1406.6> 905 336<1239.02 1406.6>
LayerCount: 2
Fore
SplineSet
1003 0 m 2x7a
 745 0 l 2x7a
 779 161 l 17
 700 57 559 -29 422 -29 c 0
 278 -29 192 75 192 287 c 0
 192 358 202 440 222 535 c 1
 336 1073 l 1
 594 1073 l 0
 480 536 l 2
 467 474 461 423 461 381 c 0
 461 239 528 206 590 206 c 0xba
 670 206 800 263 858 537 c 2
 972 1073 l 9
 1231 1073 l 1
 1003 0 l 2x7a
438 1323 m 0
 448 1368 472 1407 511 1439 c 0
 550 1471 592 1487 637 1487 c 0
 682 1487 718 1471 743 1439 c 0
 761 1416 770 1389 770 1359 c 0
 770 1348 769 1335 766 1323 c 0
 756 1278 733 1239 694 1207 c 0
 655 1175 612 1159 567 1159 c 0
 522 1159 487 1176 462 1208 c 0
 444 1231 434 1258 434 1288 c 0x36
 434 1299 435 1311 438 1323 c 0
909 1323 m 0
 919 1368 943 1407 982 1439 c 0
 1021 1471 1063 1487 1108 1487 c 0
 1153 1487 1189 1471 1214 1439 c 0
 1232 1416 1241 1389 1241 1359 c 0
 1241 1348 1240 1335 1237 1323 c 0
 1227 1278 1204 1239 1165 1207 c 0
 1126 1175 1083 1159 1038 1159 c 0
 993 1159 958 1176 933 1208 c 0
 915 1231 905 1258 905 1288 c 0
 905 1299 906 1311 909 1323 c 0
EndSplineSet
EndChar

StartChar: yacute
Encoding: 253 253 82
Width: 983
Flags: W
HStem: -465 232<361.268 637.64> -29 235<350 598.113> 1053 20G<331.762 594 967.746 1231>
VStem: 192 269<238.576 602.688>
LayerCount: 2
Fore
SplineSet
822 1183 m 2
 817 1180 813 1178 808 1178 c 0
 805 1178 803 1179 799 1180 c 0
 789 1183 778 1189 767 1200 c 0
 756 1211 749 1221 743 1231 c 256
 737 1241 733 1256 731 1276 c 0
 730 1289 730 1300 732 1310 c 0
 733 1315 736 1320 738 1325 c 0
 740 1330 743 1335 748 1338 c 2
 1083 1585 l 1
 1092 1592 1103 1595 1114 1595 c 0
 1120 1595 1125 1594 1132 1592 c 0
 1145 1588 1159 1581 1171 1571 c 0
 1183 1561 1192 1549 1199 1538 c 1
 1207 1525 1212 1508 1212 1486 c 0
 1212 1474 1211 1463 1209 1452 c 0
 1207 1443 1204 1434 1200 1426 c 0
 1194 1413 1186 1403 1176 1396 c 2
 822 1183 l 2
997 -29 m 2
 951 -246 671 -465 456 -465 c 1
 245 -465 124 -348 92 -224 c 1
 320 -112 l 0
 329 -182 390 -233 499 -233 c 0
 608 -233 709 -168 732 -59 c 1
 779 161 l 17
 700 57 559 -29 422 -29 c 0
 278 -29 192 75 192 287 c 0
 192 358 202 440 222 535 c 1
 336 1073 l 1
 594 1073 l 0
 480 536 l 2
 467 474 461 423 461 381 c 0
 461 239 528 206 590 206 c 0
 670 206 800 263 858 537 c 2
 972 1073 l 9
 1231 1073 l 1
 1009 29 l 1
 997 -29 l 2
EndSplineSet
EndChar

StartChar: thorn
Encoding: 254 254 83
Width: 1093
Flags: W
HStem: 0 21G<119 387.5> 117 229<554.551 726.899> 1102 229<755.466 985.5> 1434 20G<423.75 686>
VStem: 927 264<650.072 1038.27>
LayerCount: 2
Back
SplineSet
270.336 0 m 17
 118.784 0 l 1
 118.784 1454.08 l 1
 270.336 1454.08 l 1
 270.336 1112.06 l 17
 335.872 1206.27 405.504 1284.1 550.912 1284.1 c 0
 802.816 1284.1 923.648 1015.81 923.648 733.184 c 0
 923.648 450.56 835.584 163.84 512 163.84 c 1
 348.16 163.84 270.336 311.296 270.336 311.296 c 0
 270.336 311.296 270.336 121.406 270.336 0 c 17
772.096 729.088 m 0
 772.096 962.561 688.128 1148.93 561.152 1148.93 c 1
 421.888 1148.93 266.24 987.136 266.24 729.088 c 1
 266.24 438.272 409.6 299.008 522.24 299.008 c 0
 671.744 299.008 772.096 454.656 772.096 729.088 c 0
EndSplineSet
Fore
SplineSet
377 0 m 17
 119 0 l 1
 428 1454 l 1
 686 1454 l 1
 623 1159 l 17
 669 1229 783 1331 879 1331 c 0
 1092 1331 1191 1150 1191 923 c 0
 1191 864 1184 802 1171 739 c 0
 1105 430 928 117 595 117 c 1
 493 117 441 227 432 258 c 1
 432 258 398 101 377 0 c 17
915 750 m 0
 923 788 927 825 927 859 c 0
 927 1000 865 1102 801 1102 c 1
 699 1102 568 935 529 751 c 1
 515 685 508 627 508 576 c 0
 508 429 561 346 631 346 c 0
 725 346 860 492 915 750 c 0
EndSplineSet
EndChar

StartChar: ydieresis
Encoding: 255 255 84
Width: 983
Flags: W
HStem: -465 232<361.268 637.64> -29 235<350 598.113> 1053 20G<331.762 594 967.746 1231> 1159 328<499.386 672.998 970.386 1144>
VStem: 192 269<238.576 602.688> 418 336<1239.02 1406.6> 889 336<1239.02 1406.6>
LayerCount: 2
Fore
SplineSet
997 -29 m 2xfa
 951 -246 671 -465 456 -465 c 1
 245 -465 124 -348 92 -224 c 1
 320 -112 l 0
 329 -182 390 -233 499 -233 c 0
 608 -233 709 -168 732 -59 c 1
 779 161 l 17
 700 57 559 -29 422 -29 c 0
 278 -29 192 75 192 287 c 0
 192 358 202 440 222 535 c 1
 336 1073 l 1
 594 1073 l 0
 480 536 l 2
 467 474 461 423 461 381 c 0
 461 239 528 206 590 206 c 0
 670 206 800 263 858 537 c 2
 972 1073 l 9
 1231 1073 l 1
 1009 29 l 1
 997 -29 l 2xfa
422 1323 m 0
 432 1368 456 1407 495 1439 c 0
 534 1471 576 1487 621 1487 c 0
 666 1487 702 1471 727 1439 c 0
 745 1416 754 1389 754 1359 c 0
 754 1348 753 1335 750 1323 c 0
 740 1278 717 1239 678 1207 c 0
 639 1175 596 1159 551 1159 c 0
 506 1159 471 1176 446 1208 c 0
 428 1231 418 1258 418 1288 c 0xf6
 418 1299 419 1311 422 1323 c 0
893 1323 m 0
 903 1368 927 1407 966 1439 c 0
 1005 1471 1047 1487 1092 1487 c 0
 1137 1487 1173 1471 1198 1439 c 0
 1216 1416 1225 1389 1225 1359 c 0
 1225 1348 1224 1335 1221 1323 c 0
 1211 1278 1188 1239 1149 1207 c 0
 1110 1175 1067 1159 1022 1159 c 0
 977 1159 942 1176 917 1208 c 0
 899 1231 889 1258 889 1288 c 0
 889 1299 890 1311 893 1323 c 0
EndSplineSet
EndChar

StartChar: quotedblbase
Encoding: 8222 8222 85
Width: 770
Flags: W
HStem: -190 503
LayerCount: 2
Fore
SplineSet
773 152 m 1
 738 -12 576 -154 522 -190 c 1
 457 -147 l 1
 470 -131 521 -59 528 -25 c 0
 529 -21 528 -17 528 -14 c 1
 484 -3 442 35 442 106 c 0
 442 120 443 136 447 152 c 1
 464 230 555 313 641 313 c 1
 739 313 777 247 777 184 c 0
 777 173 775 162 773 152 c 1
395 154 m 1
 360 -10 197 -152 143 -188 c 1
 78 -145 l 1
 91 -129 142 -57 149 -23 c 0
 150 -19 149 -15 149 -12 c 1
 105 -1 64 37 64 108 c 0
 64 122 65 138 69 154 c 1
 86 232 176 315 262 315 c 1
 360 315 398 249 398 186 c 0
 398 175 397 164 395 154 c 1
EndSplineSet
EndChar

StartChar: uni201F
Encoding: 8223 8223 86
Width: 770
Flags: W
HStem: 1278 327<506.826 595.807 886.802 972.42>
VStem: 330 176<1200.02 1387> 709 176<1202.02 1389>
LayerCount: 2
Fore
SplineSet
716 1446 m 1
 731 1516 803 1607 918 1607 c 1
 994 1607 1045 1543 1045 1474 c 0
 1045 1465 1044 1455 1042 1446 c 1
 1021 1345 949 1293 891 1280 c 1
 889 1277 888 1273 887 1269 c 0
 886 1264 885 1258 885 1251 c 0
 885 1214 900 1161 906 1147 c 1
 823 1104 l 1
 790 1135 709 1244 709 1378 c 0
 709 1400 711 1423 716 1446 c 1
337 1444 m 1
 352 1514 423 1605 538 1605 c 1
 614 1605 666 1541 666 1472 c 0
 666 1463 665 1453 663 1444 c 1
 642 1343 570 1291 512 1278 c 1
 510 1275 508 1271 507 1267 c 0
 506 1262 506 1256 506 1249 c 0
 506 1212 520 1159 526 1145 c 1
 443 1102 l 1
 410 1133 330 1242 330 1376 c 0
 330 1398 332 1421 337 1444 c 1
EndSplineSet
EndChar

StartChar: Euro
Encoding: 8364 8364 87
Width: 1226
Flags: W
HStem: 164 229<677.606 984.35> 481 166<263 378 657 907> 760 166<328 423 739 973> 1053 229<816.167 1088.01>
VStem: 399 258<647 759.806>
LayerCount: 2
Back
SplineSet
259.896 761.856 m 1
 131.072 761.856 l 1
 131.072 897.024 l 1
 283.875 897.024 l 1
 334.093 1068.98 455.209 1196.03 626.688 1196.03 c 0
 786.432 1196.03 847.872 1155.07 942.08 1062.91 c 9
 845.824 966.656 l 2
 788.48 1024 745.472 1060.86 626.688 1060.86 c 1
 542.262 1060.86 478.305 987.761 440.492 897.024 c 1
 710.656 897.024 l 1
 710.656 761.856 l 1
 404.933 761.856 l 1
 402.598 742.933 401.408 724.355 401.408 706.561 c 0
 401.408 685.201 402.559 664.713 404.72 645.12 c 1
 704.512 645.12 l 1
 704.512 509.952 l 1
 439.923 509.952 l 1
 486.666 403.348 566.669 346.112 626.688 346.112 c 0
 712.704 346.112 763.904 362.496 849.92 456.704 c 9
 946.176 360.448 l 1
 878.592 282.624 817.152 210.944 626.688 210.944 c 1
 441.516 210.944 330.388 340.519 283.775 509.952 c 1
 124.928 509.952 l 1
 124.928 645.12 l 1
 260.602 645.12 l 1
 258.894 666.777 258.048 688.671 258.048 710.656 c 0
 258.048 727.88 258.669 744.966 259.896 761.856 c 1
EndSplineSet
Fore
SplineSet
423 760 m 1
 293 760 l 1
 328 926 l 1
 478 926 l 1
 532 1027 608 1112 703 1180 c 0
 798 1248 896 1282 999 1282 c 0
 1070 1282 1133 1267 1185 1236 c 0
 1237 1205 1282 1154 1322 1083 c 1
 1138 950 l 1
 1098 1019 1035 1053 951 1053 c 0
 914 1053 873 1040 827 1015 c 0
 781 990 751 960 739 926 c 1
 1008 926 l 1
 973 760 l 1
 682 760 l 1
 677 756 671 743 667 722 c 1
 657 647 l 1
 943 647 l 1
 907 481 l 1
 645 481 l 1
 650 456 672 435 710 418 c 0
 748 401 782 393 811 393 c 0
 846 393 871 394 887 396 c 0
 903 398 923 404 946 415 c 0
 969 426 994 443 1021 467 c 1
 1167 334 l 1
 1139 307 1115 284 1092 267 c 0
 1069 250 1043 232 1010 215 c 0
 977 198 940 184 899 176 c 0
 858 168 813 164 762 164 c 0
 651 164 559 194 488 256 c 0
 417 318 381 393 378 481 c 1
 227 481 l 1
 263 647 l 1
 399 647 l 1
 403 676 407 702 412 725 c 0
 416 744 420 756 423 760 c 1
EndSplineSet
EndChar

StartChar: A
Encoding: 65 65 88
Width: 1421
Flags: W
HStem: 0 21G<20 342.361 1063.12 1377> 382 239<658 1005> 1436 20G<840.571 1165.94>
LayerCount: 2
Back
SplineSet
651.264 1255.42 m 5
 452.608 620.544 l 5
 851.968 620.544 l 5
 651.264 1255.42 l 5
897.024 505.856 m 5
 399.36 505.856 l 4
 227.328 0 l 4
 61.4404 0 l 5
 585.729 1456.13 l 4
 585.729 1456.13 663.184 1456.13 712.704 1456.13 c 21
 1236.99 0 l 5
 1067.01 0 l 5
 897.024 505.856 l 5
EndSplineSet
Fore
SplineSet
939 1124 m 0
 658 621 l 1
 1005 621 l 1
 939 1124 l 0
1163 1456 m 1
 1377 0 l 1
 1066 0 l 0
 1011 382 l 1
 857 382 702 382 548 382 c 1
 331 0 l 0
 20 0 l 1
 852 1456 l 1
 1163 1456 l 1
EndSplineSet
EndChar

StartChar: B
Encoding: 66 66 89
Width: 1222
Flags: HMW
LayerCount: 2
Back
SplineSet
276.48 706.561 m 1xf4
 276.48 141.312 l 1
 595.968 141.312 l 1
 888.832 141.312 927.744 299.008 927.744 430.08 c 0
 927.744 563.2 835.584 704.512 595.968 704.512 c 1
 569.344 704.512 309.248 706.561 276.48 706.561 c 1xf4
276.48 1316.86 m 1
 276.48 845.824 l 1
 315.392 845.824 481.28 843.776 514.048 843.776 c 1
 837.632 843.776 847.872 1007.62 847.872 1085.44 c 1xf8
 847.872 1173.5 817.152 1314.82 493.568 1314.82 c 1
 462.848 1314.82 313.344 1316.86 276.48 1316.86 c 1
118.784 1456.13 m 1
 493.568 1456.13 l 1
 933.888 1456.13 1007.62 1241.09 1007.62 1085.44 c 1xf8
 1007.62 921.6 862.208 782.336 753.664 782.336 c 1
 999.424 782.336 1083.39 542.72 1083.39 423.936 c 1xf4
 1083.39 286.72 1040.38 0 595.968 0 c 1
 118.784 0 l 1
 118.784 1456.13 l 1
EndSplineSet
Fore
SplineSet
519 638 m 1
 434 240 l 1
 661 240 l 1
 884 240 962 334 984 439 c 0
 988 456 990 472 990 488 c 0
 990 572 934 638 746 638 c 1
 519 638 l 1
641 1216 m 1
 570 878 l 1
 738 878 l 1
 939 878 1012 966 1029 1045 c 1
 1031 1056 1033 1068 1033 1079 c 0
 1033 1148 982 1216 809 1216 c 1
 785 1216 670 1216 641 1216 c 1
424 1456 m 1
 860 1456 l 1
 1229 1456 1312 1295 1312 1155 c 0
 1312 1125 1308 1096 1302 1070 c 1
 1269 916 1158 833 1035 797 c 1
 1199 755 1258 612 1258 499 c 0
 1258 478 1256 457 1252 439 c 1
 1219 285 1086 0 640 0 c 1
 115 0 l 1
 424 1456 l 1
EndSplineSet
EndChar

StartChar: C
Encoding: 67 67 90
Width: 1409
Flags: W
HStem: -29 240<615.557 910.653> 1245 240<818.472 1106.15>
VStem: 231 283<320.75 807.326> 1208 297<969 1136.27>
LayerCount: 2
Back
SplineSet
1047 726 m 4
 1047 483 970 211 715 211 c 5
 461 211 383 483 383 726 c 5
 383 973 461 1245 715 1245 c 5
 970 1245 1047 973 1047 726 c 4
100 726 m 5
 100 389 266 -29 715 -29 c 5
 1165 -29 1329 389 1329 726 c 5
 1329 1067 1165 1485 715 1485 c 5
 266 1485 100 1067 100 726 c 5
EndSplineSet
Fore
SplineSet
1208 969 m 0
 1208 1095 1138 1245 980 1245 c 1
 726 1245 590 973 537 726 c 1
 523 659 514 591 514 526 c 0
 514 355 576 211 760 211 c 1
 918 211 1051 357 1105 483 c 0
 1399 483 l 0
 1321 251 1056 -29 709 -29 c 1
 353 -29 231 233 231 509 c 0
 231 582 239 656 254 726 c 1
 326 1067 582 1485 1031 1485 c 1
 1359 1485 1505 1232 1505 1010 c 0
 1505 996 1504 982 1503 969 c 0
 1208 969 l 0
EndSplineSet
EndChar

StartChar: D
Encoding: 68 68 91
Width: 1273
Flags: W
HStem: 0 240<434 748.631> 1217 239<642 947.533>
VStem: 1088 288<670.298 1073.18>
LayerCount: 2
Back
SplineSet
980.992 727.04 m 1
 980.992 1075.2 796.672 1314.82 538.624 1314.82 c 1
 272.384 1314.82 l 1
 272.384 141.312 l 1
 538.624 141.312 l 1
 796.672 141.312 980.992 380.928 980.992 727.04 c 1
1146.88 727.04 m 1
 1146.88 319.488 899.072 0 538.624 0 c 1
 114.688 0 l 1
 114.688 1456.13 l 1
 538.624 1456.13 l 1
 905.216 1456.13 1146.88 1136.64 1146.88 727.04 c 1
EndSplineSet
Fore
SplineSet
1073 752 m 1
 1083 799 1088 843 1088 885 c 0
 1088 1083 979 1217 781 1217 c 1
 642 1217 l 1
 434 240 l 1
 573 240 l 1
 813 240 1007 442 1073 752 c 1
1356 752 m 1
 1265 323 946 0 582 0 c 1
 115 0 l 1
 424 1456 l 1
 891 1456 l 1
 1201 1456 1376 1235 1376 935 c 0
 1376 877 1369 815 1356 752 c 1
EndSplineSet
EndChar

StartChar: E
Encoding: 69 69 92
Width: 1211
Flags: W
HStem: 0 240<434 1097> 626 240<567 1167> 1216 240<641 1355>
LayerCount: 2
Back
SplineSet
114.688 1456.13 m 0
 1036.29 1456.13 l 1
 1036.29 1314.82 l 0
 272.384 1314.82 l 0
 272.384 817.152 l 1
 993.28 817.152 l 1
 993.28 675.84 l 0
 272.384 675.84 l 0
 272.384 141.312 l 0
 1036.29 141.312 l 0
 1036.29 0 l 0
 114.688 0 l 1
 114.688 1456.13 l 0
EndSplineSet
Fore
SplineSet
424 1456 m 0
 1406 1456 l 1
 1355 1216 l 0
 641 1216 l 0
 567 866 l 1
 1218 866 l 1
 1167 626 l 0
 516 626 l 0
 434 240 l 0
 1148 240 l 0
 1097 0 l 0
 115 0 l 1
 424 1456 l 0
EndSplineSet
EndChar

StartChar: F
Encoding: 70 70 93
Width: 1191
Flags: HMW
LayerCount: 2
Back
SplineSet
114.688 1456.13 m 1
 1036.29 1456.13 l 1
 1036.29 1314.82 l 25
 272.384 1314.82 l 25
 272.384 817.152 l 1
 993.28 817.152 l 1
 993.28 675.84 l 25
 272.384 675.84 l 1
 272.384 0 l 1
 114.688 0 l 1
 114.688 1456.13 l 1
EndSplineSet
Fore
SplineSet
424 1456 m 1
 1406 1456 l 1
 1356 1217 l 25
 642 1217 l 25
 567 866 l 1
 1218 866 l 1
 1167 627 l 25
 516 627 l 1
 383 0 l 1
 115 0 l 1
 424 1456 l 1
EndSplineSet
EndChar

StartChar: G
Encoding: 71 71 94
Width: 1421
Flags: W
HStem: -27 238<625.703 930.482> 567 240<879 1131> 1257 240<831.373 1090.84>
VStem: 226 288<348.322 831.753>
LayerCount: 2
Back
SplineSet
690.176 -28.6719 m 0
 251.904 -28.6719 90.1123 389.12 90.1123 731.136 c 1
 90.1123 1071.1 251.904 1495.04 692.224 1495.04 c 0
 915.456 1495.04 1036.29 1400.83 1126.4 1259.52 c 9
 999.424 1191.94 l 2
 937.984 1275.9 811.008 1353.73 692.224 1353.73 c 1
 393.216 1353.73 256 1003.52 256 731.136 c 1
 256 456.704 393.216 110.592 690.176 110.592 c 0
 1003.52 110.592 1067.01 430.08 1067.01 616.448 c 1
 681.984 616.448 l 1
 681.984 757.76 l 1
 1230.85 757.76 l 1
 1230.85 671.744 l 1
 1230.85 356.352 1097.73 -28.6719 690.176 -28.6719 c 0
EndSplineSet
Fore
SplineSet
707 -27 m 0
 350 -27 226 234 226 522 c 0
 226 602 235 683 252 762 c 1
 324 1100 576 1497 1033 1497 c 0
 1236 1497 1397 1386 1439 1200 c 9
 1163 1114 l 17
 1158 1188 1041 1257 982 1257 c 1
 747 1257 583 989 535 762 c 1
 522 699 514 634 514 571 c 0
 514 379 583 211 758 211 c 0
 1005 211 1101 428 1131 567 c 1
 828 567 l 1
 879 807 l 1
 1460 807 l 1
 1428 661 l 1
 1360 341 1140 -27 707 -27 c 0
EndSplineSet
EndChar

StartChar: H
Encoding: 72 72 95
Width: 1253
Flags: W
HStem: 0 21G<115 387.263 868 1142.24> 624 240<567 1001> 1436 20G<419.755 692 1172.78 1447>
LayerCount: 2
Back
SplineSet
114.688 1456.13 m 0
 272.384 1456.13 l 1
 272.384 815.104 l 1
 933.888 815.104 l 1
 933.888 1456.13 l 1
 1091.58 1456.13 l 1
 1091.58 0 l 1
 933.888 0 l 1
 933.888 673.792 l 0
 272.384 673.792 l 1
 272.384 0 l 1
 114.688 0 l 1
 114.688 1456.13 l 0
EndSplineSet
Fore
SplineSet
424 1456 m 0
 692 1456 l 1
 567 864 l 1
 1052 864 l 1
 1177 1456 l 1
 1447 1456 l 1
 1138 0 l 1
 868 0 l 1
 1001 624 l 0
 516 624 l 1
 383 0 l 1
 115 0 l 1
 424 1456 l 0
EndSplineSet
EndChar

StartChar: I
Encoding: 73 73 96
Width: 555
Flags: W
HStem: 0 21G<143 415.245> 1436 20G<447.755 720>
VStem: 143 577
LayerCount: 2
Back
SplineSet
143.36 0 m 1
 143.36 1456.13 l 1
 301.056 1456.13 l 1
 301.056 0 l 1
 143.36 0 l 1
EndSplineSet
Fore
SplineSet
143 0 m 1
 452 1456 l 1
 720 1456 l 1
 411 0 l 1
 143 0 l 1
EndSplineSet
EndChar

StartChar: J
Encoding: 74 74 97
Width: 1243
Flags: W
HStem: -35 240<532.451 801.014> 1436 20G<1164.77 1437>
VStem: 203 272<261.753 583.024>
LayerCount: 2
Back
SplineSet
102.4 534.528 m 0
 243.712 534.528 l 1
 243.712 337.92 364.544 129.024 555.008 129.024 c 1
 747.521 129.024 860.16 333.824 860.16 534.528 c 2
 860.16 1456.13 l 1
 1017.86 1456.13 l 1
 1017.86 534.528 l 2
 1017.86 208.896 829.44 -20.4805 555.008 -20.4805 c 1
 282.624 -20.4805 102.4 221.184 102.4 534.528 c 0
EndSplineSet
Fore
SplineSet
227 586 m 0
 495 586 l 1
 483 531 475 474 475 421 c 0
 475 302 517 205 660 205 c 1
 853 205 946 404 985 586 c 2
 1169 1456 l 1
 1437 1456 l 1
 1253 586 l 2
 1176 222 949 -35 609 -35 c 1
 324 -35 203 136 203 382 c 0
 203 445 212 514 227 586 c 0
EndSplineSet
EndChar

StartChar: K
Encoding: 75 75 98
Width: 1333
Flags: W
HStem: 0 21G<115 387.234 943.777 1290> 1436 20G<419.755 692 1213.33 1570>
LayerCount: 2
Back
SplineSet
114.688 1456.13 m 0
 272.384 1456.13 l 1
 272.384 747.52 l 1
 980.992 1456.13 l 1
 1167.36 1456.13 l 1
 487.424 753.664 l 1
 1200.13 0 l 1
 1005.57 0 l 1
 376.832 657.408 l 1
 272.384 550.912 l 1
 272.384 0 l 1
 114.688 0 l 1
 114.688 1456.13 l 0
EndSplineSet
Fore
SplineSet
424 1456 m 0
 692 1456 l 1
 560 833 l 1
 1235 1456 l 1
 1570 1456 l 1
 877 808 l 1
 1290 0 l 1
 954 0 l 1
 633 628 l 1
 488 496 l 1
 383 0 l 1
 115 0 l 1
 424 1456 l 0
EndSplineSet
EndChar

StartChar: L
Encoding: 76 76 99
Width: 1170
Flags: W
HStem: 0 240<434 1099> 1436 20G<419.755 692>
LayerCount: 2
Back
SplineSet
114.688 1456.13 m 1
 272.384 1456.13 l 1
 272.384 141.312 l 1
 1038.34 141.312 l 1
 1038.34 0 l 1
 114.688 0 l 1
 114.688 1456.13 l 1
EndSplineSet
Fore
SplineSet
424 1456 m 1
 692 1456 l 1
 434 240 l 1
 1150 240 l 1
 1099 0 l 1
 115 0 l 1
 424 1456 l 1
EndSplineSet
EndChar

StartChar: M
Encoding: 77 77 100
Width: 1655
Flags: W
HStem: 0 21G<115 387.241 687.859 970.728 1272 1544.24> 1436 20G<419.755 786.539 1478.86 1849>
LayerCount: 2
Back
SplineSet
65.5361 0 m 1
 65.5361 1456.13 l 2
 280.576 1456.13 l 1
 739.328 208.896 l 2
 1200.13 1456.13 l 1
 1406.98 1456.13 l 1
 1406.98 0 l 1
 1253.38 0 l 25
 1253.38 1204.22 l 1
 825.344 16.3838 l 0
 647.168 16.3838 l 1
 219.136 1204.22 l 0
 219.136 0 l 1
 65.5361 0 l 1
EndSplineSet
Fore
SplineSet
115 0 m 1
 424 1456 l 2
 784 1456 l 1
 915 424 l 2
 1490 1456 l 1
 1849 1456 l 1
 1540 0 l 1
 1272 0 l 25
 1476 962 l 1
 960 0 l 0
 690 0 l 1
 587 962 l 0
 383 0 l 1
 115 0 l 1
EndSplineSet
EndChar

StartChar: N
Encoding: 78 78 101
Width: 1331
Flags: W
HStem: 0 21G<115 387.255 944.559 1220.24> 1436 20G<419.755 691.957 1252.77 1525>
LayerCount: 2
Back
SplineSet
118.784 0 m 1
 118.784 1456.13 l 2
 272.384 1456.13 l 1
 1011.71 294.912 l 25
 1011.71 1456.13 l 1
 1169.41 1456.13 l 1
 1169.41 0 l 0
 1024 0 l 1
 276.48 1189.89 l 0
 276.48 0 l 1
 118.784 0 l 1
EndSplineSet
Fore
SplineSet
115 0 m 1
 424 1456 l 2
 684 1456 l 1
 1058 516 l 25
 1257 1456 l 1
 1525 1456 l 1
 1216 0 l 0
 952 0 l 1
 590 973 l 0
 383 0 l 1
 115 0 l 1
EndSplineSet
EndChar

StartChar: O
Encoding: 79 79 102
Width: 1409
Flags: W
HStem: -29 240<615.557 921.717> 1245 240<818.472 1124.18>
VStem: 231 283<320.75 807.326> 1225 282<645.695 1136.37>
LayerCount: 2
Back
SplineSet
1103.87 724.992 m 0
 1103.87 995.328 1007.62 1353.73 684.032 1353.73 c 0
 362.496 1353.73 266.24 995.328 266.24 724.992 c 1
 266.24 456.704 364.544 110.592 684.032 110.592 c 1
 1005.57 110.592 1103.87 456.704 1103.87 724.992 c 0
100.352 724.992 m 1
 100.352 1046.53 256 1495.04 684.032 1495.04 c 1
 1114.11 1495.04 1269.76 1046.53 1269.76 724.992 c 1
 1269.76 405.504 1112.06 -30.7197 684.032 -30.7197 c 1
 258.048 -30.7197 100.352 405.504 100.352 724.992 c 1
EndSplineSet
Fore
SplineSet
1201 726 m 0
 1216 795 1225 865 1225 931 c 0
 1225 1103 1164 1245 980 1245 c 1
 726 1245 590 973 537 726 c 1
 523 659 514 591 514 526 c 0
 514 355 576 211 760 211 c 1
 1015 211 1149 483 1201 726 c 0
254 726 m 1
 326 1067 582 1485 1031 1485 c 1
 1386 1485 1507 1225 1507 948 c 0
 1507 874 1498 798 1483 726 c 1
 1411 389 1159 -29 709 -29 c 1
 353 -29 231 233 231 509 c 0
 231 582 239 656 254 726 c 1
EndSplineSet
EndChar

StartChar: P
Encoding: 80 80 103
Width: 1194
Flags: W
HStem: 0 21G<115 387.247> 584 240<558 937.898> 1216 240<641 992.945>
VStem: 1052 280<929.145 1162.7>
LayerCount: 2
Back
SplineSet
278.528 774.145 m 1
 423.936 774.145 l 1
 751.616 774.145 870.4 874.496 870.4 1046.53 c 1
 870.4 1216.51 751.616 1314.82 423.936 1314.82 c 1
 278.528 1314.82 l 1
 278.528 774.145 l 1
120.832 1456.13 m 0
 278.528 1456.13 l 1
 423.936 1456.13 l 1
 798.72 1456.13 1032.19 1302.53 1032.19 1046.53 c 0
 1032.19 794.624 798.72 630.784 423.936 630.784 c 1
 278.528 630.784 l 1
 278.528 0 l 1
 120.832 0 l 1
 120.832 1456.13 l 0
EndSplineSet
Fore
SplineSet
558 824 m 1
 629 824 l 0
 867 824 1009 845 1046 1020 c 0
 1050 1040 1052 1057 1052 1073 c 0
 1052 1199 923 1216 712 1216 c 0
 641 1216 l 1
 558 824 l 1
424 1456 m 0
 692 1456 l 2
 946 1456 1332 1451 1332 1128 c 0
 1332 1095 1328 1059 1320 1020 c 0
 1229 591 787 584 507 584 c 1
 383 0 l 1
 115 0 l 1
 424 1456 l 0
EndSplineSet
EndChar

StartChar: Q
Encoding: 81 81 104
Width: 1437
Flags: W
HStem: -35 242<624.705 896.152> -29 21G<1159.82 1200> 1255 240<817.081 1128.32>
VStem: 234 287<324.156 830.327> 1228 281<670 1144.51>
LayerCount: 2
Back
SplineSet
1046.53 753.664 m 4
 1046.53 980.853 972.04 1282.05 714.752 1282.05 c 4
 459.416 1282.05 382.976 980.853 382.976 753.664 c 5
 382.976 506.839 461.042 188.416 714.752 188.416 c 5
 970.412 188.416 1046.53 506.839 1046.53 753.664 c 4
100.352 753.664 m 5
 100.352 1074.34 264.192 1521.66 714.752 1521.66 c 5
 1167.39 1521.66 1329.15 1074.34 1329.15 753.664 c 5
 1329.15 412.53 1165.23 -53.248 714.752 -53.248 c 5
 266.349 -53.248 100.352 412.53 100.352 753.664 c 5
EndSplineSet
Fore
SplineSet
1207 754 m 1xb8
 1221 819 1228 882 1228 940 c 0
 1228 1121 1158 1255 986 1255 c 1
 734 1255 597 999 545 754 c 1
 531 687 521 611 521 538 c 0
 521 366 576 207 757 207 c 1
 780 207 856 211 898 244 c 1
 763 362 l 1
 952 559 l 1
 1082 428 l 1
 1128 489 1186 657 1207 754 c 1xb8
258 754 m 1
 321 1052 572 1495 1037 1495 c 1
 1381 1495 1509 1248 1509 970 c 0
 1509 899 1500 826 1485 754 c 1
 1435 520 1336 350 1255 260 c 1
 1370 161 l 1
 1180 -29 l 1x78
 1070 80 l 1
 982 14 849 -35 702 -35 c 1
 368 -35 234 233 234 529 c 0
 234 603 242 680 258 754 c 1
EndSplineSet
EndChar

StartChar: R
Encoding: 82 82 105
Width: 1224
Flags: W
HStem: -1 21G<115 387.227 845.31 1158> 580 244<558 656.383> 1216 239<641 992.945>
VStem: 1052 280<930.138 1161.34>
LayerCount: 2
Back
SplineSet
383 824 m 5
 663 824 829 828 829 1020 c 4
 829 1212 663 1216 383 1216 c 5
 383 824 l 5
115 1456 m 4
 383 1456 l 6
 663 1456 1102.68 1449.5 1102.68 1020 c 4
 1102.68 591 663 584 383 584 c 5
 383 0 l 5
 115 0 l 5
 115 1456 l 4
EndSplineSet
Fore
SplineSet
558 824 m 1
 629 824 l 0
 867 824 1009 845 1046 1019 c 0
 1050 1038 1052 1056 1052 1072 c 0
 1052 1198 923 1216 712 1216 c 0
 641 1216 l 1
 558 824 l 1
852 -1 m 1
 657 582 l 1
 644 581 621 580 597 580 c 0
 565 580 529 581 506 581 c 1
 383 -1 l 1
 115 -1 l 1
 424 1455 l 0
 692 1455 l 2
 946 1455 1332 1449 1332 1126 c 0
 1332 1093 1328 1058 1320 1019 c 0
 1277 818 1147 680 931 626 c 1
 1158 -1 l 1
 852 -1 l 1
EndSplineSet
EndChar

StartChar: S
Encoding: 83 83 106
Width: 1202
Flags: W
HStem: -29 242<528.76 833.226> 1251 241<717.031 1020.35>
VStem: 168 278<298.025 404> 357 281<982.543 1174.17> 943 281<317.19 552.633>
LayerCount: 2
Back
SplineSet
88.0645 290.816 m 5
 219.136 370.688 l 5
 309.248 231.424 405.504 110.592 600.064 110.592 c 5
 782.336 110.592 923.648 239.616 923.648 397.312 c 5
 923.648 548.864 776.192 649.216 532.48 712.704 c 4
 354.304 759.808 114.688 847.872 114.688 1095.68 c 5
 114.688 1347.58 342.016 1495.04 575.488 1495.04 c 5
 819.2 1495.04 933.888 1388.54 1028.1 1249.28 c 5
 907.264 1169.41 l 5
 847.872 1271.81 731.136 1353.73 571.392 1353.73 c 5
 417.792 1353.73 276.48 1267.71 276.48 1095.68 c 5
 276.48 913.408 509.952 868.352 643.072 823.296 c 4
 845.824 755.712 1085.44 665.6 1085.44 397.312 c 5
 1085.44 147.456 854.016 -30.7197 600.064 -30.7197 c 5
 380.928 -30.7197 221.184 81.9199 88.0645 290.816 c 5
EndSplineSet
Fore
SplineSet
169 404 m 1xe8
 446 447 l 1xe8
 451 328 507 213 665 213 c 1
 818 213 915 294 938 404 c 0
 941 420 943 434 943 448 c 0
 943 601 740 630 560 726 c 0
 457 781 357 851 357 1002 c 0
 357 1029 360 1058 367 1090 c 1
 425 1362 690 1492 937 1492 c 1
 1167 1492 1320 1356 1341 1186 c 1
 1057 1135 l 1
 1042 1206 996 1251 886 1251 c 1
 776 1251 667 1214 641 1090 c 0
 639 1082 638 1075 638 1068 c 0xd8
 638 944 871 890 990 828 c 0
 1122 759 1224 674 1224 509 c 0
 1224 477 1220 442 1212 404 c 1
 1155 134 894 -29 614 -29 c 1
 348 -29 168 130 168 372 c 0
 168 382 168 393 169 404 c 1xe8
EndSplineSet
EndChar

StartChar: T
Encoding: 84 84 107
Width: 1353
Flags: W
HStem: 0 21G<555 827.243> 1216 240<387 813 1081 1538>
LayerCount: 2
Back
SplineSet
77.8242 1456.13 m 0
 1169.41 1456.13 l 1
 1169.41 1314.82 l 0
 712.704 1314.82 l 1
 712.704 0 l 1
 555.008 0 l 1
 555.008 1314.82 l 1
 77.8242 1314.82 l 1
 77.8242 1456.13 l 0
EndSplineSet
Fore
SplineSet
387 1456 m 0
 1589 1456 l 1
 1538 1216 l 0
 1081 1216 l 1
 823 0 l 1
 555 0 l 1
 813 1216 l 1
 336 1216 l 1
 387 1456 l 0
EndSplineSet
EndChar

StartChar: U
Encoding: 85 85 108
Width: 1275
Flags: W
HStem: -35 240<555.472 824.074> 1436 20G<419.77 692 1196.77 1469>
VStem: 218 273<274.975 694.75>
LayerCount: 2
Back
SplineSet
625 -35 m 5
 966 -35 1138 222 1138 586 c 6
 1138 1456 l 5
 870 1456 l 5
 870 586 l 6
 870 404 819 205 625 205 c 5
 432 205 381 404 381 586 c 6
 381 1456 l 5
 113 1456 l 5
 113 586 l 6
 113 222 285 -35 625 -35 c 5
EndSplineSet
Fore
SplineSet
630 -35 m 1
 354 -35 218 135 218 393 c 0
 218 453 225 517 240 586 c 2
 424 1456 l 1
 692 1456 l 1
 508 586 l 2
 498 538 491 489 491 442 c 0
 491 313 539 205 681 205 c 1
 875 205 978 404 1017 586 c 2
 1201 1456 l 1
 1469 1456 l 1
 1285 586 l 2
 1208 222 971 -35 630 -35 c 1
EndSplineSet
EndChar

StartChar: V
Encoding: 86 86 109
Width: 1302
Flags: W
HStem: 0 21G<495.379 823.973> 1436 20G<379 669.397 1252.03 1540>
LayerCount: 2
Back
SplineSet
1011.71 1456.13 m 1
 1175.55 1456.13 l 1
 735.232 0 l 1
 516.096 0 l 1
 69.6318 1456.13 l 1
 239.616 1456.13 l 1
 624.64 167.936 l 1
 1011.71 1456.13 l 1
EndSplineSet
Fore
SplineSet
1262 1456 m 1
 1540 1456 l 1
 814 0 l 1
 497 0 l 1
 379 1456 l 1
 668 1456 l 1
 741 411 l 1
 1262 1456 l 1
EndSplineSet
EndChar

StartChar: W
Encoding: 87 87 110
Width: 1708
Flags: W
HStem: 0 21G<312 639.897 988 1315.51> 1436 20G<382.025 654 1577.13 1855>
VStem: 383 271<1275.29 1456> 1017 236<493.014 975>
LayerCount: 2
Back
SplineSet
73.7275 1456.13 m 1
 227.328 1456.13 l 1
 417.792 223.232 l 0
 702.464 1419.26 l 1
 876.544 1419.26 l 0
 1161.22 223.232 l 1
 1351.68 1456.13 l 25
 1505.28 1456.13 l 1
 1275.9 0 l 1
 1056.77 0 l 1
 790.528 1187.84 l 2
 524.288 0 l 1
 301.056 0 l 2
 73.7275 1456.13 l 1
EndSplineSet
Fore
SplineSet
383 1456 m 1
 654 1456 l 1
 578 498 l 0
 957 1429 l 1
 1271 1429 l 0
 1253 492 l 1
 1584 1456 l 25
 1855 1456 l 1
 1308 0 l 1
 988 0 l 1
 1017 975 l 2
 632 0 l 1
 312 0 l 2
 383 1456 l 1
EndSplineSet
EndChar

StartChar: X
Encoding: 88 88 111
Width: 1326
Flags: W
HStem: 0 21G<64 419.042 915.458 1262> 1435 20G<376 722.526 1212.97 1568> 1435 20G<376 722.526 1212.97 1568>
LayerCount: 2
Back
SplineSet
922 0 m 25
 67 1455 l 25
1262 0 m 25
 407 1455 l 25
404 0 m 25
 1259 1455 l 25
64 0 m 25
 919 1455 l 25
EndSplineSet
Fore
SplineSet
376 1455 m 0xc0
 716 1455 l 1
 871 980 l 1
 1228 1455 l 1
 1568 1455 l 1
 978 730 l 1
 1262 0 l 1
 922 0 l 1
 765 480 l 1
 404 0 l 1
 64 0 l 1
 658 730 l 1
 376 1455 l 0xc0
EndSplineSet
EndChar

StartChar: Y
Encoding: 89 89 112
Width: 1326
Flags: W
HStem: 0 21G<530 802.261> 1435 20G<376 722.526 1212.97 1568> 1435 20G<376 722.526 1212.97 1568>
LayerCount: 2
Back
SplineSet
65.5361 1456.13 m 1
 233.472 1456.13 l 1
 589.824 856.064 l 1
 946.176 1456.13 l 1
 1114.11 1456.13 l 1
 667.648 747.52 l 1
 667.648 0 l 1
 509.952 0 l 1
 509.952 747.52 l 1
 65.5361 1456.13 l 1
EndSplineSet
Fore
SplineSet
376 1455 m 0xc0
 716 1455 l 1
 871 980 l 1
 1228 1455 l 1
 1568 1455 l 1
 945 690 l 1
 798 0 l 1
 530 0 l 1
 677 690 l 1
 376 1455 l 0xc0
EndSplineSet
EndChar

StartChar: Z
Encoding: 90 90 113
Width: 1378
Flags: W
HStem: 0 240<579 1300> 1216 240<448 1110>
LayerCount: 2
Back
SplineSet
118.784 1456.13 m 1
 1222.66 1456.13 l 1
 358.4 141.312 l 1
 1234.94 141.312 l 1
 1234.94 0 l 1
 90.1123 0 l 1
 962.56 1314.82 l 1
 118.784 1314.82 l 1
 118.784 1456.13 l 1
EndSplineSet
Fore
SplineSet
448 1456 m 1
 1615 1456 l 1
 579 240 l 1
 1351 240 l 1
 1300 0 l 1
 72 0 l 1
 1110 1216 l 1
 397 1216 l 1
 448 1456 l 1
EndSplineSet
EndChar

StartChar: bracketleft
Encoding: 91 91 114
Width: 743
Flags: W
HStem: -98 237<405 602> 1292 240<650 898>
LayerCount: 2
Back
SplineSet
516.096 -96.2559 m 0
 120.832 -96.2559 l 1
 120.832 1529.86 l 0
 516.096 1529.86 l 1
 516.096 1388.54 l 1
 270.336 1388.54 l 1
 270.336 43.0078 l 1
 516.096 43.0078 l 1
 516.096 -96.2559 l 0
EndSplineSet
Fore
SplineSet
602 -98 m 0
 100 -98 l 1
 447 1532 l 0
 949 1532 l 1
 898 1292 l 1
 650 1292 l 1
 405 139 l 1
 653 139 l 1
 602 -98 l 0
EndSplineSet
EndChar

StartChar: backslash
Encoding: 92 92 115
Width: 856
Flags: W
HStem: 0 21G<581.163 895>
VStem: 289 606
LayerCount: 2
Back
SplineSet
679.936 0 m 1
 -38.9121 1544.19 l 1
 133.12 1544.19 l 0
 849.92 0 l 1
 679.936 0 l 1
EndSplineSet
Fore
SplineSet
585 0 m 1
 289 1543 l 1
 581 1543 l 0
 895 0 l 1
 585 0 l 1
EndSplineSet
EndChar

StartChar: bracketright
Encoding: 93 93 116
Width: 743
Flags: W
HStem: -98 239<149 395> 1292 240<445 640>
LayerCount: 2
Back
SplineSet
118.784 -96.2559 m 0
 118.784 45.0557 l 1
 364.544 45.0557 l 1
 364.544 1388.54 l 1
 118.784 1388.54 l 1
 118.784 1529.86 l 1
 514.048 1529.86 l 0
 514.048 -96.2559 l 1
 118.784 -96.2559 l 0
EndSplineSet
Fore
SplineSet
98 -98 m 0
 149 141 l 1
 395 141 l 1
 640 1292 l 1
 394 1292 l 1
 445 1532 l 1
 945 1532 l 0
 598 -98 l 1
 98 -98 l 0
EndSplineSet
EndChar

StartChar: asciicircum
Encoding: 94 94 117
Width: 1081
Flags: W
HStem: 1151 341<663 723>
LayerCount: 2
Back
SplineSet
811.008 1148.93 m 1
 622.592 1148.93 l 1
 466.944 1361.92 l 1
 309.248 1150.98 l 0
 122.88 1150.98 l 1
 399.36 1492.99 l 1
 530.432 1492.99 l 1
 811.008 1148.93 l 1
EndSplineSet
Fore
SplineSet
1170 1148 m 1
 899 1148 l 1
 801 1309 l 1
 644 1151 l 0
 367 1151 l 1
 723 1492 l 1
 959 1492 l 1
 1170 1148 l 1
EndSplineSet
EndChar

StartChar: underscore
Encoding: 95 95 118
Width: 1241
Flags: W
HStem: -281 240<69 1107>
LayerCount: 2
Back
SplineSet
77.8242 -231.424 m 1
 77.8242 -90.1123 l 1
 1167.36 -90.1123 l 1
 1167.36 -231.424 l 1
 77.8242 -231.424 l 1
EndSplineSet
Fore
SplineSet
18 -281 m 1
 69 -41 l 1
 1158 -41 l 1
 1107 -281 l 1
 18 -281 l 1
EndSplineSet
EndChar

StartChar: grave
Encoding: 96 96 119
Width: 536
Flags: W
HStem: 1528 417
VStem: 457 420
LayerCount: 2
Back
SplineSet
432.128 1300.48 m 1
 270.336 1300.48 l 2
 96.2559 1554.43 l 2
 253.952 1554.43 l 1
 432.128 1300.48 l 1
EndSplineSet
Fore
SplineSet
732 1533 m 2
 470 1746 l 2
 462 1754 457 1764 457 1779 c 0
 457 1786 458 1794 460 1802 c 0
 462 1813 465 1824 471 1836 c 0
 481 1858 493 1875 507 1888 c 1
 518 1899 533 1911 549 1921 c 0
 565 1931 582 1938 597 1942 c 0
 604 1944 610 1945 616 1945 c 0
 627 1945 635 1942 642 1935 c 1
 873 1688 l 2
 876 1685 877 1680 877 1675 c 0
 877 1670 876 1663 875 1657 c 0
 873 1648 871 1638 864 1626 c 0
 854 1606 843 1591 833 1581 c 256
 823 1571 810 1561 795 1550 c 0
 780 1539 767 1533 755 1530 c 0
 751 1529 748 1528 745 1528 c 0
 740 1528 735 1530 732 1533 c 2
EndSplineSet
EndChar

StartChar: a
Encoding: 97 97 120
Width: 1080
Flags: W
HStem: -29 220<359.837 620.32> 0 21G<721 982.262> 524 217<498.931 761.483> 897 205<474.369 812.039>
VStem: 156 249<233.538 432.566> 867 257<578.891 843.578>
LayerCount: 2
Back
SplineSet
720 -477 m 4
 720 -695 849 -785 1086 -785 c 5
 1085 -547 l 5
 994 -547 978 -529 978 -473 c 4
 978 738 l 5
 720 738 l 5
 720 581 l 21
 651 690 529 764 413 764 c 4
 149 764 34 500 34 196 c 4
 34 -108 151 -365 413 -364 c 5
 529 -364 651 -288 720 -179 c 5
 720 -477 l 4
294 201 m 4
 294 446 409 530 506 530 c 5
 603 530 729 454 728 201 c 5
 728 -54 603 -130 506 -130 c 4
 412 -130 294 -23 294 201 c 4
EndSplineSet
Fore
SplineSet
646 524 m 1xbc
 524 524 426 442 408 356 c 1
 406 346 405 336 405 327 c 0
 405 253 468 191 576 191 c 1
 698 191 785 270 803 356 c 1
 805 367 806 378 806 389 c 0
 806 462 752 524 646 524 c 1xbc
608 741 m 1
 748 741 833 654 841 576 c 1
 859 658 l 0
 865 684 867 708 867 729 c 0
 867 871 750 897 663 897 c 1
 563 897 494 868 435 844 c 9
 367 1008 l 17
 436 1056 599 1102 706 1102 c 1
 931 1102 1124 1009 1124 750 c 0
 1124 708 1118 661 1107 609 c 10
 1043 305 l 2
 978 0 l 1
 721 0 l 1x7c
 750 136 l 1
 708 58 588 -29 448 -29 c 1
 275 -29 156 93 156 268 c 0
 156 297 159 327 166 358 c 1
 213 580 410 741 608 741 c 1
EndSplineSet
EndChar

StartChar: b
Encoding: 98 98 121
Width: 1122
Flags: W
HStem: -28 234<529.771 748.519> 0 21G<119 381.204> 866 234<749.45 1018> 1434 20G<423.75 686>
VStem: 932 268<455.571 811.238>
LayerCount: 2
Back
SplineSet
377 0 m 9
 119 0 l 1
 119 1454 l 1
 377 1454 l 1
 377 912 l 17
 434 1016 557 1102 694 1102 c 0
 886 1102 1013.97 916.986 1014 538 c 2
 1014 0 l 1
 756 0 l 0
 756 537 l 2
 756 812 656 866.89 576 866.89 c 0
 496 866.89 377 810 377 536 c 2
 377 0 l 9
270.336 0 m 17
 118.784 0 l 1
 118.784 1454.08 l 1
 270.336 1454.08 l 1
 270.336 899.072 l 17
 331.776 995.328 405.504 1091.58 550.912 1091.58 c 0
 802.816 1091.58 923.648 823.296 923.648 540.672 c 0
 923.648 258.048 835.584 -28.6719 512 -28.6719 c 1
 348.16 -28.6719 270.336 139.264 270.336 139.264 c 0
 270.336 0 l 17
770.048 536.576 m 0
 770.048 770.048 688.128 956.416 561.152 956.416 c 1
 421.888 956.416 266.24 794.624 266.24 536.576 c 1
 266.24 245.76 409.6 106.496 522.24 106.496 c 0
 671.744 106.496 770.048 262.144 770.048 536.576 c 0
EndSplineSet
Fore
SplineSet
377 0 m 17x78
 119 0 l 1x78
 428 1454 l 1
 686 1454 l 1
 572 917 l 17
 664 1026 802 1100 918 1100 c 0
 1118 1100 1200 949 1200 743 c 0
 1200 677 1192 606 1176 532 c 0
 1111 228 940 -28 678 -28 c 1xb8
 562 -28 456 48 410 157 c 1
 377 0 l 17x78
917 537 m 0
 927 584 932 626 932 662 c 0
 932 812 853 866 775 866 c 1
 678 866 537 790 483 537 c 1
 473 490 469 450 469 414 c 0
 469 257 556 206 635 206 c 0xb8
 729 206 869 313 917 537 c 0
EndSplineSet
EndChar

StartChar: c
Encoding: 99 99 122
Width: 1047
Flags: W
HStem: -29 232<526.895 771.492> 870 230<646.467 884.944>
VStem: 182 268<284.086 626.618>
LayerCount: 2
Back
SplineSet
1362 0 m 21
 348 537 l 5
 1362 1074 l 13
1024 737 m 9
 776 737 l 17
 741 807 687 870 586 870 c 1
 456 870 348 731 348 532 c 4
 348 334 463 203 606 203 c 1
 713 203 733 262 762 315 c 9
 1024 315 l 1
 991 184 836 -29 606 -29 c 1
 285 -29 86 194 86 532 c 0
 86 871 297 1100 586 1100 c 0
 762 1100 983 975 1024 737 c 9
835.584 960.512 m 9
 735.232 860.16 l 2
 677.888 917.504 618.496 958.464 499.712 958.464 c 1
 368.64 958.464 239.616 778.24 239.616 536.576 c 0
 239.616 294.912 389.12 104.448 520.192 104.448 c 0
 647.168 104.448 694.272 157.696 741.376 217.088 c 9
 839.68 118.784 l 1
 786.432 61.4404 716.8 -28.6719 520.192 -30.7197 c 1
 262.144 -30.7197 86.0156 208.896 86.0156 536.576 c 0
 86.0156 864.256 270.336 1093.63 499.712 1093.63 c 0
 659.456 1093.63 741.376 1052.67 835.584 960.512 c 9
EndSplineSet
Fore
SplineSet
927 756 m 1
 905 817 863 870 771 870 c 0
 641 870 503 731 461 532 c 0
 454 498 450 467 450 437 c 0
 450 293 530 203 649 203 c 1
 756 203 789 262 829 315 c 9
 1019 204 l 0
 926 90 772 -29 600 -29 c 1
 332 -29 182 126 182 375 c 0
 182 424 187 477 199 532 c 0
 271 871 531 1100 820 1100 c 0
 973 1100 1115 1010 1163 868 c 1
 927 756 l 1
EndSplineSet
EndChar

StartChar: d
Encoding: 100 100 123
Width: 1122
Flags: W
HStem: -28 234<347 612.695> 0 21G<760 1022.25> 866 234<611.018 837.483> 1434 20G<1064.75 1327>
VStem: 164 271<268.455 613.987>
LayerCount: 2
Back
SplineSet
741.376 0 m 9
 741.376 139.264 l 0
 741.376 139.264 663.552 -28.6719 499.712 -28.6719 c 1
 176.128 -28.6719 88.0645 258.048 88.0645 540.672 c 0
 88.0645 823.296 208.896 1091.58 460.8 1091.58 c 0
 606.208 1091.58 684.032 987.136 741.376 899.072 c 9
 741.376 1454.08 l 1
 892.928 1454.08 l 1
 892.928 0 l 1
 741.376 0 l 9
241.664 536.576 m 0
 241.664 262.144 339.968 106.496 489.472 106.496 c 0
 602.112 106.496 745.472 245.76 745.472 536.576 c 1
 745.472 794.624 589.824 956.416 450.56 956.416 c 1
 323.584 956.416 241.664 770.048 241.664 536.576 c 0
EndSplineSet
Fore
SplineSet
760 0 m 9x78
 793 157 l 1
 701 48 563 -28 447 -28 c 1xb8
 247 -28 164 121 164 326 c 0
 164 390 172 460 187 532 c 0
 252 836 423 1100 687 1100 c 0
 803 1100 909 1026 955 917 c 9
 1069 1454 l 1
 1327 1454 l 1
 1018 0 l 1
 760 0 l 9x78
448 537 m 0
 439 496 435 458 435 425 c 0
 435 277 513 206 590 206 c 0
 687 206 828 282 882 537 c 1
 892 583 896 624 896 659 c 0
 896 815 809 866 730 866 c 1
 633 866 500 782 448 537 c 0
EndSplineSet
EndChar

StartChar: e
Encoding: 101 101 124
Width: 1093
Flags: W
HStem: -29 230<500.223 763.021> 469 182<501 916.999> 868 230<625.562 865.442>
VStem: 187 266<250.719 467.353> 917 241<651.68 819.151>
LayerCount: 2
Back
SplineSet
247.104 604.16 m 1
 768.704 604.16 l 1
 757.76 778.24 667.712 958.464 507.904 958.464 c 0
 348.097 958.464 258.048 774.145 247.104 604.16 c 1
247.073 468.992 m 1
 262.144 286.72 348.033 106.496 507.904 106.496 c 0
 602.145 106.496 668.416 162.464 711.521 242.655 c 0
 844.48 187.616 l 0
 776.159 55.4238 662.368 -28.6719 507.904 -28.6719 c 1
 241.664 -28.6719 88.0645 221.184 88.0645 536.576 c 0
 88.0645 851.968 241.664 1093.63 507.904 1093.63 c 0
 774.144 1093.63 923.648 851.968 923.648 536.576 c 0
 923.648 514.539 924.608 491.84 924.608 468.992 c 1
 247.073 468.992 l 1
EndSplineSet
Fore
SplineSet
501 651 m 1
 914 651 l 1
 916 664 917 676 917 689 c 0
 917 786 865 868 753 868 c 0
 627 868 532 760 501 651 c 1
621 201 m 0
 680 201 741 221 789 267 c 0
 996 169 l 0
 882 38 705 -29 572 -29 c 1
 345 -29 187 144 187 396 c 0
 187 441 192 488 202 537 c 0
 271 860 536 1098 802 1098 c 0
 1023 1098 1158 934 1158 694 c 0
 1158 645 1152 592 1140 537 c 0
 1126 469 l 1
 462 469 l 1
 456 437 453 408 453 383 c 0
 453 230 556 201 621 201 c 0
EndSplineSet
EndChar

StartChar: f
Encoding: 102 102 125
Width: 782
Flags: W
HStem: 0 21G<213 475.242> 844 229<302 392 699 815> 1260 229<738.903 943.652>
LayerCount: 2
Back
SplineSet
405.504 937.984 m 0
 405.504 0 l 1
 253.952 0 l 1
 253.952 937.984 l 0
 114.688 937.984 l 1
 114.688 1073.15 l 1
 253.952 1073.15 l 0
 253.952 1183.74 l 1
 253.952 1380.35 368.64 1480.7 538.624 1480.7 c 0
 622.592 1480.7 653.312 1454.08 712.704 1419.26 c 9
 616.448 1323.01 l 17
 581.632 1339.39 577.536 1345.54 548.864 1345.54 c 0
 450.56 1345.54 405.504 1288.19 405.504 1183.74 c 1
 405.504 1073.15 l 0
 602.112 1073.15 l 1
 602.112 937.984 l 1
 405.504 937.984 l 0
EndSplineSet
Fore
SplineSet
650 844 m 0
 471 0 l 1
 213 0 l 1
 392 844 l 0
 253 844 l 1
 302 1073 l 1
 441 1073 l 0
 458 1153 l 1
 486 1286 681 1489 879 1489 c 0
 963 1489 1041 1458 1088 1400 c 9
 901 1221 l 17
 883 1249 841 1260 821 1260 c 0
 764 1260 733 1233 720 1173 c 1
 699 1073 l 0
 864 1073 l 1
 815 844 l 1
 650 844 l 0
EndSplineSet
EndChar

StartChar: g
Encoding: 103 103 126
Width: 1137
Flags: W
HStem: -461 224<365.24 656.742> -28 234<347 612.695> 866 234<611.018 837.483> 1053 20G<983.769 1246>
VStem: 81 247<-196.135 -99.5164> 164 271<268.455 613.987>
LayerCount: 2
Back
SplineSet
241.664 538.624 m 0
 241.664 264.192 339.968 108.544 489.472 108.544 c 0
 602.112 108.544 745.472 247.808 745.472 538.624 c 1
 745.472 796.672 589.824 958.464 450.56 958.464 c 1
 323.584 958.464 241.664 772.096 241.664 538.624 c 0
741.376 141.312 m 1
 731.136 119.808 665.6 -26.624 499.712 -26.624 c 1
 176.128 -26.624 88.0645 260.096 88.0645 542.72 c 0
 88.0645 825.344 208.896 1093.63 460.8 1093.63 c 0
 606.208 1093.63 679.936 1003.52 741.376 901.12 c 9
 741.376 1073.15 l 1
 892.928 1073.15 l 1
 892.928 -18.4316 l 2
 892.928 -290.816 710.656 -448.512 507.904 -448.512 c 1
 243.712 -448.512 129.024 -243.712 112.64 -108.544 c 0
 112.64 -108.544 200.09 -108.544 256 -108.544 c 17
 274.432 -227.328 380.928 -313.344 499.712 -313.344 c 0
 624.64 -313.344 741.376 -225.28 741.376 -32.7676 c 0
 741.376 141.312 l 1
EndSplineSet
Fore
SplineSet
745 -70 m 0xd8
 793 157 l 1
 701 48 563 -28 447 -28 c 1
 247 -28 164 121 164 326 c 0
 164 390 172 460 187 532 c 0
 252 836 423 1100 687 1100 c 0xe4
 803 1100 909 1026 955 917 c 9
 988 1073 l 1
 1246 1073 l 1
 1007 -50 l 0
 962 -262 764 -461 454 -461 c 1
 168 -461 81 -277 81 -134 c 0
 81 -122 82 -110 83 -99 c 0
 83 -99 232 -92 328 -88 c 17
 328 -93 328 -98 328 -103 c 0
 328 -179 378 -237 501 -237 c 0
 624 -237 722 -176 745 -70 c 0xd8
448 537 m 0
 439 496 435 458 435 425 c 0
 435 277 513 206 590 206 c 0
 687 206 828 282 882 537 c 1
 892 583 896 624 896 659 c 0
 896 815 809 866 730 866 c 1
 633 866 500 782 448 537 c 0
EndSplineSet
EndChar

StartChar: h
Encoding: 104 104 127
Width: 1121
Flags: W
HStem: 0 21G<119 381.254 756 1018.25> 867 235<753.921 993.5> 1434 20G<423.75 686>
VStem: 893 278<530.461 843.055>
LayerCount: 2
Back
SplineSet
270.336 0 m 9
 118.784 0 l 1
 118.784 1454.08 l 1
 270.336 1454.08 l 1
 270.336 921.6 l 17
 339.968 995.328 417.792 1095.68 563.2 1095.68 c 0
 819.2 1095.68 905.216 880.64 905.216 622.592 c 0
 905.216 0 l 1
 753.664 0 l 0
 753.664 618.496 l 0
 753.664 790.528 684.032 958.464 573.44 958.464 c 1
 446.464 958.464 270.336 831.488 270.336 659.456 c 0
 270.336 0 l 9
EndSplineSet
Fore
SplineSet
377 0 m 9
 119 0 l 1
 428 1454 l 1
 686 1454 l 1
 571 912 l 17
 650 1016 792 1102 934 1102 c 0
 1053 1102 1171 998 1171 798 c 0
 1171 758 1166 715 1156 668 c 1
 1014 0 l 1
 756 0 l 0
 870 537 l 2
 886 611 893 669 893 714 c 0
 893 838 839 867 760 867 c 0
 652 867 549 810 491 536 c 2
 377 0 l 9
EndSplineSet
EndChar

StartChar: i
Encoding: 105 105 128
Width: 534
Flags: HMW
LayerCount: 2
Back
SplineSet
120.832 1333.25 m 0
 120.832 1384.45 163.84 1427.46 215.04 1427.46 c 0
 266.24 1427.46 309.248 1384.45 309.248 1333.25 c 0
 309.248 1282.05 266.24 1239.04 215.04 1239.04 c 0
 163.84 1239.04 120.832 1282.05 120.832 1333.25 c 0
139.264 1073.15 m 1
 290.816 1073.15 l 1
 290.816 0 l 1
 139.264 0 l 1
 139.264 1073.15 l 1
EndSplineSet
Fore
SplineSet
367 1073 m 1
 625 1073 l 1
 397 0 l 1
 139 0 l 1
 367 1073 l 1
405 1334 m 0
 423 1421 506 1494 586 1494 c 0
 655 1494 702 1440 702 1369 c 0
 702 1358 702 1346 699 1334 c 0
 681 1247 598 1174 518 1174 c 0
 449 1174 401 1228 401 1299 c 0
 401 1310 402 1322 405 1334 c 0
EndSplineSet
EndChar

StartChar: j
Encoding: 106 106 129
Width: 534
Flags: W
HStem: -432 229<-152.106 80.2354> 1053 20G<362.742 625> 1174 320<476.016 627.861>
VStem: 401 301<1249.52 1416.36>
LayerCount: 2
Back
SplineSet
120.832 1333.25 m 0
 120.832 1384.45 163.84 1427.46 215.04 1427.46 c 0
 266.24 1427.46 309.248 1384.45 309.248 1333.25 c 0
 309.248 1282.05 266.24 1239.04 215.04 1239.04 c 0
 163.84 1239.04 120.832 1282.05 120.832 1333.25 c 0
-247.808 -352.256 m 9
 -139.264 -260.096 l 1
 -114.688 -282.624 -77.8242 -294.912 -28.6719 -294.912 c 1
 102.4 -294.912 139.264 -208.896 139.264 0 c 1
 139.264 1073.15 l 1
 290.816 1073.15 l 0
 290.816 0 l 1
 290.816 -303.104 176.128 -430.08 -28.6719 -430.08 c 1
 -131.072 -430.08 -198.656 -399.36 -247.808 -352.256 c 9
EndSplineSet
Fore
SplineSet
405 1334 m 0
 423 1421 506 1494 586 1494 c 0
 655 1494 702 1440 702 1369 c 0
 702 1358 702 1346 699 1334 c 0
 681 1247 598 1174 518 1174 c 0
 449 1174 401 1228 401 1299 c 0
 401 1310 402 1322 405 1334 c 0
-307 -333 m 9
 -101 -161 l 1
 -90 -184 -55 -203 -20 -203 c 1
 47 -203 105 -156 119 -92 c 1
 367 1073 l 1
 625 1073 l 0
 390 -35 l 1
 346 -240 113 -432 -80 -432 c 1
 -182 -432 -251 -416 -307 -333 c 9
EndSplineSet
EndChar

StartChar: k
Encoding: 107 107 130
Width: 999
Flags: W
HStem: 0 21G<119 381.234 692.921 996> 1053 20G<866 1201> 1434 20G<423.75 686>
LayerCount: 2
Back
SplineSet
417.792 630.784 m 1
 929.792 0 l 1
 755.712 0 l 1
 315.392 532.48 l 1
 270.336 479.232 l 1
 270.336 0 l 1
 118.784 0 l 1
 118.784 1454.08 l 1
 270.336 1454.08 l 1
 270.336 669.696 l 17
 671.744 1073.15 l 1
 845.824 1073.15 l 1
 417.792 630.784 l 1
EndSplineSet
Fore
SplineSet
705 597 m 1
 996 0 l 1
 702 0 l 1
 490 467 l 1
 471 444 l 1
 377 0 l 1
 119 0 l 1
 428 1454 l 1
 686 1454 l 1
 529 716 l 17
 886 1073 l 1
 1201 1073 l 1
 705 597 l 1
EndSplineSet
EndChar

StartChar: l
Encoding: 108 108 131
Width: 561
Flags: W
HStem: -29 21G<385.5 488.215> 1434 20G<443.756 706>
VStem: 185 269<94 416.273>
LayerCount: 2
Back
SplineSet
290.816 215.04 m 1
 290.816 135.168 299.008 102.4 327.68 102.4 c 1
 327.68 -28.6719 l 1
 176.128 -28.6719 139.264 12.2881 139.264 210.944 c 1
 139.264 1454.08 l 1
 290.816 1454.08 l 1
 290.816 215.04 l 1
EndSplineSet
Fore
SplineSet
457 281 m 1
 455 272 454 263 454 255 c 0
 454 220 473 194 531 194 c 1
 484 -29 l 1
 287 -29 185 18 185 170 c 0
 185 201 190 236 198 276 c 1
 448 1454 l 1
 706 1454 l 1
 457 281 l 1
EndSplineSet
EndChar

StartChar: braceleft
Encoding: 123 123 132
Width: 747
Flags: W
HStem: 1348 213<794.025 932>
VStem: 297 238<45 388.806> 348 231<165.477 678.488>
LayerCount: 2
Back
SplineSet
79.8721 729.088 m 1
 350.208 815.104 241.664 1275.9 294.912 1400.83 c 1
 356.352 1525.76 487.424 1525.76 624.64 1529.86 c 1
 624.64 1394.69 l 1
 610.304 1396.74 595.968 1398.78 581.632 1398.78 c 0
 528.384 1398.78 456.704 1378.3 430.08 1339.39 c 1
 419.84 1320.96 417.792 1282.05 417.792 1236.99 c 2
 417.792 1191.94 l 2
 417.792 1071.1 393.216 770.048 292.863 729.088 c 1
 393.216 692.224 417.792 364.544 417.792 237.568 c 0
 417.792 194.56 l 0
 417.792 145.408 419.84 106.496 430.08 88.0645 c 1
 456.704 49.1523 528.384 28.6719 581.632 28.6719 c 0
 595.968 28.6719 610.304 30.7197 624.64 32.7676 c 1
 624.64 -102.4 l 1
 487.424 -98.3037 356.352 -98.3037 294.912 26.624 c 1
 241.664 151.552 350.208 647.168 79.8721 729.088 c 1
EndSplineSet
Fore
SplineSet
235 729 m 1xa0
 500 811 520 1327 606 1444 c 0
 691 1559 819 1557 977 1561 c 1
 932 1348 l 1
 822 1348 767 1317 741 1196 c 0
 708 1042 641 782 509 729 c 1
 562 704 579 630 579 543 c 0xa0
 579 450 560 342 543 262 c 0
 538 239 535 219 535 202 c 0
 535 130 580 111 669 111 c 1
 623 -102 l 1
 467 -99 339 -101 302 14 c 0
 299 24 297 37 297 53 c 0xc0
 297 149 348 339 348 495 c 0
 348 606 323 699 235 729 c 1xa0
EndSplineSet
EndChar

StartChar: bar
Encoding: 124 124 133
Width: 468
Flags: W
HStem: 0 21G<115 362.25> 1434 20G<419.75 667>
VStem: 115 552
LayerCount: 2
Back
SplineSet
114.688 0 m 17
 114.688 1454.08 l 1
 258.048 1454.08 l 1
 258.048 0 l 9
 114.688 0 l 17
EndSplineSet
Fore
SplineSet
115 0 m 17
 424 1454 l 1
 667 1454 l 1
 358 0 l 9
 115 0 l 17
EndSplineSet
EndChar

StartChar: braceright
Encoding: 125 125 134
Width: 747
Flags: W
HStem: -102 213<145 287.572>
VStem: 497 231<780.258 1295.57> 541 237<1061.29 1413>
LayerCount: 2
Back
SplineSet
667.648 729.088 m 1
 397.312 647.168 505.856 157.696 452.608 32.7676 c 1
 391.168 -92.1602 260.096 -92.1602 122.88 -96.2559 c 1
 122.88 38.9121 l 1
 137.216 36.8643 151.552 34.8164 165.888 34.8164 c 0
 219.136 34.8164 290.816 55.2959 317.44 94.208 c 1
 327.68 112.64 329.728 151.552 329.728 200.704 c 0
 329.728 243.712 l 0
 329.728 370.688 354.304 692.224 454.656 729.088 c 1
 354.304 770.048 329.728 1071.1 329.728 1191.94 c 2
 329.728 1236.99 l 2
 329.728 1282.05 327.68 1320.96 317.44 1339.39 c 1
 290.816 1378.3 219.136 1398.78 165.888 1398.78 c 0
 151.552 1398.78 137.216 1396.74 122.88 1394.69 c 1
 122.88 1529.86 l 1
 260.096 1525.76 391.168 1525.76 452.608 1400.83 c 1
 505.856 1275.9 397.312 815.104 667.648 729.088 c 1
EndSplineSet
Fore
SplineSet
841 729 m 1xc0
 576 649 556 131 470 14 c 0
 385 -101 257 -99 99 -102 c 1
 145 111 l 1
 255 111 309 141 335 262 c 0
 368 416 435 678 567 729 c 1
 514 755 497 829 497 916 c 0xc0
 497 1009 516 1116 533 1196 c 0
 538 1219 541 1239 541 1256 c 0
 541 1328 497 1348 408 1348 c 1
 453 1561 l 1
 609 1557 737 1559 774 1444 c 0
 777 1434 778 1421 778 1405 c 0xa0
 778 1309 728 1119 728 964 c 0
 728 853 754 760 841 729 c 1xc0
EndSplineSet
EndChar

StartChar: asciitilde
Encoding: 126 126 135
Width: 759
Flags: W
HStem: 512 247<580.224 747.167> 664 247<308.198 453.246>
LayerCount: 2
Back
SplineSet
53.248 763.904 m 17
 98.3037 800.768 157.696 860.16 235.52 860.16 c 0
 333.824 860.16 397.312 708.608 501.76 708.608 c 1
 571.392 708.608 628.736 761.856 690.176 806.912 c 9
 690.176 661.504 l 17
 628.736 614.4 575.488 563.2 501.76 563.2 c 0
 387.072 563.2 315.392 714.752 233.472 714.752 c 0
 155.648 714.752 108.544 663.552 53.248 618.496 c 9
 53.248 763.904 l 17
EndSplineSet
Fore
SplineSet
225 808 m 17x40
 278 845 352 911 430 911 c 0x40
 528 911 569 759 673 759 c 1
 743 759 822 825 874 866 c 9
 819 606 l 17
 776 578 704 512 621 512 c 0x80
 506 512 456 664 374 664 c 0
 297 664 246 612 174 567 c 9
 225 808 l 17x40
EndSplineSet
EndChar

StartChar: .notdef
Encoding: 127 127 136
Width: 1409
Flags: W
HStem: -29 242<619.9 922.029> 345 161<728.064 856.623> 975 120<820.271 985.14> 1249 240<814.02 1129.09>
VStem: 235 284<324.555 831.119> 710 165<369.517 481.437> 1227 285<667.536 1146.95>
LayerCount: 2
Fore
SplineSet
1207 754 m 0
 1220 815 1226 873 1227 928 c 0
 1227 931 1227 934 1227 937 c 0
 1227 989 1222 1039 1209 1086 c 0
 1196 1136 1169 1174 1130 1204 c 0
 1091 1234 1041 1249 980 1249 c 0
 931 1249 884 1239 841 1219 c 0
 798 1199 761 1172 730 1140 c 0
 699 1108 669 1070 644 1026 c 0
 619 982 598 938 582 893 c 0
 566 848 553 802 543 754 c 0
 532 702 524 651 521 602 c 0
 520 583 519 564 519 545 c 0
 519 516 520 486 524 457 c 0
 530 409 541 367 559 332 c 0
 577 297 602 268 636 246 c 0
 670 224 711 213 760 213 c 0
 809 213 856 224 900 246 c 0
 944 268 982 297 1013 332 c 0
 1044 367 1075 409 1101 457 c 0
 1127 505 1150 553 1166 602 c 0
 1182 651 1196 702 1207 754 c 0
260 754 m 0
 274 821 296 888 323 954 c 0
 350 1020 386 1085 431 1150 c 0
 476 1215 527 1272 584 1322 c 0
 641 1372 707 1412 785 1443 c 0
 863 1474 944 1489 1031 1489 c 0
 1118 1489 1195 1474 1259 1443 c 0
 1323 1412 1372 1372 1408 1323 c 0
 1444 1274 1470 1216 1487 1151 c 0
 1503 1089 1512 1027 1512 964 c 0
 1512 961 1512 957 1512 954 c 0
 1511 888 1503 821 1489 754 c 0
 1474 683 1452 612 1424 542 c 0
 1396 472 1359 402 1313 332 c 0
 1267 262 1214 201 1157 148 c 0
 1100 95 1033 53 955 20 c 0
 877 -13 796 -29 709 -29 c 0
 623 -29 548 -13 484 20 c 0
 420 53 370 95 335 148 c 0
 300 201 274 262 258 331 c 0
 243 396 235 461 235 528 c 0
 235 532 235 537 235 541 c 0
 236 612 245 683 260 754 c 0
898 621 m 2
 884 557 l 1
 753 557 l 1
 774 652 l 2
 777 668 783 683 792 697 c 0
 801 711 813 723 824 733 c 0
 835 743 848 753 861 762 c 0
 874 771 888 781 902 790 c 0
 916 799 928 809 939 819 c 0
 950 829 961 841 970 854 c 0
 979 867 986 881 989 897 c 0
 993 915 990 931 983 943 c 0
 976 955 965 963 952 968 c 0
 939 973 925 975 908 975 c 0
 882 975 860 966 839 949 c 0
 818 932 804 911 796 885 c 1
 669 905 l 1
 687 960 718 1005 766 1041 c 0
 814 1077 870 1095 932 1095 c 0
 956 1095 978 1092 1000 1087 c 0
 1022 1082 1042 1074 1060 1063 c 0
 1078 1052 1092 1039 1104 1024 c 0
 1116 1009 1123 990 1128 969 c 0
 1130 959 1131 948 1131 937 c 0
 1131 925 1130 912 1127 899 c 0
 1122 875 1113 853 1103 832 c 0
 1093 811 1081 794 1068 780 c 0
 1055 766 1041 753 1027 742 c 0
 1013 731 998 721 984 712 c 0
 970 703 958 694 946 685 c 0
 934 676 923 666 915 655 c 0
 907 644 901 633 898 621 c 2
712 425 m 0
 717 447 728 466 747 482 c 0
 766 498 788 506 810 506 c 0
 832 506 848 498 861 482 c 0
 870 470 875 457 875 442 c 0
 875 436 874 431 873 425 c 0
 868 403 856 385 837 369 c 0
 818 353 797 345 775 345 c 0
 753 345 736 353 723 369 c 0
 714 380 710 393 710 407 c 0
 710 413 711 419 712 425 c 0
EndSplineSet
EndChar

StartChar: exclamdown
Encoding: 161 161 137
Width: 309
Flags: W
HStem: -29 21G<78 128.5> 1053 20G<320.5 350> 1159 328<303.353 472.25>
VStem: 224 199<957.895 1054.23>
LayerCount: 2
Fore
SplineSet
224 1014 m 1
 231 1048 306 1073 335 1073 c 1
 365 1073 423 1050 423 1019 c 0
 423 1017 423 1016 423 1014 c 1
 262 65 l 1
 251 12 154 -29 103 -29 c 1
 53 -29 -20 9 -20 54 c 0
 -20 57 -20 60 -19 63 c 1
 224 1014 l 1
552 1323 m 0
 533 1232 443 1159 353 1159 c 0
 274 1159 220 1214 220 1288 c 0
 220 1299 221 1311 224 1323 c 0
 243 1413 332 1487 423 1487 c 0
 501 1487 556 1431 556 1357 c 0
 556 1346 554 1335 552 1323 c 0
EndSplineSet
EndChar

StartChar: cent
Encoding: 162 162 138
Width: 884
Flags: W
HStem: 760 448<564 715.473>
VStem: 194 249<499.522 700.949>
LayerCount: 2
Back
SplineSet
370.688 278.528 m 1
 204.8 299.008 69.6318 434.176 69.6318 657.408 c 0
 69.6318 872.448 241.664 962.561 366.592 993.28 c 1
 366.592 1208.32 l 1
 501.76 1208.32 l 1
 501.76 993.28 l 1
 581.632 972.8 647.168 927.744 700.416 880.64 c 9
 610.304 786.432 l 2
 581.632 815.104 528.384 866.304 423.936 866.304 c 1
 313.344 866.304 212.992 778.24 212.992 653.312 c 0
 212.992 499.712 303.104 405.504 430.08 405.504 c 0
 512 405.504 581.632 438.272 638.976 512 c 9
 729.088 421.888 l 1
 688.128 356.352 604.16 305.152 505.856 274.432 c 1
 505.856 77.8242 l 1
 370.688 77.8242 l 1
 370.688 278.528 l 1
EndSplineSet
Fore
SplineSet
375 293 m 1
 269 311 194 399 194 537 c 0
 194 566 197 598 204 631 c 0
 246 827 408 948 514 976 c 1
 564 1208 l 1
 794 1208 l 1
 745 977 l 1
 797 966 874 907 910 837 c 9
 724 709 l 2
 723 709 l 0
 715 709 695 760 610 760 c 1
 534 760 461 696 447 629 c 0
 444 616 443 603 443 591 c 0
 443 530 476 479 548 479 c 0
 633 479 652 513 690 544 c 9
 822 408 l 1
 753 340 671 291 604 285 c 1
 560 78 l 1
 330 78 l 1
 375 293 l 1
EndSplineSet
EndChar

StartChar: sterling
Encoding: 163 163 139
Width: 1267
Flags: W
HStem: 0 231<547 1090.73> 549 229<239 411 738 1047> 1247 228<880.823 1031.04>
LayerCount: 2
Back
SplineSet
301.056 595.968 m 1
 73.7275 595.968 l 1
 73.7275 731.136 l 1
 311.296 731.136 l 1
 311.296 1200.13 389.12 1466.37 585.729 1466.37 c 0
 729.088 1466.37 839.68 1376.26 913.408 1169.41 c 1
 770.048 1163.26 l 1
 749.568 1245.18 692.224 1333.25 585.729 1333.25 c 0
 520.192 1333.25 464.896 1093.63 464.896 933.888 c 2
 464.896 808.96 l 1
 464.896 731.136 l 1
 823.296 731.136 l 1
 823.296 595.968 l 1
 458.752 595.968 l 1
 447.914 444.25 391.381 252.543 352.256 135.168 c 1
 856.064 135.168 l 1
 888.832 137.216 923.648 139.264 972.8 206.848 c 1
 1052.67 92.1602 l 1
 1005.57 20.4805 923.648 12.2881 843.776 0 c 1
 135.168 0 l 1
 168.001 131.332 287.58 380.356 301.056 595.968 c 1
EndSplineSet
Fore
SplineSet
411 549 m 1
 191 549 l 1
 239 778 l 1
 476 778 l 1
 570 1222 719 1475 1006 1475 c 0
 1172 1475 1259 1372 1283 1138 c 1
 1048 1116 l 1
 1046 1179 1038 1247 957 1247 c 0
 868 1247 800 1070 775 952 c 2
 753 846 l 1
 738 778 l 1
 1095 778 l 1
 1047 549 l 1
 692 549 l 1
 652 444 613 321 547 231 c 1
 1010 231 l 1
 1053 231 1099 279 1119 308 c 1
 1233 156 l 1
 1153 35 1049 0 958 0 c 1
 135 0 l 1
 193 121 356 350 411 549 c 1
EndSplineSet
EndChar

StartChar: currency
Encoding: 164 164 140
Width: 987
Flags: W
HStem: 406 249<557.581 688.959> 852 251<618.28 744.972> 858 334<306 342 586.462 640 1005 1116>
VStem: 296 255<662.506 821.124> 752 255<685.6 845.509>
LayerCount: 2
Back
SplineSet
143.36 753.664 m 4
 143.36 945.849 299.336 1101.82 491.521 1101.82 c 4
 683.704 1101.82 839.68 945.849 839.68 753.664 c 4
 839.68 561.479 683.704 405.504 491.521 405.504 c 4
 299.336 405.504 143.36 561.479 143.36 753.664 c 4
393.216 753.664 m 0
 393.216 807.928 437.256 851.968 491.521 851.968 c 0
 545.784 851.968 589.824 807.928 589.824 753.664 c 0
 589.824 699.4 545.784 655.36 491.521 655.36 c 0
 437.256 655.36 393.216 699.4 393.216 753.664 c 0
EndSplineSet
Fore
SplineSet
553 752 m 0xd8
 551 745 551 738 551 731 c 0
 551 683 588 655 633 655 c 0
 684 655 739 701 750 752 c 0
 752 760 752 768 752 775 c 0
 752 822 718 852 675 852 c 0
 620 852 566 812 553 752 c 0xd8
690 424 m 1
 656 410 596 406 580 406 c 0
 563 406 506 409 477 422 c 1
 452 305 l 1
 118 305 l 1
 189 639 l 1
 300 639 l 1
 297 652 296 669 296 686 c 0
 296 706 297 727 302 750 c 0
 311 791 326 831 342 858 c 1
 235 858 l 1
 306 1192 l 1
 640 1192 l 1xb8
 617 1084 l 1
 651 1098 711 1103 728 1103 c 0xd8
 744 1103 810 1096 830 1084 c 1
 853 1192 l 1
 1187 1192 l 1
 1116 858 l 1
 1005 858 l 1xb8
 1006 842 1007 829 1007 817 c 0
 1007 795 1005 776 999 750 c 0
 990 708 975 678 955 639 c 1
 1070 639 l 1
 999 305 l 1
 665 305 l 1
 690 424 l 1
EndSplineSet
EndChar

StartChar: yen
Encoding: 165 165 141
Width: 1136
Flags: W
HStem: 0 21G<420 682.281> 285 229<252 481 787 999> 635 229<327 497 967 1073>
LayerCount: 2
Back
SplineSet
460.8 681.984 m 1
 149.504 681.984 l 1
 149.504 817.152 l 1
 407.552 817.152 l 1
 63.4883 1396.74 l 1
 219.136 1396.74 l 1
 542.72 831.488 l 1
 886.784 1396.74 l 1
 1042.43 1396.74 l 1
 669.696 817.152 l 1
 917.504 817.152 l 1
 917.504 681.984 l 1
 612.352 681.984 l 1
 612.352 466.944 l 1
 917.504 466.944 l 1
 917.504 331.776 l 1
 612.352 331.776 l 1
 612.352 0 l 1
 460.8 0 l 1
 460.8 331.776 l 1
 149.504 331.776 l 1
 149.504 466.944 l 1
 460.8 466.944 l 1
 460.8 681.984 l 1
EndSplineSet
Fore
SplineSet
555 635 m 1
 278 635 l 1
 327 864 l 1
 497 864 l 1
 342 1397 l 1
 625 1397 l 1
 748 888 l 1
 1104 1397 l 1
 1366 1397 l 1
 967 864 l 1
 1122 864 l 1
 1073 635 l 1
 813 635 l 1
 787 514 l 1
 1047 514 l 1
 999 285 l 1
 739 285 l 1
 678 0 l 1
 420 0 l 1
 481 285 l 1
 204 285 l 1
 252 514 l 1
 529 514 l 1
 555 635 l 1
EndSplineSet
EndChar

StartChar: brokenbar
Encoding: 166 166 142
Width: 405
Flags: W
HStem: 0 21G<80 328.264>
VStem: 80 549
LayerCount: 2
Back
SplineSet
223.232 665.6 m 17
 223.232 0 l 1
 79.8721 0 l 1
 79.8721 665.6 l 9
 223.232 665.6 l 17
79.8721 768 m 17
 79.8721 1433.6 l 1
 223.232 1433.6 l 1
 223.232 768 l 9
 79.8721 768 l 17
EndSplineSet
Fore
SplineSet
466 666 m 17
 324 0 l 1
 80 0 l 1
 222 666 l 9
 466 666 l 17
243 768 m 17
 385 1434 l 1
 629 1434 l 1
 487 768 l 9
 243 768 l 17
EndSplineSet
EndChar

StartChar: section
Encoding: 167 167 143
Width: 694
Flags: W
HStem: 57 230<341.137 462.739> 821 193<465 601.5> 1112 229<524.907 672.71>
VStem: 198 236<593.926 813.811> 547 249<576.002 809.812>
LayerCount: 2
Back
SplineSet
176.128 958.464 m 1
 194.809 963.801 216.384 966.654 241.664 966.656 c 0
 447.896 966.656 657.408 782.336 657.408 530.432 c 0
 657.408 307.2 516.096 104.448 339.968 104.448 c 0
 221.184 104.448 122.395 153.396 40.96 290.816 c 9
 190.464 301.056 l 17
 217.088 264.192 284.672 239.616 323.584 239.616 c 2
 327.68 239.616 l 2
 425.984 239.616 491.521 327.68 512 440.32 c 0
 514.707 455.211 470.452 432.134 446.464 432.128 c 0
 243.46 432.128 32.7676 577.536 32.7676 872.448 c 0
 32.7676 1089.54 159.744 1294.34 348.16 1294.34 c 0
 483.328 1294.34 544.768 1245.18 632.832 1130.5 c 1
 479.232 1114.11 l 0
 454.656 1140.74 397.312 1159.17 364.544 1159.17 c 2
 360.448 1159.17 l 2
 253.952 1159.17 200.704 1069.06 176.128 958.464 c 1
495.616 581.632 m 0
 495.616 698.368 389.12 831.488 239.616 831.488 c 0
 216.423 831.488 201.2 826.798 184.32 817.152 c 1
 184.32 698.368 319.488 567.296 440.32 567.296 c 0
 462.657 567.296 495.616 564.406 495.616 581.632 c 0
EndSplineSet
Fore
SplineSet
493 1005 m 1
 503 1011 514 1014 525 1014 c 0
 675 1014 796 874 796 670 c 0
 796 633 792 593 783 552 c 0
 728 293 533 57 352 57 c 0
 235 57 154 125 114 313 c 9
 338 356 l 17
 338 354 337 353 337 351 c 0
 337 309 381 287 393 287 c 1
 397 287 l 0
 441 287 482 338 505 404 c 1
 489 391 473 385 457 385 c 0
 318 385 198 491 198 705 c 0
 198 750 203 799 215 854 c 0
 268 1105 443 1341 629 1341 c 0
 762 1341 808 1269 858 1099 c 1
 633 1049 l 0
 633 1051 633 1053 633 1055 c 0
 633 1096 590 1112 584 1112 c 0
 544 1112 515 1064 493 1005 c 1
539 592 m 0
 545 619 547 646 547 672 c 0
 547 752 522 821 470 821 c 0
 460 821 450 819 441 810 c 1
 436 786 434 762 434 739 c 0
 434 653 466 577 510 577 c 0
 512 577 514 576 517 576 c 0
 526 576 536 578 539 592 c 0
EndSplineSet
EndChar

StartChar: dieresis
Encoding: 168 168 144
Width: 933
Flags: W
HStem: 1593 328<518.002 690.998 989.002 1162>
VStem: 437 335<1673.02 1840.98> 908 335<1673.02 1840.98>
LayerCount: 2
Back
SplineSet
536.576 837.632 m 0
 536.576 888.832 579.584 931.84 630.784 931.84 c 0
 681.984 931.84 724.992 888.832 724.992 837.632 c 0
 724.992 786.432 681.984 743.424 630.784 743.424 c 0
 579.584 743.424 536.576 786.432 536.576 837.632 c 0
65.5361 835.584 m 0
 65.5361 886.784 108.544 929.792 159.744 929.792 c 0
 210.944 929.792 253.952 886.784 253.952 835.584 c 0
 253.952 784.384 210.944 741.376 159.744 741.376 c 0
 108.544 741.376 65.5361 784.384 65.5361 835.584 c 0
EndSplineSet
Fore
SplineSet
440 1757 m 0
 450 1802 474 1841 513 1873 c 0
 552 1905 594 1921 639 1921 c 0
 684 1921 720 1905 745 1873 c 0
 763 1850 772 1823 772 1793 c 0
 772 1782 771 1769 768 1757 c 0
 758 1712 735 1673 696 1641 c 0
 657 1609 615 1593 570 1593 c 0
 525 1593 489 1610 464 1642 c 0
 446 1665 437 1692 437 1722 c 0
 437 1733 437 1745 440 1757 c 0
911 1757 m 0
 921 1802 945 1841 984 1873 c 0
 1023 1905 1065 1921 1110 1921 c 0
 1155 1921 1191 1905 1216 1873 c 0
 1234 1850 1243 1823 1243 1793 c 0
 1243 1782 1242 1769 1239 1757 c 0
 1229 1712 1206 1673 1167 1641 c 0
 1128 1609 1086 1593 1041 1593 c 0
 996 1593 960 1610 935 1642 c 0
 917 1665 908 1692 908 1722 c 0
 908 1733 908 1745 911 1757 c 0
EndSplineSet
EndChar

StartChar: copyright
Encoding: 169 169 145
Width: 1089
Flags: W
HStem: 193 185<385.703 724.848> 496 159<540.075 704.52> 844 161<560.985 756.471> 1122 176<526.726 869.472>
VStem: 68 183<513.274 847.362> 370 162<665.468 814.719> 1007 168<660.904 985.183>
LayerCount: 2
Back
SplineSet
-77.8242 745.472 m 4
 -77.8242 1050.71 164.397 1298.43 462.848 1298.43 c 4
 761.299 1298.43 1003.52 1050.71 1003.52 745.472 c 4
 1003.52 440.238 761.299 192.512 462.848 192.512 c 4
 164.397 192.512 -77.8242 440.238 -77.8242 745.472 c 4
654.295 579.216 m 21
 608.952 533.873 540.938 496.087 470.405 496.087 c 4
 329.339 496.087 215.982 609.443 215.982 750.51 c 4
 215.982 891.576 329.339 1004.93 470.405 1004.93 c 4
 540.938 1004.93 608.952 977.224 654.295 931.881 c 13
 540.672 815.104 l 21
 522.24 831.488 495.616 843.776 468.992 843.776 c 4
 417.792 843.776 374.784 800.768 374.784 749.568 c 4
 374.784 698.368 417.792 655.36 468.992 655.36 c 4
 495.616 655.36 526.336 665.6 544.768 681.984 c 13
 654.295 579.216 l 21
99.5322 750.183 m 4
 99.5322 545.28 264.396 378.061 469.299 378.061 c 4
 674.201 378.061 839.065 545.28 839.065 750.183 c 4
 839.065 955.085 674.201 1122.3 469.299 1122.3 c 4
 264.396 1122.3 99.5322 955.085 99.5322 750.183 c 4
EndSplineSet
Fore
SplineSet
80 745 m 0
 145 1051 440 1298 739 1298 c 0
 998 1298 1175 1112 1175 863 c 0
 1175 825 1171 785 1162 745 c 0
 1097 440 802 193 504 193 c 0
 245 193 68 379 68 627 c 0
 68 665 71 705 80 745 c 0
777 579 m 17
 722 534 646 496 575 496 c 0
 453 496 370 582 370 697 c 0
 370 714 372 732 376 751 c 0
 406 892 543 1005 684 1005 c 0
 755 1005 817 977 852 932 c 9
 714 815 l 17
 698 831 675 844 648 844 c 0
 597 844 545 801 534 750 c 0
 533 743 532 737 532 731 c 0
 532 688 564 655 608 655 c 0
 635 655 668 666 690 682 c 9
 777 579 l 17
259 750 m 0
 253 723 251 696 251 671 c 0
 251 504 371 378 549 378 c 0
 754 378 954 545 998 750 c 0
 1004 777 1007 803 1007 828 c 0
 1007 996 885 1122 707 1122 c 0
 502 1122 303 955 259 750 c 0
EndSplineSet
EndChar

StartChar: guillemotleft
Encoding: 171 171 146
Width: 907
Flags: W
HStem: 536 582
LayerCount: 2
Back
SplineSet
643.072 1118.21 m 1
 778.24 1118.21 l 1
 585.729 827.392 l 1
 778.24 536.576 l 1
 643.072 536.576 l 1
 450.56 827.392 l 1
 643.072 1118.21 l 1
241.664 1118.21 m 1
 376.832 1118.21 l 1
 184.32 827.392 l 1
 376.832 536.576 l 1
 241.664 536.576 l 1
 49.1523 827.392 l 1
 241.664 1118.21 l 1
EndSplineSet
Fore
SplineSet
830 1118 m 1
 1045 1118 l 1
 791 827 l 1
 921 536 l 1
 706 536 l 1
 575 827 l 1
 830 1118 l 1
478 1118 m 1
 697 1118 l 1
 443 827 l 1
 569 536 l 1
 354 536 l 1
 227 827 l 1
 478 1118 l 1
EndSplineSet
EndChar

StartChar: logicalnot
Encoding: 172 172 147
Width: 1120
Flags: W
HStem: 698 244<343 922>
LayerCount: 2
Back
SplineSet
909.312 544.768 m 1
 774.144 544.768 l 1
 774.144 749.568 l 0
 143.36 749.568 l 1
 143.36 892.928 l 1
 909.312 892.928 l 1
 909.312 544.768 l 1
EndSplineSet
Fore
SplineSet
1078 350 m 1
 848 350 l 1
 922 698 l 0
 291 698 l 1
 343 942 l 1
 1204 942 l 1
 1078 350 l 1
EndSplineSet
EndChar

StartChar: softhyphen
Encoding: 173 173 148
Width: 950
Flags: W
HStem: 686 240<285 1006>
LayerCount: 2
Fore
SplineSet
285 926 m 1
 1057 926 l 1
 1006 686 l 1
 234 686 l 1
 285 926 l 1
EndSplineSet
EndChar

StartChar: registered
Encoding: 174 174 149
Width: 1224
Flags: W
HStem: 421 198<590.048 905.326> 1097 133<795 898.355> 1322 198<725.558 1034.3>
VStem: 275 203<727.773 1066.67> 811 151<711 757.592> 900 139<984.572 1144.42> 1152 204<864.123 1205.91>
LayerCount: 2
Back
SplineSet
200.704 749.568 m 0
 200.704 479.232 417.792 358.4 591.872 358.4 c 0
 770.048 358.4 985.088 499.712 985.088 749.568 c 0
 985.088 1019.9 745.472 1142.78 591.872 1142.78 c 0
 413.696 1142.78 200.704 1015.81 200.704 749.568 c 0
83.9678 749.568 m 0
 83.9678 1101.82 368.64 1259.52 591.872 1259.52 c 0
 868.352 1259.52 1101.82 1044.48 1101.82 749.568 c 0
 1101.82 446.464 847.872 241.664 591.872 241.664 c 0
 356.352 241.664 83.9678 413.696 83.9678 749.568 c 0
497.664 800.768 m 1
 514.048 800.768 530.432 800.768 548.864 800.768 c 0
 626.688 800.768 702.464 806.912 702.464 866.304 c 1
 702.464 927.744 608.256 931.84 526.336 931.84 c 0
 516.096 931.84 505.856 931.84 497.664 931.84 c 1
 497.664 800.768 l 1
415.744 1009.66 m 0
 497.664 1009.66 l 1
 647.168 1009.66 782.336 972.8 782.336 866.304 c 0
 782.336 765.952 692.224 739.328 595.968 724.992 c 1
 804.864 495.616 l 1
 704.512 495.616 l 1
 497.664 720.896 l 1
 497.664 495.616 l 1
 415.744 495.616 l 1
 415.744 1009.66 l 0
EndSplineSet
Fore
SplineSet
488 963 m 0xf2
 482 933 478 904 478 878 c 0
 478 700 617 619 744 619 c 0
 892 619 1096 744 1143 963 c 0
 1150 994 1152 1022 1152 1049 c 0
 1152 1236 1005 1322 893 1322 c 0
 743 1322 540 1206 488 963 c 0xf2
289 963 m 0
 371 1348 703 1520 935 1520 c 0
 1180 1520 1356 1347 1356 1092 c 0
 1356 1051 1352 1008 1342 963 c 0
 1273 640 965 421 701 421 c 0
 487 421 275 561 275 835 c 0
 275 875 279 918 289 963 c 0
771 982 m 1
 784 982 797 981 812 981 c 0
 874 981 887 986 898 1039 c 1
 900 1047 900 1054 900 1060 c 0xf6
 900 1094 873 1097 817 1097 c 0
 809 1097 801 1097 795 1097 c 1
 771 982 l 1
683 1230 m 0
 823 1230 l 1
 958 1230 1039 1193 1039 1092 c 0xf6
 1039 1076 1037 1058 1033 1039 c 0
 1011 935 960 919 906 893 c 1
 962 711 l 1
 811 711 l 1xfa
 776 878 l 1
 750 883 l 1
 713 712 l 1
 573 712 l 1
 683 1230 l 0
EndSplineSet
EndChar

StartChar: macron
Encoding: 175 175 150
Width: 960
Flags: W
HStem: 1686 127<483 1228>
LayerCount: 2
Back
SplineSet
53.248 1130.5 m 1
 657.408 1130.5 l 1
 657.408 995.328 l 1
 53.248 995.328 l 1
 53.248 1130.5 l 1
EndSplineSet
Fore
SplineSet
483 1813 m 1
 1255 1813 l 1
 1228 1686 l 1
 456 1686 l 1
 483 1813 l 1
EndSplineSet
EndChar

StartChar: degree
Encoding: 176 176 151
Width: 763
Flags: W
HStem: 866 162<428.118 630.188> 1328 162<472.119 674.531>
VStem: 226 177<1050.44 1257.56> 699 176<1098.22 1302.99>
LayerCount: 2
Back
SplineSet
156.304 1177.7 m 4
 156.304 1093.96 219.832 1027.54 300.688 1027.54 c 4
 381.542 1027.54 445.071 1093.96 445.071 1177.7 c 4
 445.071 1261.45 381.542 1327.86 300.688 1327.86 c 4
 219.832 1327.86 156.304 1261.45 156.304 1177.7 c 4
-16.5684 1178.03 m 4
 -16.5684 1351.5 124.682 1490.27 300.626 1490.27 c 4
 476.569 1490.27 617.82 1351.5 617.82 1178.03 c 4
 617.82 1004.56 476.569 865.792 300.626 865.792 c 4
 124.682 865.792 -16.5684 1004.56 -16.5684 1178.03 c 4
EndSplineSet
Fore
SplineSet
406 1178 m 0
 404 1167 403 1156 403 1145 c 0
 403 1078 450 1028 520 1028 c 0
 601 1028 677 1094 695 1178 c 0
 697 1189 699 1200 699 1211 c 0
 699 1278 653 1328 583 1328 c 0
 502 1328 424 1261 406 1178 c 0
233 1178 m 0
 270 1351 442 1490 618 1490 c 0
 771 1490 875 1385 875 1243 c 0
 875 1222 873 1200 868 1178 c 0
 831 1005 661 866 485 866 c 0
 332 866 226 972 226 1114 c 0
 226 1135 228 1156 233 1178 c 0
EndSplineSet
EndChar

StartChar: plusminus
Encoding: 177 177 152
Width: 983
Flags: W
HStem: 192 240<223 944> 807 240<352 567 858 1094>
LayerCount: 2
Fore
SplineSet
223 432 m 1
 995 432 l 1
 944 192 l 1
 172 192 l 1
 223 432 l 1
352 1047 m 1
 618 1047 l 1
 682 1349 l 1
 922 1349 l 1
 858 1047 l 1
 1145 1047 l 1
 1094 807 l 1
 806 807 l 1
 745 520 l 1
 506 520 l 1
 567 807 l 1
 301 807 l 1
 352 1047 l 1
EndSplineSet
EndChar

StartChar: acute
Encoding: 180 180 153
Width: 577
Flags: W
HStem: 1528 417
VStem: 429 481
LayerCount: 2
Back
SplineSet
90.1123 1247.23 m 1
 260.096 1490.94 l 1
 432.128 1490.94 l 2
 264.192 1247.23 l 2
 90.1123 1247.23 l 1
EndSplineSet
Fore
SplineSet
521 1533 m 2
 516 1530 512 1528 507 1528 c 0
 504 1528 501 1529 497 1530 c 0
 487 1533 476 1539 465 1550 c 0
 454 1561 447 1571 441 1581 c 256
 435 1591 432 1606 430 1626 c 0
 430 1631 429 1636 429 1640 c 0
 429 1647 430 1654 431 1660 c 0
 432 1665 434 1670 436 1675 c 0
 438 1680 442 1685 447 1688 c 2
 781 1935 l 1
 790 1942 801 1945 812 1945 c 0
 818 1945 824 1944 831 1942 c 0
 844 1938 857 1931 869 1921 c 0
 881 1911 890 1899 897 1888 c 0
 906 1874 910 1855 910 1831 c 0
 910 1821 909 1812 907 1802 c 0
 905 1793 902 1784 898 1776 c 0
 892 1763 884 1753 874 1746 c 2
 521 1533 l 2
EndSplineSet
EndChar

StartChar: microsign
Encoding: 181 181 154
Width: 1128
Flags: W
HStem: -29 234<528.58 707.404> 0 21G<762 1010.25>
LayerCount: 2
Back
SplineSet
286.72 74.0361 m 1
 286.72 -395.264 l 1
 143.36 -395.264 l 1
 143.36 872.448 l 1
 288.768 872.448 l 0
 288.768 413.696 l 0
 288.768 192.512 366.592 110.592 485.376 110.592 c 1
 645.12 110.592 716.8 290.816 716.8 413.696 c 0
 716.8 872.448 l 9
 860.16 872.448 l 1
 860.16 0 l 1
 716.8 0 l 1
 716.8 98.3037 l 17
 657.408 24.5762 575.478 -26.624 495.616 -26.624 c 0
 372.736 -26.624 331.776 28.6719 286.72 74.0361 c 1
EndSplineSet
Fore
SplineSet
404 78 m 1x80
 303 -397 l 1
 59 -397 l 1
 332 889 l 1
 580 889 l 0
 490 467 l 0
 483 436 481 408 481 383 c 0
 481 247 571 205 630 205 c 1x80
 723 205 837 354 861 467 c 0
 951 889 l 9
 1195 889 l 1
 1006 0 l 1
 762 0 l 1x40
 780 84 l 17
 729 8 632 -29 586 -29 c 0
 514 -29 419 22 404 78 c 1x80
EndSplineSet
EndChar

StartChar: paragraph
Encoding: 182 182 155
Width: 1286
Flags: W
HStem: 0 229<784 932> 570 225<904 1003> 1221 220<995.946 1144>
VStem: 315 249<882.809 1074.05>
LayerCount: 2
Back
SplineSet
634.88 1259.52 m 1
 634.88 747.52 l 1
 669.696 747.52 815.104 739.328 851.968 739.328 c 1
 851.968 1271.81 l 1
 817.152 1271.81 671.744 1259.52 634.88 1259.52 c 1
491.521 1226.75 m 1
 385.024 1191.94 253.952 1134.59 253.952 995.328 c 1
 253.952 839.68 380.928 802.816 491.521 774.145 c 1
 491.521 1226.75 l 1
634.88 135.168 m 1
 851.968 135.168 l 1
 851.968 612.352 l 1
 815.104 612.352 671.744 622.592 634.88 622.592 c 1
 634.88 135.168 l 1
491.521 0 m 1
 491.521 643.072 l 1
 274.432 690.176 110.592 763.904 110.592 995.328 c 0
 110.592 1265.66 446.464 1396.74 806.912 1396.74 c 1
 1003.52 1396.74 l 0
 1003.52 0 l 1
 491.521 0 l 1
EndSplineSet
Fore
SplineSet
995 1221 m 1
 904 795 l 1
 915 795 1038 781 1049 781 c 1
 1144 1229 l 1
 1133 1229 1006 1221 995 1221 c 1
735 1144 m 1
 687 1124 585 1090 568 1008 c 1
 565 995 564 983 564 972 c 0
 564 889 636 866 672 847 c 1
 735 1144 l 1
784 229 m 1
 932 229 l 1
 1003 565 l 1
 992 565 867 570 856 570 c 1
 784 229 l 1
492 0 m 1
 623 618 l 1
 464 664 315 731 315 917 c 0
 315 945 318 975 325 1008 c 0
 387 1300 846 1441 1174 1441 c 1
 1446 1441 l 0
 1140 0 l 1
 492 0 l 1
EndSplineSet
EndChar

StartChar: periodcentered
Encoding: 183 183 156
Width: 495
Flags: W
HStem: 602 328<335.75 504.647>
VStem: 252 336<684.623 847.821>
LayerCount: 2
Fore
SplineSet
256 766 m 0
 275 857 365 930 455 930 c 0
 534 930 588 875 588 801 c 0
 588 790 587 778 584 766 c 0
 565 676 476 602 385 602 c 0
 307 602 252 658 252 732 c 0
 252 743 254 754 256 766 c 0
EndSplineSet
EndChar

StartChar: cedilla
Encoding: 184 184 157
Width: 528
Flags: W
HStem: -365 439
VStem: 167 224<-169.889 -0.104095>
LayerCount: 2
Back
SplineSet
106.496 -190.464 m 1
 137.216 -167.936 200.704 -122.88 200.704 -86.0156 c 0
 200.704 -53.248 178.176 -28.6719 145.408 18.4316 c 0
 274.432 73.7275 l 0
 317.44 32.7676 358.4 -28.6719 358.4 -98.3037 c 0
 358.4 -208.896 219.136 -270.336 149.504 -315.392 c 1
 106.496 -190.464 l 1
EndSplineSet
Fore
SplineSet
6 -238 m 1
 55 -213 152 -168 161 -127 c 0
 164 -113 167 -100 167 -85 c 0
 167 -65 162 -42 142 -16 c 9
 213 19 323 74 323 74 c 0
 360 34 391 -24 391 -90 c 0
 391 -104 390 -118 387 -133 c 0
 363 -244 190 -319 92 -365 c 1
 6 -238 l 1
EndSplineSet
EndChar

StartChar: guillemotright
Encoding: 187 187 158
Width: 983
Flags: W
HStem: 537 582
LayerCount: 2
Back
SplineSet
223.232 1118.21 m 1
 415.744 827.392 l 1
 223.232 536.576 l 1
 88.0645 536.576 l 1
 280.576 827.392 l 1
 88.0645 1118.21 l 1
 223.232 1118.21 l 1
624.64 1118.21 m 1
 817.152 827.392 l 1
 624.64 536.576 l 1
 489.472 536.576 l 1
 681.984 827.392 l 1
 489.472 1118.21 l 1
 624.64 1118.21 l 1
EndSplineSet
Fore
SplineSet
580 1119 m 1
 711 827 l 1
 456 537 l 1
 241 537 l 1
 495 827 l 1
 365 1118 l 1
 580 1119 l 1
932 1119 m 1
 1059 827 l 1
 808 537 l 1
 593 537 l 1
 843 827 l 1
 713 1118 l 1
 932 1119 l 1
EndSplineSet
EndChar

StartChar: questiondown
Encoding: 191 191 159
Width: 954
Flags: W
HStem: -35 244<343.075 609.367> 1167 328<631.353 800.25>
VStem: 25 287<242.771 457.671>
LayerCount: 2
Fore
SplineSet
499 932 m 1
 527 1063 l 1
 795 1063 l 1
 753 868 l 0
 702 626 366 604 316 368 c 1
 313 355 312 343 312 332 c 0
 312 242 396 209 480 209 c 1
 589 209 678 291 709 393 c 1
 968 352 l 1
 897 135 695 -35 433 -35 c 1
 215 -35 25 72 25 281 c 0
 25 307 28 335 34 364 c 1
 113 735 459 745 499 932 c 1
880 1331 m 0
 861 1240 771 1167 681 1167 c 0
 602 1167 548 1222 548 1296 c 0
 548 1307 549 1319 552 1331 c 0
 571 1421 660 1495 751 1495 c 0
 829 1495 884 1439 884 1365 c 0
 884 1354 882 1343 880 1331 c 0
EndSplineSet
EndChar

StartChar: Agrave
Encoding: 192 192 160
Width: 1421
Flags: W
HStem: 0 21G<20 342.361 1063.12 1377> 382 239<658 1005> 1436 20G<840.571 1165.94>
LayerCount: 2
Fore
SplineSet
1077 1533 m 2
 815 1746 l 2
 807 1753 802 1763 802 1776 c 0
 802 1784 803 1793 805 1802 c 0
 807 1813 810 1824 816 1836 c 0
 826 1858 838 1875 852 1888 c 1
 863 1899 878 1911 894 1921 c 0
 910 1931 927 1938 942 1942 c 0
 949 1944 955 1945 961 1945 c 0
 972 1945 980 1942 987 1935 c 1
 1218 1688 l 2
 1221 1685 1222 1680 1222 1675 c 0
 1222 1670 1221 1663 1220 1657 c 0
 1218 1648 1216 1638 1209 1626 c 0
 1199 1606 1188 1591 1178 1581 c 256
 1168 1571 1155 1561 1140 1550 c 0
 1125 1539 1112 1533 1100 1530 c 0
 1096 1529 1093 1528 1090 1528 c 0
 1085 1528 1080 1530 1077 1533 c 2
939 1124 m 0
 658 621 l 1
 1005 621 l 1
 939 1124 l 0
1163 1456 m 1
 1377 0 l 1
 1066 0 l 0
 1011 382 l 1
 857 382 702 382 548 382 c 1
 331 0 l 0
 20 0 l 1
 852 1456 l 1
 1163 1456 l 1
EndSplineSet
EndChar

StartChar: Aacute
Encoding: 193 193 161
Width: 1421
Flags: W
HStem: 0 21G<20 342.361 1063.12 1377> 382 239<658 1005> 1436 20G<840.571 1165.94>
LayerCount: 2
Fore
SplineSet
1051 1533 m 2
 1046 1530 1042 1528 1037 1528 c 0
 1034 1528 1031 1529 1027 1530 c 0
 1017 1533 1006 1539 995 1550 c 0
 984 1561 977 1571 971 1581 c 256
 965 1591 962 1606 960 1626 c 0
 959 1639 959 1650 961 1660 c 0
 962 1665 964 1670 966 1675 c 0
 968 1680 972 1685 977 1688 c 2
 1311 1935 l 1
 1320 1942 1331 1945 1342 1945 c 0
 1348 1945 1354 1944 1361 1942 c 0
 1374 1938 1387 1931 1399 1921 c 0
 1411 1911 1420 1899 1427 1888 c 0
 1436 1874 1440 1855 1440 1831 c 0
 1440 1821 1439 1812 1437 1802 c 0
 1435 1793 1432 1784 1428 1776 c 0
 1422 1763 1414 1753 1404 1746 c 2
 1051 1533 l 2
939 1124 m 0
 658 621 l 1
 1005 621 l 1
 939 1124 l 0
1163 1456 m 1
 1377 0 l 1
 1066 0 l 0
 1011 382 l 1
 857 382 702 382 548 382 c 1
 331 0 l 0
 20 0 l 1
 852 1456 l 1
 1163 1456 l 1
EndSplineSet
EndChar

StartChar: Acircumflex
Encoding: 194 194 162
Width: 1292
Flags: W
HStem: 0 21G<20 342.361 1063.12 1377> 382 239<658 1005> 1436 20G<840.571 1165.94>
LayerCount: 2
Fore
SplineSet
939 1124 m 0
 658 621 l 1
 1005 621 l 1
 939 1124 l 0
1163 1456 m 1
 1377 0 l 1
 1066 0 l 0
 1011 382 l 1
 857 382 702 382 548 382 c 1
 331 0 l 0
 20 0 l 1
 852 1456 l 1
 1163 1456 l 1
1436 1560 m 1
 1165 1560 l 1
 1067 1721 l 1
 909 1563 l 0
 632 1563 l 1
 989 1904 l 1
 1225 1904 l 1
 1436 1560 l 1
EndSplineSet
EndChar

StartChar: Atilde
Encoding: 195 195 163
Width: 1292
Flags: W
HStem: 0 21G<20 342.361 1063.12 1377> 382 239<658 1005> 1436 20G<840.571 1165.94> 1518 247<1122.08 1289.17> 1670 247<849.867 994.755>
LayerCount: 2
Fore
SplineSet
939 1124 m 0xe0
 658 621 l 1
 1005 621 l 1
 939 1124 l 0xe0
1163 1456 m 1
 1377 0 l 1
 1066 0 l 0
 1011 382 l 1
 857 382 702 382 548 382 c 1
 331 0 l 0
 20 0 l 1
 852 1456 l 1
 1163 1456 l 1
767 1814 m 17
 820 1851 893 1917 971 1917 c 0xe8
 1069 1917 1111 1765 1215 1765 c 1
 1285 1765 1364 1831 1416 1872 c 9
 1361 1612 l 17
 1318 1584 1246 1518 1163 1518 c 0xf0
 1048 1518 998 1670 916 1670 c 0xe8
 839 1670 787 1618 715 1573 c 9
 767 1814 l 17
EndSplineSet
EndChar

StartChar: Adieresis
Encoding: 196 196 164
Width: 1292
Flags: W
HStem: 0 21G<20 342.361 1063.12 1377> 382 239<658 1005> 1436 20G<840.571 1165.94> 1499 328<734.002 906.998 1205 1378>
VStem: 653 335<1579.02 1746.98> 1124 335<1579.02 1746.98>
LayerCount: 2
Fore
SplineSet
939 1124 m 0
 658 621 l 1
 1005 621 l 1
 939 1124 l 0
1163 1456 m 1
 1377 0 l 1
 1066 0 l 0
 1011 382 l 1
 857 382 702 382 548 382 c 1
 331 0 l 0
 20 0 l 1
 852 1456 l 1
 1163 1456 l 1
656 1663 m 0
 666 1708 690 1747 729 1779 c 0
 768 1811 810 1827 855 1827 c 0
 900 1827 936 1811 961 1779 c 0
 979 1756 988 1729 988 1699 c 0
 988 1688 987 1675 984 1663 c 0
 974 1618 951 1579 912 1547 c 0
 873 1515 831 1499 786 1499 c 0
 741 1499 705 1516 680 1548 c 0
 662 1571 653 1598 653 1628 c 0
 653 1639 653 1651 656 1663 c 0
1127 1663 m 0
 1137 1708 1161 1747 1200 1779 c 0
 1239 1811 1281 1827 1326 1827 c 0
 1371 1827 1407 1811 1432 1779 c 0
 1450 1756 1459 1729 1459 1699 c 0
 1459 1688 1458 1675 1455 1663 c 0
 1445 1618 1422 1579 1383 1547 c 0
 1344 1515 1302 1499 1257 1499 c 0
 1212 1499 1176 1516 1151 1548 c 0
 1133 1571 1124 1598 1124 1628 c 0
 1124 1639 1124 1651 1127 1663 c 0
EndSplineSet
EndChar

StartChar: Aring
Encoding: 197 197 165
Width: 1292
Flags: W
HStem: 0 21G<20 342.361 1063.12 1377> 382 239<658 1005> 1436 20G<840.571 1165.94> 1472 162<962.926 1164.94> 1934 162<1007.12 1209.53>
VStem: 761 177<1656.44 1863.56> 1234 176<1704.22 1908.99>
LayerCount: 2
Fore
SplineSet
939 1124 m 0
 658 621 l 1
 1005 621 l 1
 939 1124 l 0
1163 1456 m 1
 1377 0 l 1
 1066 0 l 0
 1011 382 l 1
 857 382 702 382 548 382 c 1
 331 0 l 0
 20 0 l 1
 852 1456 l 1
 1163 1456 l 1
941 1784 m 0
 939 1773 938 1762 938 1751 c 0
 938 1684 984 1634 1054 1634 c 0
 1135 1634 1212 1700 1230 1784 c 0
 1232 1795 1234 1806 1234 1817 c 0
 1234 1884 1188 1934 1118 1934 c 0
 1037 1934 959 1867 941 1784 c 0
768 1784 m 0
 805 1957 977 2096 1153 2096 c 0
 1306 2096 1410 1991 1410 1849 c 0
 1410 1828 1408 1806 1403 1784 c 0
 1366 1611 1196 1472 1020 1472 c 0
 867 1472 761 1578 761 1720 c 0
 761 1741 763 1762 768 1784 c 0
EndSplineSet
EndChar

StartChar: AE
Encoding: 198 198 166
Width: 1589
Flags: W
HStem: 0 250<1137 1473> 590 250<799 946 1264 1598> 1203 253<1341 1729>
LayerCount: 2
Back
SplineSet
775.021 645.346 m 1
 510.447 645.346 l 0
 251.935 0 l 0
 72.5918 0 l 1
 663.998 1456.13 l 1
 1372.83 1456.13 l 1
 1372.83 1307.21 l 0
 930.878 1307.21 l 0
 930.878 788.392 l 1
 1372.83 788.392 l 1
 1372.83 641.075 l 0
 930.878 641.075 l 0
 930.878 147.318 l 0
 1372.83 147.318 l 1
 1372.83 0 l 1
 775.021 0 l 1
 775.021 645.346 l 1
772.885 1236.75 m 1
 772.885 1311.48 l 1
 570.665 788.392 l 1
 775.021 788.392 l 1
 772.885 1236.75 l 1
EndSplineSet
Fore
SplineSet
946 596 m 1
 668 596 l 0
 308 0 l 0
 10 0 l 1
 895 1456 l 1
 1782 1456 l 1
 1729 1203 l 0
 1341 1203 l 0
 1264 840 l 1
 1652 840 l 1
 1598 590 l 0
 1209 590 l 0
 1137 250 l 0
 1526 250 l 1
 1473 0 l 1
 819 0 l 1
 946 596 l 1
1092 1286 m 1
 799 839 l 1
 997 839 l 1
 1092 1286 l 1
EndSplineSet
EndChar

StartChar: Ccedilla
Encoding: 199 199 167
Width: 1220
Flags: W
HStem: -29 240<625.557 920.653> 1245 240<828.472 1116.15>
VStem: 241 283<320.75 807.326> 590 224<-278.889 -109.104> 1218 297<969 1136.27>
LayerCount: 2
Fore
SplineSet
1218 969 m 0
 1218 1095 1148 1245 990 1245 c 1
 736 1245 600 973 547 726 c 1
 533 659 524 591 524 526 c 0
 524 355 586 211 770 211 c 1
 928 211 1061 357 1115 483 c 0
 1409 483 l 0
 1331 251 1066 -29 719 -29 c 1
 363 -29 241 233 241 509 c 0
 241 582 249 656 264 726 c 1
 336 1067 592 1485 1041 1485 c 1
 1369 1485 1515 1232 1515 1010 c 0
 1515 996 1514 982 1513 969 c 0
 1218 969 l 0
429 -347 m 1
 478 -322 575 -277 584 -236 c 0
 587 -222 590 -209 590 -194 c 0
 590 -174 584 -151 564 -125 c 9
 635 -90 746 -35 746 -35 c 0
 783 -75 814 -133 814 -199 c 0
 814 -213 813 -227 810 -242 c 0
 786 -353 613 -428 515 -474 c 1
 429 -347 l 1
EndSplineSet
EndChar

StartChar: Egrave
Encoding: 200 200 168
Width: 1211
Flags: W
HStem: 0 240<434 1097> 626 240<567 1167> 1216 240<641 1355>
LayerCount: 2
Fore
SplineSet
1032 1533 m 2
 770 1746 l 2
 762 1753 758 1763 758 1776 c 0
 758 1784 758 1793 760 1802 c 0
 762 1813 765 1824 771 1836 c 0
 781 1858 793 1875 807 1888 c 1
 818 1899 833 1911 849 1921 c 0
 865 1931 882 1938 897 1942 c 0
 904 1944 910 1945 916 1945 c 0
 927 1945 935 1942 942 1935 c 1
 1173 1688 l 2
 1176 1685 1177 1680 1177 1675 c 0
 1177 1670 1176 1663 1175 1657 c 0
 1173 1648 1171 1638 1164 1626 c 0
 1154 1606 1143 1591 1133 1581 c 256
 1123 1571 1110 1561 1095 1550 c 0
 1080 1539 1067 1533 1055 1530 c 0
 1051 1529 1048 1528 1045 1528 c 0
 1040 1528 1035 1530 1032 1533 c 2
424 1456 m 0
 1406 1456 l 1
 1355 1216 l 0
 641 1216 l 0
 567 866 l 1
 1218 866 l 1
 1167 626 l 0
 516 626 l 0
 434 240 l 0
 1148 240 l 0
 1097 0 l 0
 115 0 l 1
 424 1456 l 0
EndSplineSet
EndChar

StartChar: Eacute
Encoding: 201 201 169
Width: 1211
Flags: W
HStem: 0 240<434 1097> 626 240<567 1167> 1216 240<641 1355>
LayerCount: 2
Fore
SplineSet
961 1533 m 2
 956 1530 952 1528 947 1528 c 0
 944 1528 941 1529 937 1530 c 0
 927 1533 916 1539 905 1550 c 0
 894 1561 887 1571 881 1581 c 256
 875 1591 872 1606 870 1626 c 0
 869 1639 869 1650 871 1660 c 0
 872 1665 874 1670 876 1675 c 0
 878 1680 882 1685 887 1688 c 2
 1221 1935 l 1
 1230 1942 1241 1945 1252 1945 c 0
 1258 1945 1264 1944 1271 1942 c 0
 1284 1938 1297 1931 1309 1921 c 0
 1321 1911 1330 1899 1337 1888 c 1
 1345 1875 1350 1858 1350 1836 c 0
 1350 1824 1349 1813 1347 1802 c 0
 1345 1793 1342 1784 1338 1776 c 0
 1332 1763 1324 1753 1314 1746 c 2
 961 1533 l 2
424 1456 m 0
 1406 1456 l 1
 1355 1216 l 0
 641 1216 l 0
 567 866 l 1
 1218 866 l 1
 1167 626 l 0
 516 626 l 0
 434 240 l 0
 1148 240 l 0
 1097 0 l 0
 115 0 l 1
 424 1456 l 0
EndSplineSet
EndChar

StartChar: Ecircumflex
Encoding: 202 202 170
Width: 1150
Flags: W
HStem: 0 240<434 1097> 626 240<567 1167> 1216 240<641 1355>
LayerCount: 2
Fore
SplineSet
424 1456 m 0
 1406 1456 l 1
 1355 1216 l 0
 641 1216 l 0
 567 866 l 1
 1218 866 l 1
 1167 626 l 0
 516 626 l 0
 434 240 l 0
 1148 240 l 0
 1097 0 l 0
 115 0 l 1
 424 1456 l 0
1376 1537 m 1
 1105 1537 l 1
 1007 1698 l 1
 849 1540 l 0
 572 1540 l 1
 929 1881 l 1
 1165 1881 l 1
 1376 1537 l 1
EndSplineSet
EndChar

StartChar: Edieresis
Encoding: 203 203 171
Width: 1150
Flags: W
HStem: 0 240<434 1097> 626 240<567 1167> 1216 240<641 1355> 1519 328<686.002 859.614 1157 1330.61>
VStem: 605 336<1599.17 1766.98> 1076 336<1599.17 1766.98>
LayerCount: 2
Fore
SplineSet
424 1456 m 0
 1406 1456 l 1
 1355 1216 l 0
 641 1216 l 0
 567 866 l 1
 1218 866 l 1
 1167 626 l 0
 516 626 l 0
 434 240 l 0
 1148 240 l 0
 1097 0 l 0
 115 0 l 1
 424 1456 l 0
609 1683 m 0
 619 1728 642 1767 681 1799 c 0
 720 1831 763 1847 808 1847 c 0
 853 1847 888 1831 913 1799 c 0
 931 1776 941 1749 941 1719 c 0
 941 1708 940 1695 937 1683 c 0
 927 1638 903 1599 864 1567 c 0
 825 1535 783 1519 738 1519 c 0
 693 1519 657 1536 632 1568 c 0
 614 1591 605 1618 605 1648 c 0
 605 1659 606 1671 609 1683 c 0
1080 1683 m 0
 1090 1728 1113 1767 1152 1799 c 0
 1191 1831 1234 1847 1279 1847 c 0
 1324 1847 1359 1831 1384 1799 c 0
 1402 1776 1412 1749 1412 1719 c 0
 1412 1708 1411 1695 1408 1683 c 0
 1398 1638 1374 1599 1335 1567 c 0
 1296 1535 1254 1519 1209 1519 c 0
 1164 1519 1128 1536 1103 1568 c 0
 1085 1591 1076 1618 1076 1648 c 0
 1076 1659 1077 1671 1080 1683 c 0
EndSplineSet
EndChar

StartChar: Igrave
Encoding: 204 204 172
Width: 667
Flags: W
HStem: 0 21G<143 415.245> 1436 20G<447.755 720>
VStem: 143 613
LayerCount: 2
Fore
SplineSet
615 1533 m 2
 353 1746 l 2
 345 1753 340 1763 340 1776 c 0
 340 1784 341 1793 343 1802 c 0
 345 1813 348 1824 354 1836 c 0
 364 1858 376 1875 390 1888 c 1
 401 1899 416 1911 432 1921 c 0
 448 1931 465 1938 480 1942 c 0
 487 1944 493 1945 499 1945 c 0
 510 1945 518 1942 525 1935 c 1
 756 1688 l 2
 759 1685 760 1680 760 1675 c 0
 760 1670 759 1663 758 1657 c 0
 756 1648 754 1638 747 1626 c 0
 737 1606 726 1591 716 1581 c 256
 706 1571 693 1561 678 1550 c 0
 663 1539 650 1533 638 1530 c 0
 634 1529 631 1528 628 1528 c 0
 623 1528 618 1530 615 1533 c 2
143 0 m 1
 452 1456 l 1
 720 1456 l 1
 411 0 l 1
 143 0 l 1
EndSplineSet
EndChar

StartChar: Iacute
Encoding: 205 205 173
Width: 667
Flags: W
HStem: 0 21G<143 415.245> 1436 20G<447.755 720>
LayerCount: 2
Fore
SplineSet
587 1533 m 2
 582 1530 578 1528 573 1528 c 0
 570 1528 567 1529 563 1530 c 0
 553 1533 542 1539 531 1550 c 0
 520 1561 513 1571 507 1581 c 256
 501 1591 498 1606 496 1626 c 0
 495 1639 495 1650 497 1660 c 0
 498 1665 500 1670 502 1675 c 0
 504 1680 508 1685 513 1688 c 2
 847 1935 l 1
 856 1942 867 1945 878 1945 c 0
 884 1945 890 1944 897 1942 c 0
 910 1938 923 1931 935 1921 c 0
 947 1911 956 1899 963 1888 c 0
 972 1874 976 1855 976 1831 c 0
 976 1821 975 1812 973 1802 c 0
 971 1793 968 1784 964 1776 c 0
 958 1763 950 1753 940 1746 c 2
 587 1533 l 2
143 0 m 1
 452 1456 l 1
 720 1456 l 1
 411 0 l 1
 143 0 l 1
EndSplineSet
EndChar

StartChar: Icircumflex
Encoding: 206 206 174
Width: 667
Flags: W
HStem: 0 21G<143 415.245> 1436 20G<447.755 720>
LayerCount: 2
Fore
SplineSet
143 0 m 1
 452 1456 l 1
 720 1456 l 1
 411 0 l 1
 143 0 l 1
1001 1537 m 1
 730 1537 l 1
 632 1698 l 1
 474 1540 l 0
 197 1540 l 1
 554 1881 l 1
 790 1881 l 1
 1001 1537 l 1
EndSplineSet
EndChar

StartChar: Idieresis
Encoding: 207 207 175
Width: 667
Flags: W
HStem: 0 21G<143 415.245> 1436 20G<447.755 720> 1534 328<315.002 488.998 786.002 959.998>
VStem: 234 336<1614.17 1781.6> 705 336<1614.17 1781.6>
LayerCount: 2
Fore
SplineSet
143 0 m 1
 452 1456 l 1
 720 1456 l 1
 411 0 l 1
 143 0 l 1
238 1698 m 0
 248 1743 272 1782 311 1814 c 0
 350 1846 392 1862 437 1862 c 0
 482 1862 518 1846 543 1814 c 0
 561 1791 570 1764 570 1734 c 0
 570 1723 569 1710 566 1698 c 0
 556 1653 532 1614 493 1582 c 0
 454 1550 412 1534 367 1534 c 0
 322 1534 286 1551 261 1583 c 0
 243 1606 234 1633 234 1663 c 0
 234 1674 235 1686 238 1698 c 0
709 1698 m 0
 719 1743 743 1782 782 1814 c 0
 821 1846 863 1862 908 1862 c 0
 953 1862 989 1846 1014 1814 c 0
 1032 1791 1041 1764 1041 1734 c 0
 1041 1723 1040 1710 1037 1698 c 0
 1027 1653 1003 1614 964 1582 c 0
 925 1550 883 1534 838 1534 c 0
 793 1534 757 1551 732 1583 c 0
 714 1606 705 1633 705 1663 c 0
 705 1674 706 1686 709 1698 c 0
EndSplineSet
EndChar

StartChar: Eth
Encoding: 208 208 176
Width: 1480
Flags: W
HStem: 0 243<580 927.207> 612 239<316 390 708 904> 1211 245<784 1110.25>
VStem: 1260 272<634.626 1056.63>
LayerCount: 2
Back
SplineSet
315.392 662.405 m 1
 134.184 662.405 l 1
 134.184 802.979 l 1
 315.392 802.979 l 1
 315.392 1456.13 l 1
 696.483 1456.13 l 1
 1062.83 1456.13 1301.22 1133.12 1301.22 726.303 c 1
 1301.22 319.488 1056.44 0 696.483 0 c 0
 470.549 0 l 1
 315.392 0 l 1
 315.392 662.405 l 1
472.679 662.405 m 1
 472.679 142.704 l 1
 696.483 142.704 l 1
 954.204 142.704 1143.93 379.126 1143.93 726.303 c 1
 1143.93 1073.48 954.204 1312.03 696.483 1312.03 c 1
 472.679 1312.03 l 1
 472.679 802.979 l 1
 773.161 802.979 l 1
 773.161 662.405 l 1
 472.679 662.405 l 1
EndSplineSet
Fore
SplineSet
390 612 m 1
 265 612 l 1
 316 851 l 1
 441 851 l 1
 569 1456 l 1
 1005 1456 l 1
 1342 1456 1532 1227 1532 913 c 0
 1532 854 1526 791 1512 727 c 1
 1425 320 1090 0 696 0 c 0
 471 0 l 1
 260 0 l 1
 390 612 l 1
658 612 m 1
 580 243 l 1
 748 243 l 1
 975 243 1184 439 1245 727 c 1
 1255 776 1260 822 1260 865 c 0
 1260 1075 1141 1211 953 1211 c 1
 784 1211 l 1
 708 851 l 1
 955 851 l 1
 904 612 l 1
 658 612 l 1
EndSplineSet
EndChar

StartChar: Ntilde
Encoding: 209 209 177
Width: 1292
Flags: W
HStem: 0 21G<115 387.255 944.559 1220.24> 1436 20G<419.755 691.957 1252.77 1525> 1497 247<1057.6 1224.53> 1649 247<785.582 930.607>
LayerCount: 2
Fore
SplineSet
115 0 m 1xc0
 424 1456 l 2
 684 1456 l 1
 1058 516 l 25
 1257 1456 l 1
 1525 1456 l 1
 1216 0 l 0
 952 0 l 1
 590 973 l 0
 383 0 l 1
 115 0 l 1xc0
702 1793 m 17
 755 1830 829 1896 907 1896 c 0xd0
 1005 1896 1047 1744 1151 1744 c 1
 1221 1744 1299 1810 1351 1851 c 9
 1296 1591 l 17
 1253 1563 1181 1497 1098 1497 c 0xe0
 983 1497 934 1649 852 1649 c 0xd0
 775 1649 723 1597 651 1552 c 9
 702 1793 l 17
EndSplineSet
EndChar

StartChar: Ugrave
Encoding: 217 217 178
Width: 1298
Flags: W
HStem: -35 240<555.472 824.074> 1436 20G<419.77 692 1196.77 1469>
VStem: 218 273<274.975 694.75>
LayerCount: 2
Fore
SplineSet
992 1533 m 2
 730 1746 l 2
 722 1753 718 1763 718 1776 c 0
 718 1784 718 1793 720 1802 c 0
 722 1813 725 1824 731 1836 c 0
 741 1858 753 1875 767 1888 c 1
 778 1899 793 1911 809 1921 c 0
 825 1931 842 1938 857 1942 c 0
 864 1944 870 1945 876 1945 c 0
 887 1945 895 1942 902 1935 c 1
 1133 1688 l 2
 1136 1685 1137 1680 1137 1675 c 0
 1137 1670 1136 1663 1135 1657 c 0
 1133 1648 1131 1638 1124 1626 c 0
 1114 1606 1103 1591 1093 1581 c 256
 1083 1571 1070 1561 1055 1550 c 0
 1040 1539 1027 1533 1015 1530 c 0
 1011 1529 1008 1528 1005 1528 c 0
 1000 1528 995 1530 992 1533 c 2
630 -35 m 1
 354 -35 218 135 218 393 c 0
 218 453 225 517 240 586 c 2
 424 1456 l 1
 692 1456 l 1
 508 586 l 2
 498 538 491 489 491 442 c 0
 491 313 539 205 681 205 c 1
 875 205 978 404 1017 586 c 2
 1201 1456 l 1
 1469 1456 l 1
 1285 586 l 2
 1208 222 971 -35 630 -35 c 1
EndSplineSet
EndChar

StartChar: Uacute
Encoding: 218 218 179
Width: 1298
Flags: W
HStem: -35 240<555.472 824.074> 1436 20G<419.77 692 1196.77 1469>
VStem: 218 273<274.975 694.75>
LayerCount: 2
Fore
SplineSet
981 1533 m 2
 976 1530 972 1528 967 1528 c 0
 964 1528 961 1529 957 1530 c 0
 947 1533 936 1539 925 1550 c 0
 914 1561 907 1571 901 1581 c 256
 895 1591 892 1606 890 1626 c 0
 889 1639 889 1650 891 1660 c 0
 892 1665 894 1670 896 1675 c 0
 898 1680 902 1685 907 1688 c 2
 1241 1935 l 1
 1250 1942 1261 1945 1272 1945 c 0
 1278 1945 1284 1944 1291 1942 c 0
 1304 1938 1317 1931 1329 1921 c 0
 1341 1911 1350 1899 1357 1888 c 1
 1365 1875 1370 1858 1370 1836 c 0
 1370 1824 1369 1813 1367 1802 c 0
 1365 1793 1362 1784 1358 1776 c 0
 1352 1763 1344 1753 1334 1746 c 2
 981 1533 l 2
630 -35 m 1
 354 -35 218 135 218 393 c 0
 218 453 225 517 240 586 c 2
 424 1456 l 1
 692 1456 l 1
 508 586 l 2
 498 538 491 489 491 442 c 0
 491 313 539 205 681 205 c 1
 875 205 978 404 1017 586 c 2
 1201 1456 l 1
 1469 1456 l 1
 1285 586 l 2
 1208 222 971 -35 630 -35 c 1
EndSplineSet
EndChar

StartChar: agrave
Encoding: 224 224 180
Width: 1036
Flags: W
HStem: -29 220<359.837 620.32> 0 21G<721 982.262> 524 217<498.931 761.483> 897 205<474.369 812.039>
VStem: 156 249<233.538 432.566> 867 257<578.891 843.578>
LayerCount: 2
Fore
SplineSet
814 1185 m 2x3c
 552 1398 l 2
 544 1405 540 1415 540 1428 c 0
 540 1436 540 1445 542 1454 c 0
 544 1465 547 1476 553 1488 c 0
 563 1510 575 1527 589 1540 c 1
 600 1551 615 1563 631 1573 c 0
 647 1583 664 1590 679 1594 c 0
 686 1596 692 1597 698 1597 c 0
 709 1597 717 1594 724 1587 c 1
 955 1340 l 2
 958 1337 959 1332 959 1327 c 0
 959 1322 958 1315 957 1309 c 0
 955 1300 953 1290 946 1278 c 0
 936 1258 925 1243 915 1233 c 256
 905 1223 892 1213 877 1202 c 0
 862 1191 849 1185 837 1182 c 0
 833 1181 830 1180 827 1180 c 0
 822 1180 817 1182 814 1185 c 2x3c
646 524 m 1
 524 524 426 442 408 356 c 1
 406 346 405 336 405 327 c 0
 405 253 468 191 576 191 c 1xbc
 698 191 785 270 803 356 c 1
 805 367 806 378 806 389 c 0
 806 462 752 524 646 524 c 1
608 741 m 1
 748 741 833 654 841 576 c 1
 859 658 l 0
 865 684 867 708 867 729 c 0
 867 871 750 897 663 897 c 1
 563 897 494 868 435 844 c 9
 367 1008 l 17
 436 1056 599 1102 706 1102 c 1
 931 1102 1124 1009 1124 750 c 0
 1124 708 1118 661 1107 609 c 10
 1043 305 l 2
 978 0 l 1
 721 0 l 1x7c
 750 136 l 1
 708 58 588 -29 448 -29 c 1
 275 -29 156 93 156 268 c 0
 156 297 159 327 166 358 c 1
 213 580 410 741 608 741 c 1
EndSplineSet
EndChar

StartChar: aacute
Encoding: 225 225 181
Width: 1036
Flags: W
HStem: -29 220<359.837 620.32> 0 21G<721 982.262> 524 217<498.931 761.483> 897 205<474.369 812.039>
VStem: 156 249<233.538 432.566> 867 257<578.891 843.578>
LayerCount: 2
Fore
SplineSet
724 1183 m 2x3c
 719 1180 715 1178 710 1178 c 0
 707 1178 705 1179 701 1180 c 0
 691 1183 680 1189 669 1200 c 0
 658 1211 651 1221 645 1231 c 256
 639 1241 635 1256 633 1276 c 0
 632 1289 632 1300 634 1310 c 0
 635 1315 638 1320 640 1325 c 0
 642 1330 645 1335 650 1338 c 2
 985 1585 l 1
 994 1592 1005 1595 1016 1595 c 0
 1022 1595 1027 1594 1034 1592 c 0
 1047 1588 1061 1581 1073 1571 c 0
 1085 1561 1094 1549 1101 1538 c 0
 1110 1524 1114 1505 1114 1481 c 0
 1114 1471 1113 1462 1111 1452 c 0
 1109 1443 1106 1434 1102 1426 c 0
 1096 1413 1088 1403 1078 1396 c 2
 724 1183 l 2x3c
646 524 m 1
 524 524 426 442 408 356 c 1
 406 346 405 336 405 327 c 0
 405 253 468 191 576 191 c 1xbc
 698 191 785 270 803 356 c 1
 805 367 806 378 806 389 c 0
 806 462 752 524 646 524 c 1
608 741 m 1
 748 741 833 654 841 576 c 1
 859 658 l 0
 865 684 867 708 867 729 c 0
 867 871 750 897 663 897 c 1
 563 897 494 868 435 844 c 9
 367 1008 l 17
 436 1056 599 1102 706 1102 c 1
 931 1102 1124 1009 1124 750 c 0
 1124 708 1118 661 1107 609 c 10
 1043 305 l 2
 978 0 l 1
 721 0 l 1x7c
 750 136 l 1
 708 58 588 -29 448 -29 c 1
 275 -29 156 93 156 268 c 0
 156 297 159 327 166 358 c 1
 213 580 410 741 608 741 c 1
EndSplineSet
EndChar

StartChar: ccedilla
Encoding: 231 231 182
Width: 847
Flags: W
HStem: -50 20G<518.556 577.5> -29 232<526.895 771.492> 870 230<646.467 884.944>
VStem: 182 268<284.086 626.618> 403 224<-273.889 -104.104>
LayerCount: 2
Fore
SplineSet
927 756 m 1xf0
 905 817 863 870 771 870 c 0
 641 870 503 731 461 532 c 0
 454 498 450 467 450 437 c 0
 450 293 530 203 649 203 c 1
 756 203 789 262 829 315 c 9
 1019 204 l 0
 926 90 772 -29 600 -29 c 1
 332 -29 182 126 182 375 c 0
 182 424 187 477 199 532 c 0
 271 871 531 1100 820 1100 c 0
 973 1100 1115 1010 1163 868 c 1
 927 756 l 1xf0
242 -342 m 1
 291 -317 388 -272 397 -231 c 0
 400 -217 403 -204 403 -189 c 0
 403 -169 397 -146 377 -120 c 9
 448 -85 559 -30 559 -30 c 0
 596 -70 627 -128 627 -194 c 0xe8
 627 -208 626 -222 623 -237 c 0
 599 -348 426 -423 328 -469 c 1
 242 -342 l 1
EndSplineSet
EndChar

StartChar: ntilde
Encoding: 241 241 183
Width: 1089
Flags: W
HStem: 0 21G<119 381.254 756 1018.25> 867 235<753.921 993.5> 1054 20G<342.754 605> 1157 247<916.224 1083.17> 1309 247<644.198 789.246>
VStem: 893 278<530.461 843.055>
LayerCount: 2
Fore
SplineSet
377 0 m 9xc4
 119 0 l 1
 347 1074 l 1
 605 1074 l 1xa4
 571 912 l 17
 650 1016 792 1102 934 1102 c 0
 1053 1102 1171 998 1171 798 c 0
 1171 758 1166 715 1156 668 c 1
 1014 0 l 1
 756 0 l 0
 870 537 l 2
 886 611 893 669 893 714 c 0
 893 838 839 867 760 867 c 0
 652 867 549 810 491 536 c 2
 377 0 l 9xc4
561 1453 m 17
 614 1490 688 1556 766 1556 c 0x8c
 864 1556 905 1404 1009 1404 c 1
 1079 1404 1158 1470 1210 1511 c 9
 1155 1251 l 17
 1112 1223 1040 1157 957 1157 c 0x94
 842 1157 792 1309 710 1309 c 0x8c
 633 1309 582 1257 510 1212 c 9
 561 1453 l 17
EndSplineSet
EndChar

StartChar: ugrave
Encoding: 249 249 184
Width: 991
Flags: W
HStem: -29 235<350 598.113> 0 21G<745 1007.25> 1053 20G<331.762 594 967.746 1231>
VStem: 192 269<238.576 602.688>
LayerCount: 2
Fore
SplineSet
829 1185 m 2x30
 567 1398 l 2
 559 1405 555 1415 555 1428 c 0
 555 1436 555 1445 557 1454 c 0
 559 1465 562 1476 568 1488 c 0
 578 1510 590 1527 604 1540 c 1
 615 1551 630 1563 646 1573 c 0
 662 1583 679 1590 694 1594 c 0
 701 1596 707 1597 713 1597 c 0
 724 1597 732 1594 739 1587 c 1
 970 1340 l 2
 973 1337 974 1332 974 1327 c 0
 974 1322 973 1315 972 1309 c 0
 970 1300 968 1290 961 1278 c 0
 951 1258 940 1243 930 1233 c 256
 920 1223 907 1213 892 1202 c 0
 877 1191 864 1185 852 1182 c 0
 848 1181 845 1180 842 1180 c 0
 837 1180 832 1182 829 1185 c 2x30
1003 0 m 2x70
 745 0 l 2x70
 779 161 l 17
 700 57 559 -29 422 -29 c 0
 278 -29 192 75 192 287 c 0
 192 358 202 440 222 535 c 1
 336 1073 l 1
 594 1073 l 0
 480 536 l 2
 467 474 461 423 461 381 c 0
 461 239 528 206 590 206 c 0xb0
 670 206 800 263 858 537 c 2
 972 1073 l 9
 1231 1073 l 1
 1003 0 l 2x70
EndSplineSet
EndChar

StartChar: uacute
Encoding: 250 250 185
Width: 1024
Flags: W
HStem: -29 235<350 598.113> 0 21G<745 1007.25> 1053 20G<331.762 594 967.746 1231>
VStem: 192 269<238.576 602.688>
LayerCount: 2
Fore
SplineSet
782 1183 m 2x30
 777 1180 773 1178 768 1178 c 0
 765 1178 763 1179 759 1180 c 0
 749 1183 738 1189 727 1200 c 0
 716 1211 709 1221 703 1231 c 256
 697 1241 693 1256 691 1276 c 0
 690 1289 690 1300 692 1310 c 0
 693 1315 696 1320 698 1325 c 0
 700 1330 703 1335 708 1338 c 2
 1043 1585 l 1
 1052 1592 1063 1595 1074 1595 c 0
 1080 1595 1085 1594 1092 1592 c 0
 1105 1588 1119 1581 1131 1571 c 0
 1143 1561 1152 1549 1159 1538 c 1
 1167 1525 1172 1508 1172 1486 c 0
 1172 1474 1171 1463 1169 1452 c 0
 1167 1443 1164 1434 1160 1426 c 0
 1154 1413 1146 1403 1136 1396 c 2
 782 1183 l 2x30
1003 0 m 2x70
 745 0 l 2x70
 779 161 l 17
 700 57 559 -29 422 -29 c 0
 278 -29 192 75 192 287 c 0
 192 358 202 440 222 535 c 1
 336 1073 l 1
 594 1073 l 0
 480 536 l 2
 467 474 461 423 461 381 c 0
 461 239 528 206 590 206 c 0xb0
 670 206 800 263 858 537 c 2
 972 1073 l 9
 1231 1073 l 1
 1003 0 l 2x70
EndSplineSet
EndChar

StartChar: figuredash
Encoding: 8210 8210 186
Width: 1177
Flags: W
HStem: 426 240<210 1203>
LayerCount: 2
Back
SplineSet
159.744 675.84 m 1
 927.744 675.84 l 1
 927.744 540.672 l 1
 159.744 540.672 l 1
 159.744 675.84 l 1
EndSplineSet
Fore
SplineSet
210 666 m 1
 1254 666 l 1
 1203 426 l 1
 159 426 l 1
 210 666 l 1
EndSplineSet
EndChar

StartChar: endash
Encoding: 8211 8211 187
Width: 1343
Flags: W
HStem: 426 240<261 1311>
LayerCount: 2
Back
SplineSet
159.744 675.84 m 1
 845.824 675.84 l 1
 845.824 540.672 l 1
 159.744 540.672 l 1
 159.744 675.84 l 1
EndSplineSet
Fore
SplineSet
261 666 m 1
 1362 666 l 1
 1311 426 l 1
 210 426 l 1
 261 666 l 1
EndSplineSet
EndChar

StartChar: emdash
Encoding: 8212 8212 188
Width: 1548
Flags: W
HStem: 426 239<207 1583>
LayerCount: 2
Back
SplineSet
139.264 675.84 m 1
 1148.93 675.84 l 1
 1148.93 540.672 l 1
 139.264 540.672 l 1
 139.264 675.84 l 1
EndSplineSet
Fore
SplineSet
207 665 m 1
 1633 665 l 1
 1583 426 l 1
 157 426 l 1
 207 665 l 1
EndSplineSet
EndChar

StartChar: quoteleft
Encoding: 8216 8216 189
Width: 385
Flags: W
HStem: 1111 503
LayerCount: 2
Fore
SplineSet
279 1272 m 1
 314 1436 477 1578 531 1614 c 1
 596 1571 l 1
 583 1555 532 1483 525 1449 c 0
 524 1445 525 1441 525 1438 c 1
 569 1427 610 1389 610 1318 c 0
 610 1304 609 1288 605 1272 c 1
 588 1194 498 1111 412 1111 c 1
 314 1111 276 1177 276 1240 c 0
 276 1251 277 1262 279 1272 c 1
EndSplineSet
EndChar

StartChar: quoteright
Encoding: 8217 8217 190
Width: 385
Flags: W
HStem: 1102 503
LayerCount: 2
Fore
SplineSet
671 1444 m 1
 636 1280 473 1138 419 1102 c 1
 354 1145 l 1
 367 1161 418 1233 425 1267 c 0
 426 1271 426 1275 426 1278 c 1
 382 1289 340 1327 340 1398 c 0
 340 1412 341 1428 345 1444 c 1
 362 1522 452 1605 538 1605 c 1
 636 1605 674 1539 674 1476 c 0
 674 1465 673 1454 671 1444 c 1
EndSplineSet
EndChar

StartChar: quotesinglbase
Encoding: 8218 8218 191
Width: 385
Flags: W
HStem: -188 503
LayerCount: 2
Fore
SplineSet
391 154 m 1
 356 -10 193 -152 139 -188 c 1
 74 -145 l 1
 87 -129 138 -57 145 -23 c 0
 146 -19 145 -15 145 -12 c 1
 101 -1 60 37 60 108 c 0
 60 122 61 138 65 154 c 1
 82 232 172 315 258 315 c 1
 356 315 394 249 394 186 c 0
 394 175 393 164 391 154 c 1
EndSplineSet
EndChar

StartChar: quotereversed
Encoding: 8219 8219 192
Width: 385
Flags: W
HStem: 1111 503
LayerCount: 2
Fore
SplineSet
291 1272 m 1
 326 1436 489 1578 543 1614 c 1
 608 1571 l 1
 595 1555 544 1483 537 1449 c 0
 536 1445 537 1441 537 1438 c 1
 581 1427 622 1389 622 1318 c 0
 622 1304 621 1288 617 1272 c 1
 600 1194 510 1111 424 1111 c 1
 326 1111 288 1177 288 1240 c 0
 288 1251 289 1262 291 1272 c 1
EndSplineSet
EndChar

StartChar: quotedblleft
Encoding: 8220 8220 193
Width: 770
Flags: W
HStem: 1111 503
LayerCount: 2
Fore
SplineSet
689 1272 m 1
 724 1436 887 1578 941 1614 c 1
 1006 1571 l 1
 993 1555 942 1483 935 1449 c 0
 934 1445 935 1441 935 1438 c 1
 979 1427 1020 1389 1020 1318 c 0
 1020 1304 1019 1288 1015 1272 c 1
 998 1194 908 1111 822 1111 c 1
 724 1111 686 1177 686 1240 c 0
 686 1251 687 1262 689 1272 c 1
288 1274 m 1
 323 1438 485 1580 539 1616 c 1
 604 1573 l 1
 591 1557 540 1485 533 1451 c 0
 532 1447 533 1443 533 1440 c 1
 577 1429 619 1391 619 1320 c 0
 619 1306 618 1290 614 1274 c 1
 597 1196 507 1113 421 1113 c 1
 323 1113 284 1179 284 1242 c 0
 284 1253 286 1264 288 1274 c 1
EndSplineSet
EndChar

StartChar: quotedblright
Encoding: 8221 8221 194
Width: 770
Flags: W
HStem: 1102 503
LayerCount: 2
Fore
SplineSet
1042 1444 m 1
 1007 1280 844 1138 790 1102 c 1
 725 1145 l 1
 738 1161 789 1233 796 1267 c 0
 797 1271 797 1275 797 1278 c 1
 753 1289 711 1327 711 1398 c 0
 711 1412 712 1428 716 1444 c 1
 733 1522 823 1605 909 1605 c 1
 1007 1605 1045 1539 1045 1476 c 0
 1045 1465 1044 1454 1042 1444 c 1
663 1446 m 1
 628 1282 466 1140 412 1104 c 1
 347 1147 l 1
 360 1163 411 1235 418 1269 c 0
 419 1273 418 1277 418 1280 c 1
 374 1291 332 1329 332 1400 c 0
 332 1414 333 1430 337 1446 c 1
 354 1524 445 1607 531 1607 c 1
 629 1607 667 1541 667 1478 c 0
 667 1467 665 1456 663 1446 c 1
EndSplineSet
EndChar

StartChar: OE
Encoding: 338 338 195
Width: 1661
Flags: W
HStem: -29 242<572.034 814.425> 0 240<1142 1585> 627 239<1275 1655> 1217 238<1350 1844> 1249 240<769.392 1021.62>
VStem: 231 280<274.584 802.856>
LayerCount: 2
Fore
SplineSet
823 0 m 9x74
 824 7 l 17
 763 -16 696 -29 619 -29 c 0
 307 -29 231 238 231 480 c 0
 231 583 245 682 260 754 c 0
 310 990 496 1489 941 1489 c 0xac
 1018 1489 1081 1477 1132 1455 c 1
 1894 1456 l 1
 1844 1217 l 0
 1350 1217 l 0
 1329 1119 l 1
 1275 866 l 1
 1310 866 l 1
 1706 866 l 1
 1655 627 l 0
 1259 627 l 1
 1224 627 l 0
 1169 368 l 1
 1142 240 l 0
 1636 240 l 0
 1585 0 l 0
 823 0 l 9x74
1061 1118 m 1
 1050 1196 1004 1249 890 1249 c 0
 670 1249 571 885 543 754 c 1
 531 697 511 586 511 479 c 0
 511 342 544 213 670 213 c 1
 784 213 853 272 899 359 c 1
 1061 1118 l 1
EndSplineSet
EndChar

StartChar: oe
Encoding: 339 339 196
Width: 1627
Flags: W
HStem: -29 235<475.409 680.834 1066.54 1280.11> 469 182<1091 1428.89> 866 234<594.72 804.286 1181.87 1402.58>
VStem: 187 252<240.19 627.52> 1430 241<652.663 841.974>
LayerCount: 2
Fore
SplineSet
1091 651 m 1
 1424 651 l 1
 1427 675 1430 699 1430 722 c 0
 1430 803 1402 868 1303 868 c 0
 1177 868 1122 760 1091 651 c 1
844 111 m 1
 756 24 646 -29 519 -29 c 1
 294 -29 187 139 187 363 c 0
 187 418 193 477 206 537 c 0
 271 842 478 1100 759 1100 c 0
 885 1100 972 1048 1024 963 c 1
 1117 1048 1230 1098 1352 1098 c 0
 1564 1098 1671 947 1671 723 c 0
 1671 665 1664 603 1650 537 c 0
 1636 469 l 1
 1052 469 l 1
 1044 426 1040 390 1040 360 c 0
 1040 227 1109 201 1171 201 c 0
 1230 201 1251 221 1299 267 c 0
 1506 169 l 0
 1392 38 1255 -29 1122 -29 c 1
 998 -29 903 23 844 111 c 1
458 537 m 0
 445 476 439 425 439 381 c 0
 439 263 485 206 570 206 c 0
 659 206 726 269 774 402 c 0
 788 441 801 486 812 537 c 1
 823 589 830 634 832 673 c 0
 833 684 833 693 833 703 c 0
 833 813 792 866 710 866 c 1
 594 866 506 762 458 537 c 0
EndSplineSet
EndChar

StartChar: trademark
Encoding: 8482 8482 197
Width: 1529
Flags: W
HStem: 1074 21G<508 696.276 954 1139.26 1245.93 1429.66 1535 1720.27> 1682 170<435 638 822 1050>
LayerCount: 2
Fore
SplineSet
954 1074 m 1
 1120 1852 l 1
 1342 1852 l 1
 1400 1388 l 1
 1660 1852 l 1
 1882 1852 l 1
 1716 1074 l 1
 1535 1074 l 1
 1613 1438 l 1
 1419 1074 l 1
 1248 1074 l 1
 1211 1431 l 1
 1135 1074 l 1
 954 1074 l 1
435 1852 m 1
 1086 1852 l 1
 1050 1682 l 1
 822 1682 l 1
 692 1074 l 1
 508 1074 l 1
 638 1682 l 1
 399 1682 l 1
 435 1852 l 1
EndSplineSet
EndChar

StartChar: Abreve
Encoding: 258 258 200
Width: 1421
GlyphClass: 2
Flags: W
HStem: 0 21G<20 342.361 1063.12 1377> 382 239<658 1005> 1436 20G<840.571 1165.94> 1516 236<1009.95 1203.86>
LayerCount: 2
Fore
SplineSet
939 1124 m 0
 658 621 l 1
 1005 621 l 1
 939 1124 l 0
1163 1456 m 1
 1377 0 l 1
 1066 0 l 0
 1011 382 l 1
 857 382 702 382 548 382 c 1
 331 0 l 0
 20 0 l 1
 852 1456 l 1
 1163 1456 l 1
1169 1768 m 0
 1206 1791 1260 1849 1333 1942 c 1
 1490 1942 l 1
 1489 1932 1486 1921 1484 1911 c 0
 1467 1833 1428 1755 1364 1676 c 0
 1327 1630 1279 1592 1217 1561 c 0
 1159 1531 1102 1516 1049 1516 c 0
 996 1516 947 1531 901 1561 c 0
 853 1592 819 1630 802 1676 c 0
 783 1727 773 1777 773 1827 c 0
 773 1855 776 1883 782 1911 c 0
 784 1921 787 1932 790 1942 c 1
 951 1942 l 1
 971 1855 999 1798 1036 1769 c 0
 1050 1758 1072 1753 1103 1752 c 1
 1130 1753 1153 1758 1169 1768 c 0
EndSplineSet
EndChar

StartChar: abreve
Encoding: 259 259 201
Width: 1080
GlyphClass: 2
Flags: W
HStem: -29 220<359.837 620.32> 0 21G<721 982.262> 524 217<498.931 761.483> 897 205<474.369 812.039> 1166 236<749.797 942.87>
VStem: 156 249<233.538 432.566> 867 257<578.891 843.578>
LayerCount: 2
Fore
SplineSet
646 524 m 1xbe
 524 524 426 442 408 356 c 1
 406 346 405 336 405 327 c 0
 405 253 468 191 576 191 c 1
 698 191 785 270 803 356 c 1
 805 367 806 378 806 389 c 0
 806 462 752 524 646 524 c 1xbe
608 741 m 1
 748 741 833 654 841 576 c 1
 859 658 l 0
 865 684 867 708 867 729 c 0
 867 871 750 897 663 897 c 1
 563 897 494 868 435 844 c 9
 367 1008 l 17
 436 1056 599 1102 706 1102 c 1
 931 1102 1124 1009 1124 750 c 0
 1124 708 1118 661 1107 609 c 10
 1043 305 l 2
 978 0 l 1
 721 0 l 1x7e
 750 136 l 1
 708 58 588 -29 448 -29 c 1
 275 -29 156 93 156 268 c 0
 156 297 159 327 166 358 c 1
 213 580 410 741 608 741 c 1
908 1418 m 0
 945 1441 999 1499 1072 1592 c 1
 1229 1592 l 1
 1228 1582 1226 1571 1224 1561 c 0
 1207 1483 1168 1405 1104 1326 c 0
 1067 1280 1018 1242 956 1211 c 0
 898 1181 842 1166 789 1166 c 0
 736 1166 686 1181 640 1211 c 0
 592 1242 559 1280 542 1326 c 0
 523 1377 513 1427 513 1477 c 0
 513 1505 516 1533 522 1561 c 0
 524 1571 526 1582 529 1592 c 1
 690 1592 l 1
 710 1505 739 1448 776 1419 c 0
 790 1408 812 1403 843 1402 c 1
 870 1403 892 1408 908 1418 c 0
EndSplineSet
EndChar

StartChar: Aogonek
Encoding: 260 260 202
Width: 1421
GlyphClass: 2
Flags: W
HStem: 0 21G<-4 318.361 1039.12 1353> 382 239<634 981> 1436 20G<816.571 1141.94>
VStem: 1014 230<-174.75 -17.7461>
LayerCount: 2
Fore
SplineSet
915 1124 m 0
 634 621 l 1
 981 621 l 1
 915 1124 l 0
1139 1456 m 1
 1353 0 l 1
 1042 0 l 0
 987 382 l 1
 833 382 678 382 524 382 c 1
 307 0 l 0
 -4 0 l 1
 828 1456 l 1
 1139 1456 l 1
1352 -217 m 1
 1212 -344 l 1
 1198 -337 1184 -328 1168 -318 c 0
 1152 -308 1137 -298 1121 -288 c 0
 1105 -278 1090 -266 1076 -252 c 0
 1062 -238 1049 -225 1039 -211 c 0
 1029 -197 1021 -181 1017 -164 c 0
 1015 -155 1014 -145 1014 -136 c 0
 1014 -128 1014 -120 1016 -112 c 0
 1032 -38 1082 31 1168 95 c 1
 1311 5 l 1
 1295 -9 1282 -24 1272 -38 c 0
 1262 -52 1256 -64 1253 -72 c 0
 1250 -80 1247 -91 1244 -106 c 0
 1242 -115 1245 -126 1253 -137 c 0
 1261 -148 1269 -159 1280 -168 c 0
 1291 -177 1304 -186 1317 -195 c 0
 1330 -204 1342 -212 1352 -217 c 1
EndSplineSet
EndChar

StartChar: aogonek
Encoding: 261 261 203
Width: 1080
GlyphClass: 2
Flags: W
HStem: -29 220<359.837 620.32> 0 21G<721 982.262> 524 217<498.931 761.483> 897 205<474.369 812.039>
VStem: 156 249<233.538 432.566> 676 230<-174.75 -17.7461> 867 257<578.891 843.578>
LayerCount: 2
Fore
SplineSet
646 524 m 1xb8
 524 524 426 442 408 356 c 1
 406 346 405 336 405 327 c 0
 405 253 468 191 576 191 c 1
 698 191 785 270 803 356 c 1
 805 367 806 378 806 389 c 0
 806 462 752 524 646 524 c 1xb8
608 741 m 1
 748 741 833 654 841 576 c 1
 859 658 l 0
 865 684 867 708 867 729 c 0
 867 871 750 897 663 897 c 1
 563 897 494 868 435 844 c 9
 367 1008 l 17
 436 1056 599 1102 706 1102 c 1
 931 1102 1124 1009 1124 750 c 0
 1124 708 1118 661 1107 609 c 10
 1043 305 l 2
 978 0 l 1
 721 0 l 1x7a
 750 136 l 1
 708 58 588 -29 448 -29 c 1
 275 -29 156 93 156 268 c 0
 156 297 159 327 166 358 c 1
 213 580 410 741 608 741 c 1
1014 -217 m 1
 874 -344 l 1
 860 -337 846 -328 830 -318 c 0
 814 -308 799 -298 783 -288 c 0
 767 -278 752 -266 738 -252 c 0
 724 -238 711 -225 701 -211 c 0
 691 -197 683 -181 679 -164 c 0
 677 -155 676 -145 676 -136 c 0
 676 -128 676 -120 678 -112 c 0
 694 -38 744 31 830 95 c 1
 973 5 l 1
 957 -9 944 -24 934 -38 c 0
 924 -52 918 -64 915 -72 c 0
 912 -80 909 -91 906 -106 c 0x3c
 904 -115 907 -126 915 -137 c 0
 923 -148 931 -159 942 -168 c 0
 953 -177 966 -186 979 -195 c 0
 992 -204 1004 -212 1014 -217 c 1
EndSplineSet
EndChar

StartChar: Cacute
Encoding: 262 262 204
Width: 1310
GlyphClass: 2
Flags: W
HStem: -29 240<615.557 910.653> 1245 240<818.472 1106.15>
VStem: 231 283<320.75 807.326> 1208 297<969 1136.27>
LayerCount: 2
Fore
SplineSet
1208 969 m 0
 1208 1095 1138 1245 980 1245 c 1
 726 1245 590 973 537 726 c 1
 523 659 514 591 514 526 c 0
 514 355 576 211 760 211 c 1
 918 211 1051 357 1105 483 c 0
 1399 483 l 0
 1321 251 1056 -29 709 -29 c 1
 353 -29 231 233 231 509 c 0
 231 582 239 656 254 726 c 1
 326 1067 582 1485 1031 1485 c 1
 1359 1485 1505 1232 1505 1010 c 0
 1505 996 1504 982 1503 969 c 0
 1208 969 l 0
1021 1533 m 2
 1016 1530 1012 1528 1007 1528 c 0
 1004 1528 1001 1529 997 1530 c 0
 987 1533 976 1539 965 1550 c 0
 954 1561 947 1571 941 1581 c 256
 935 1591 932 1606 930 1626 c 0
 930 1631 929 1636 929 1640 c 0
 929 1647 930 1654 931 1660 c 0
 932 1665 934 1670 936 1675 c 0
 938 1680 942 1685 947 1688 c 2
 1281 1935 l 1
 1290 1942 1301 1945 1312 1945 c 0
 1318 1945 1324 1944 1331 1942 c 0
 1344 1938 1357 1931 1369 1921 c 0
 1381 1911 1390 1899 1397 1888 c 0
 1406 1874 1410 1855 1410 1831 c 0
 1410 1821 1409 1812 1407 1802 c 0
 1405 1793 1402 1784 1398 1776 c 0
 1392 1763 1384 1753 1374 1746 c 2
 1021 1533 l 2
EndSplineSet
EndChar

